%TF.GenerationSoftware,KiCad,Pcbnew,10.0.0*%
%TF.CreationDate,2026-09-19T11:35:58-07:00*%
%TF.ProjectId,macropad_v3,6d616372-6f70-4616-945f-76332e6b6963,rev?*%
%TF.SameCoordinates,Original*%
%TF.FileFunction,Copper,L1,Top*%
%TF.FilePolarity,Positive*%
%FSLAX46Y46*%
G04 Gerber Fmt 4.6, Leading zero omitted, Abs format (unit mm)*
G04 Created by KiCad (PCBNEW 10.0.0) date 2026-09-19 11:35:58*
%MOMM*%
%LPD*%
G01*
G04 APERTURE LIST*
%TA.AperFunction,ComponentPad*%
%ADD10C,2.500000*%
%TD*%
%TA.AperFunction,ComponentPad*%
%ADD11C,2.000000*%
%TD*%
%TA.AperFunction,ComponentPad*%
%ADD12R,2.800000X3.600000*%
%TD*%
%TA.AperFunction,ViaPad*%
%ADD13C,0.600000*%
%TD*%
%TA.AperFunction,Conductor*%
%ADD14C,0.200000*%
%TD*%
G04 APERTURE END LIST*
D10*
%TO.P,S3,1,1_1*%
%TO.N,/COL 2*%
X150465108Y-99417088D03*
%TO.P,S3,2,2_2*%
%TO.N,Net-(D3-A)*%
X156815108Y-96877088D03*
%TD*%
%TO.P,S10,1,1_1*%
%TO.N,/COL 1*%
X131415108Y-137517088D03*
%TO.P,S10,2,2_2*%
%TO.N,Net-(D10-A)*%
X137765108Y-134977088D03*
%TD*%
%TO.P,S5,1,1_1*%
%TO.N,/COL 0*%
X112365108Y-118467088D03*
%TO.P,S5,2,2_2*%
%TO.N,Net-(D5-A)*%
X118715108Y-115927088D03*
%TD*%
%TO.P,S6,1,1_1*%
%TO.N,/COL 1*%
X131415108Y-118467088D03*
%TO.P,S6,2,2_2*%
%TO.N,Net-(D6-A)*%
X137765108Y-115927088D03*
%TD*%
%TO.P,S4,1,1_1*%
%TO.N,/COL 3*%
X169515108Y-99417088D03*
%TO.P,S4,2,2_2*%
%TO.N,Net-(D4-A)*%
X175865108Y-96877088D03*
%TD*%
%TO.P,S11,1,1_1*%
%TO.N,/COL 2*%
X150465108Y-137517088D03*
%TO.P,S11,2,2_2*%
%TO.N,Net-(D11-A)*%
X156815108Y-134977088D03*
%TD*%
D11*
%TO.P,S14,1,~_1*%
%TO.N,GND*%
X113675108Y-72085213D03*
%TO.P,S14,2,~_2*%
%TO.N,/ENC_SW_2*%
X118675108Y-72085213D03*
D12*
%TO.P,S14,3,~_3*%
%TO.N,unconnected-(S14-~-Pad3)*%
X110475108Y-79085213D03*
%TO.N,unconnected-(S14-~-Pad3)_1*%
X121875108Y-79085213D03*
D11*
%TO.P,S14,A,CH_A_A*%
%TO.N,/ENC_A_2*%
X113675108Y-86585213D03*
%TO.P,S14,B,CH_B_B*%
%TO.N,/ENC_B_2*%
X118675108Y-86585213D03*
%TO.P,S14,C,COM_C*%
%TO.N,GND*%
X116175108Y-86585213D03*
%TD*%
D10*
%TO.P,S1,1,1_1*%
%TO.N,/COL 0*%
X112365108Y-99417088D03*
%TO.P,S1,2,2_2*%
%TO.N,Net-(D1-A)*%
X118715108Y-96877088D03*
%TD*%
%TO.P,S7,1,1_1*%
%TO.N,/COL 2*%
X150465108Y-118467088D03*
%TO.P,S7,2,2_2*%
%TO.N,Net-(D7-A)*%
X156815108Y-115927088D03*
%TD*%
%TO.P,S12,1,1_1*%
%TO.N,/COL 3*%
X169515108Y-137517088D03*
%TO.P,S12,2,2_2*%
%TO.N,Net-(D12-A)*%
X175865108Y-134977088D03*
%TD*%
%TO.P,S9,1,1_1*%
%TO.N,/COL 0*%
X112365108Y-137517088D03*
%TO.P,S9,2,2_2*%
%TO.N,Net-(D9-A)*%
X118715108Y-134977088D03*
%TD*%
%TO.P,S8,1,1_1*%
%TO.N,/COL 3*%
X169515108Y-118467088D03*
%TO.P,S8,2,2_2*%
%TO.N,Net-(D8-A)*%
X175865108Y-115927088D03*
%TD*%
%TO.P,S2,1,1_1*%
%TO.N,/COL 1*%
X131415108Y-99417088D03*
%TO.P,S2,2,2_2*%
%TO.N,Net-(D2-A)*%
X137765108Y-96877088D03*
%TD*%
D11*
%TO.P,S13,1,~_1*%
%TO.N,GND*%
X170825108Y-72085213D03*
%TO.P,S13,2,~_2*%
%TO.N,/ENC_SW*%
X175825108Y-72085213D03*
D12*
%TO.P,S13,3,~_3*%
%TO.N,unconnected-(S13-~-Pad3)*%
X167625108Y-79085213D03*
%TO.N,unconnected-(S13-~-Pad3)_1*%
X179025108Y-79085213D03*
D11*
%TO.P,S13,A,CH_A_A*%
%TO.N,/ENC_A*%
X170825108Y-86585213D03*
%TO.P,S13,B,CH_B_B*%
%TO.N,/ENC_B*%
X175825108Y-86585213D03*
%TO.P,S13,C,COM_C*%
%TO.N,GND*%
X173325108Y-86585213D03*
%TD*%
D13*
%TO.N,*%
X143559326Y-129639038D03*
%TO.N,/COL 2*%
X133931358Y-91285838D03*
%TO.N,/COL 1*%
X133331358Y-91850838D03*
%TO.N,/COL 0*%
X132843710Y-83055874D03*
%TO.N,/COL 3*%
X151447210Y-92875838D03*
%TO.N,GND*%
X164956358Y-99350838D03*
X155763222Y-73530882D03*
X162756358Y-142225838D03*
%TO.N,/ENC_SW_2*%
X121656358Y-75075838D03*
X129431358Y-80825838D03*
%TO.N,/ENC_A_2*%
X129706358Y-75900838D03*
X131801914Y-77995722D03*
%TO.N,/ENC_B_2*%
X129415786Y-75155472D03*
X127806358Y-76750838D03*
%TO.N,+5V*%
X157847152Y-84097756D03*
X166406358Y-124675838D03*
X159037778Y-81716504D03*
X159037778Y-83000838D03*
X128156358Y-125450838D03*
X128181358Y-103925838D03*
X157251839Y-72191496D03*
X164531358Y-96000838D03*
%TO.N,Net-(D15-DOUT)*%
X157831358Y-137675838D03*
X162531358Y-136925838D03*
%TO.N,Net-(D14-DOUT)*%
X157481358Y-129925838D03*
X165606358Y-103975838D03*
%TO.N,Net-(D13-DOUT)*%
X159931358Y-93475838D03*
X129256358Y-90225838D03*
X161531358Y-93425838D03*
X131106358Y-90700838D03*
%TO.N,/RGB_DATA*%
X127506358Y-95750838D03*
X134480818Y-90646102D03*
%TO.N,/ROW 0*%
X155763222Y-90050790D03*
X178087608Y-84097713D03*
%TO.N,/ROW 1*%
X160656358Y-105397713D03*
X159706358Y-95400838D03*
X159231358Y-94125838D03*
X157156358Y-87775838D03*
%TO.N,/ROW 2*%
X155465566Y-84692982D03*
X179931358Y-125850838D03*
%TD*%
%TO.N,/COL 2*%
D14*
X145548858Y-94500838D02*
X136056358Y-94500838D01*
X136056358Y-94500838D02*
X134481358Y-92925838D01*
X150465108Y-99417088D02*
X145548858Y-94500838D01*
X150465108Y-99417088D02*
X150465108Y-137517088D01*
X134481358Y-92925838D02*
X134481358Y-91835838D01*
X134481358Y-91835838D02*
X133931358Y-91285838D01*
%TO.N,/COL 1*%
X131415108Y-93767088D02*
X133331358Y-91850838D01*
X131415108Y-99417088D02*
X131415108Y-137517088D01*
X131415108Y-99417088D02*
X131415108Y-93767088D01*
%TO.N,/COL 0*%
X112041358Y-83065838D02*
X132833746Y-83065838D01*
X112365108Y-99417088D02*
X112365108Y-89559588D01*
X132833746Y-83065838D02*
X132843710Y-83055874D01*
X112365108Y-99417088D02*
X112365108Y-137517088D01*
X112365108Y-89559588D02*
X110181358Y-87375838D01*
X110181358Y-84925838D02*
X112041358Y-83065838D01*
X110181358Y-87375838D02*
X110181358Y-84925838D01*
%TO.N,/COL 3*%
X169381358Y-94800838D02*
X158656358Y-94800838D01*
X169515108Y-94934588D02*
X169381358Y-94800838D01*
X157206358Y-93350838D02*
X151922210Y-93350838D01*
X158656358Y-94800838D02*
X157206358Y-93350838D01*
X169515108Y-99417088D02*
X169515108Y-94934588D01*
X169515108Y-99417088D02*
X169515108Y-137517088D01*
X151922210Y-93350838D02*
X151447210Y-92875838D01*
%TO.N,/ENC_SW_2*%
X129350406Y-80744886D02*
X129431358Y-80825838D01*
X121656358Y-75075838D02*
X123681358Y-75075838D01*
X129350406Y-80744886D02*
X129428974Y-80823454D01*
X123681358Y-75075838D02*
X129350406Y-80744886D01*
%TO.N,/ENC_A_2*%
X129706358Y-75900838D02*
X131791358Y-77985838D01*
X131792030Y-77985838D02*
X131801914Y-77995722D01*
X131791358Y-77985838D02*
X131792030Y-77985838D01*
%TO.N,/ENC_B_2*%
X129403197Y-75168061D02*
X129415786Y-75155472D01*
X129389135Y-75168061D02*
X129403197Y-75168061D01*
X127806358Y-76750838D02*
X129389135Y-75168061D01*
%TO.N,+5V*%
X128181358Y-125425838D02*
X128156358Y-125450838D01*
X159037778Y-73977435D02*
X159037778Y-81716504D01*
X128181358Y-103925838D02*
X128181358Y-125425838D01*
X158944070Y-83000838D02*
X157847152Y-84097756D01*
X166406358Y-97875838D02*
X164531358Y-96000838D01*
X157251839Y-72191496D02*
X159037778Y-73977435D01*
X159037778Y-83000838D02*
X158944070Y-83000838D01*
X166406358Y-124675838D02*
X166406358Y-97875838D01*
%TO.N,Net-(D15-DOUT)*%
X158581358Y-136925838D02*
X157831358Y-137675838D01*
X162531358Y-136925838D02*
X158581358Y-136925838D01*
%TO.N,Net-(D14-DOUT)*%
X165606358Y-105825838D02*
X161131358Y-110300838D01*
X161131358Y-110300838D02*
X161131358Y-126275838D01*
X161131358Y-126275838D02*
X157481358Y-129925838D01*
X165606358Y-103975838D02*
X165606358Y-105825838D01*
%TO.N,Net-(D13-DOUT)*%
X161481358Y-93475838D02*
X161531358Y-93425838D01*
X159931358Y-93475838D02*
X161481358Y-93475838D01*
X130631358Y-90225838D02*
X131106358Y-90700838D01*
X129256358Y-90225838D02*
X130631358Y-90225838D01*
%TO.N,/RGB_DATA*%
X134441082Y-90685838D02*
X134480818Y-90646102D01*
X132571358Y-90685838D02*
X134441082Y-90685838D01*
X127506358Y-95750838D02*
X132571358Y-90685838D01*
%TO.N,/ROW 0*%
X155763222Y-87292724D02*
X155763222Y-90050790D01*
X178087608Y-84097713D02*
X158958233Y-84097713D01*
X158958233Y-84097713D02*
X155763222Y-87292724D01*
%TO.N,/ROW 1*%
X161681358Y-97375838D02*
X159706358Y-95400838D01*
X160656358Y-104200838D02*
X161681358Y-103175838D01*
X160656358Y-105397713D02*
X160656358Y-104200838D01*
X159231358Y-94125838D02*
X157156358Y-92050838D01*
X157156358Y-92050838D02*
X157156358Y-87775838D01*
X161681358Y-103175838D02*
X161681358Y-97375838D01*
%TO.N,/ROW 2*%
X179931358Y-125850838D02*
X179931358Y-84025838D01*
X155456358Y-84750838D02*
X155456358Y-84702190D01*
X178306358Y-82400838D02*
X157806358Y-82400838D01*
X179931358Y-84025838D02*
X178306358Y-82400838D01*
X155456358Y-84702190D02*
X155465566Y-84692982D01*
X157806358Y-82400838D02*
X155456358Y-84750838D01*
%TD*%
%TA.AperFunction,Conductor*%
%TO.N,GND*%
G36*
X137692489Y-69139772D02*
G01*
X137738244Y-69192576D01*
X137749450Y-69244087D01*
X137749450Y-89662705D01*
X137783558Y-89790001D01*
X137808573Y-89833327D01*
X137849450Y-89904128D01*
X137942636Y-89997314D01*
X138056764Y-90063206D01*
X138184058Y-90097314D01*
X138184060Y-90097314D01*
X151315840Y-90097314D01*
X151315842Y-90097314D01*
X151443136Y-90063206D01*
X151557264Y-89997314D01*
X151650450Y-89904128D01*
X151716342Y-89790000D01*
X151750450Y-89662706D01*
X151750450Y-69244087D01*
X151770135Y-69177048D01*
X151822939Y-69131293D01*
X151874450Y-69120087D01*
X182784216Y-69120087D01*
X182846041Y-69120087D01*
X182854151Y-69120352D01*
X183087503Y-69135646D01*
X183103561Y-69137761D01*
X183328917Y-69182587D01*
X183344572Y-69186782D01*
X183562142Y-69260637D01*
X183577126Y-69266843D01*
X183783194Y-69368465D01*
X183797242Y-69376575D01*
X183988283Y-69504225D01*
X184001144Y-69514093D01*
X184104443Y-69604684D01*
X184173889Y-69665587D01*
X184185358Y-69677056D01*
X184336849Y-69849798D01*
X184346723Y-69862666D01*
X184474370Y-70053704D01*
X184482480Y-70067751D01*
X184584102Y-70273819D01*
X184590309Y-70288805D01*
X184664161Y-70506367D01*
X184668359Y-70522034D01*
X184713182Y-70747373D01*
X184715300Y-70763455D01*
X184730399Y-70993849D01*
X184730664Y-71001958D01*
X184730664Y-147199731D01*
X184730400Y-147207824D01*
X184715362Y-147437733D01*
X184713253Y-147453782D01*
X184668613Y-147678676D01*
X184664432Y-147694314D01*
X184590875Y-147911483D01*
X184584693Y-147926441D01*
X184483477Y-148132178D01*
X184475398Y-148146206D01*
X184348241Y-148337009D01*
X184338405Y-148349864D01*
X184187482Y-148522473D01*
X184176055Y-148533937D01*
X184003933Y-148685418D01*
X183991110Y-148695296D01*
X183800717Y-148823069D01*
X183786723Y-148831188D01*
X183581310Y-148933071D01*
X183566376Y-148939300D01*
X183349444Y-149013558D01*
X183333819Y-149017790D01*
X183109062Y-149063157D01*
X183093022Y-149065317D01*
X182874643Y-149080310D01*
X182860287Y-149081296D01*
X182851795Y-149081587D01*
X106654175Y-149081587D01*
X106646065Y-149081322D01*
X106412724Y-149066028D01*
X106396643Y-149063910D01*
X106171308Y-149019088D01*
X106155640Y-149014890D01*
X105938072Y-148941035D01*
X105923087Y-148934828D01*
X105717023Y-148833208D01*
X105702976Y-148825098D01*
X105511938Y-148697451D01*
X105499070Y-148687577D01*
X105326328Y-148536086D01*
X105314859Y-148524617D01*
X105251604Y-148452489D01*
X105163365Y-148351872D01*
X105153494Y-148339007D01*
X105025847Y-148147969D01*
X105017737Y-148133922D01*
X104950839Y-147998266D01*
X104916114Y-147927851D01*
X104909913Y-147912880D01*
X104836052Y-147695294D01*
X104831860Y-147679649D01*
X104787033Y-147454291D01*
X104784918Y-147438233D01*
X104769624Y-147204881D01*
X104769359Y-147196772D01*
X104769359Y-147134946D01*
X104769358Y-147134945D01*
X104769358Y-147094647D01*
X124349750Y-147094647D01*
X124349750Y-147307220D01*
X124373045Y-147454302D01*
X124383004Y-147517177D01*
X124438064Y-147686634D01*
X124448694Y-147719348D01*
X124545201Y-147908754D01*
X124670140Y-148080720D01*
X124820463Y-148231043D01*
X124992429Y-148355982D01*
X124992431Y-148355983D01*
X124992434Y-148355985D01*
X125181838Y-148452491D01*
X125384007Y-148518180D01*
X125593963Y-148551434D01*
X125593964Y-148551434D01*
X125806536Y-148551434D01*
X125806537Y-148551434D01*
X126016493Y-148518180D01*
X126218662Y-148452491D01*
X126408066Y-148355985D01*
X126477728Y-148305373D01*
X126580036Y-148231043D01*
X126580038Y-148231040D01*
X126580042Y-148231038D01*
X126730354Y-148080726D01*
X126730356Y-148080722D01*
X126730359Y-148080720D01*
X126855298Y-147908754D01*
X126855297Y-147908754D01*
X126855301Y-147908750D01*
X126951807Y-147719346D01*
X127017496Y-147517177D01*
X127050750Y-147307221D01*
X127050750Y-147094647D01*
X162449782Y-147094647D01*
X162449782Y-147307220D01*
X162473077Y-147454302D01*
X162483036Y-147517177D01*
X162538096Y-147686634D01*
X162548726Y-147719348D01*
X162645233Y-147908754D01*
X162770172Y-148080720D01*
X162920495Y-148231043D01*
X163092461Y-148355982D01*
X163092463Y-148355983D01*
X163092466Y-148355985D01*
X163281870Y-148452491D01*
X163484039Y-148518180D01*
X163693995Y-148551434D01*
X163693996Y-148551434D01*
X163906568Y-148551434D01*
X163906569Y-148551434D01*
X164116525Y-148518180D01*
X164318694Y-148452491D01*
X164508098Y-148355985D01*
X164577760Y-148305373D01*
X164680068Y-148231043D01*
X164680070Y-148231040D01*
X164680074Y-148231038D01*
X164830386Y-148080726D01*
X164830388Y-148080722D01*
X164830391Y-148080720D01*
X164955330Y-147908754D01*
X164955329Y-147908754D01*
X164955333Y-147908750D01*
X165051839Y-147719346D01*
X165117528Y-147517177D01*
X165150782Y-147307221D01*
X165150782Y-147094647D01*
X165117528Y-146884691D01*
X165051839Y-146682522D01*
X164955333Y-146493118D01*
X164955331Y-146493115D01*
X164955330Y-146493113D01*
X164830391Y-146321147D01*
X164680068Y-146170824D01*
X164508102Y-146045885D01*
X164318696Y-145949378D01*
X164318695Y-145949377D01*
X164318694Y-145949377D01*
X164116525Y-145883688D01*
X164116523Y-145883687D01*
X164116522Y-145883687D01*
X163955239Y-145858142D01*
X163906569Y-145850434D01*
X163693995Y-145850434D01*
X163645324Y-145858142D01*
X163484042Y-145883687D01*
X163281867Y-145949378D01*
X163092461Y-146045885D01*
X162920495Y-146170824D01*
X162770172Y-146321147D01*
X162645233Y-146493113D01*
X162548726Y-146682519D01*
X162483035Y-146884694D01*
X162449782Y-147094647D01*
X127050750Y-147094647D01*
X127017496Y-146884691D01*
X126951807Y-146682522D01*
X126855301Y-146493118D01*
X126855299Y-146493115D01*
X126855298Y-146493113D01*
X126730359Y-146321147D01*
X126580036Y-146170824D01*
X126408070Y-146045885D01*
X126218664Y-145949378D01*
X126218663Y-145949377D01*
X126218662Y-145949377D01*
X126016493Y-145883688D01*
X126016491Y-145883687D01*
X126016490Y-145883687D01*
X125855207Y-145858142D01*
X125806537Y-145850434D01*
X125593963Y-145850434D01*
X125545292Y-145858142D01*
X125384010Y-145883687D01*
X125181835Y-145949378D01*
X124992429Y-146045885D01*
X124820463Y-146170824D01*
X124670140Y-146321147D01*
X124545201Y-146493113D01*
X124448694Y-146682519D01*
X124383003Y-146884694D01*
X124349750Y-147094647D01*
X104769358Y-147094647D01*
X104769358Y-87454892D01*
X109580856Y-87454892D01*
X109621781Y-87607623D01*
X109650716Y-87657738D01*
X109650717Y-87657742D01*
X109650718Y-87657742D01*
X109700837Y-87744552D01*
X109700839Y-87744555D01*
X109819707Y-87863423D01*
X109819713Y-87863428D01*
X111728289Y-89772004D01*
X111761774Y-89833327D01*
X111764608Y-89859685D01*
X111764608Y-97688241D01*
X111744923Y-97755280D01*
X111692119Y-97801035D01*
X111688071Y-97802797D01*
X111589220Y-97843744D01*
X111589217Y-97843745D01*
X111589209Y-97843749D01*
X111390490Y-97958480D01*
X111208446Y-98098169D01*
X111046189Y-98260426D01*
X110906500Y-98442470D01*
X110791765Y-98641197D01*
X110791758Y-98641211D01*
X110703950Y-98853200D01*
X110644561Y-99074847D01*
X110644559Y-99074858D01*
X110614608Y-99302346D01*
X110614608Y-99531829D01*
X110637617Y-99706588D01*
X110644560Y-99759326D01*
X110691455Y-99934342D01*
X110703950Y-99980975D01*
X110791758Y-100192964D01*
X110791765Y-100192978D01*
X110906500Y-100391705D01*
X111046189Y-100573749D01*
X111046197Y-100573758D01*
X111092346Y-100619907D01*
X111125831Y-100681230D01*
X111120847Y-100750922D01*
X111078975Y-100806855D01*
X111013511Y-100831272D01*
X111008075Y-100831466D01*
X111006531Y-100831587D01*
X110831551Y-100859302D01*
X110663068Y-100914044D01*
X110663065Y-100914045D01*
X110505217Y-100994474D01*
X110423446Y-101053884D01*
X110361894Y-101098605D01*
X110361892Y-101098607D01*
X110361891Y-101098607D01*
X110236627Y-101223871D01*
X110236627Y-101223872D01*
X110236625Y-101223874D01*
X110191904Y-101285426D01*
X110132494Y-101367197D01*
X110052065Y-101525045D01*
X110052064Y-101525048D01*
X109997322Y-101693531D01*
X109969608Y-101868509D01*
X109969608Y-102045666D01*
X109997322Y-102220644D01*
X110052064Y-102389127D01*
X110052065Y-102389130D01*
X110120027Y-102522510D01*
X110132494Y-102546978D01*
X110236625Y-102690302D01*
X110361894Y-102815571D01*
X110505218Y-102919702D01*
X110550509Y-102942779D01*
X110663065Y-103000130D01*
X110663068Y-103000131D01*
X110747309Y-103027502D01*
X110831553Y-103054874D01*
X111006529Y-103082588D01*
X111006530Y-103082588D01*
X111183686Y-103082588D01*
X111183687Y-103082588D01*
X111358663Y-103054874D01*
X111527150Y-103000130D01*
X111584313Y-102971003D01*
X111652981Y-102958107D01*
X111717721Y-102984382D01*
X111757979Y-103041488D01*
X111764608Y-103081488D01*
X111764608Y-116738241D01*
X111744923Y-116805280D01*
X111692119Y-116851035D01*
X111688071Y-116852797D01*
X111589220Y-116893744D01*
X111589217Y-116893745D01*
X111589209Y-116893749D01*
X111390490Y-117008480D01*
X111208446Y-117148169D01*
X111046189Y-117310426D01*
X110906500Y-117492470D01*
X110791765Y-117691197D01*
X110791758Y-117691211D01*
X110703950Y-117903200D01*
X110644561Y-118124847D01*
X110644559Y-118124858D01*
X110614608Y-118352346D01*
X110614608Y-118581829D01*
X110637617Y-118756588D01*
X110644560Y-118809326D01*
X110691455Y-118984342D01*
X110703950Y-119030975D01*
X110791758Y-119242964D01*
X110791765Y-119242978D01*
X110906500Y-119441705D01*
X111046189Y-119623749D01*
X111046197Y-119623758D01*
X111092346Y-119669907D01*
X111125831Y-119731230D01*
X111120847Y-119800922D01*
X111078975Y-119856855D01*
X111013511Y-119881272D01*
X111008075Y-119881466D01*
X111006531Y-119881587D01*
X110831551Y-119909302D01*
X110663068Y-119964044D01*
X110663065Y-119964045D01*
X110505217Y-120044474D01*
X110423446Y-120103884D01*
X110361894Y-120148605D01*
X110361892Y-120148607D01*
X110361891Y-120148607D01*
X110236627Y-120273871D01*
X110236627Y-120273872D01*
X110236625Y-120273874D01*
X110196631Y-120328921D01*
X110132494Y-120417197D01*
X110052065Y-120575045D01*
X110052064Y-120575048D01*
X109997322Y-120743531D01*
X109969608Y-120918509D01*
X109969608Y-121095666D01*
X109997322Y-121270644D01*
X110052064Y-121439127D01*
X110052065Y-121439130D01*
X110120027Y-121572510D01*
X110132494Y-121596978D01*
X110236625Y-121740302D01*
X110361894Y-121865571D01*
X110505218Y-121969702D01*
X110573685Y-122004588D01*
X110663065Y-122050130D01*
X110663068Y-122050131D01*
X110747309Y-122077502D01*
X110831553Y-122104874D01*
X111006529Y-122132588D01*
X111006530Y-122132588D01*
X111183686Y-122132588D01*
X111183687Y-122132588D01*
X111358663Y-122104874D01*
X111527150Y-122050130D01*
X111584313Y-122021003D01*
X111652981Y-122008107D01*
X111717721Y-122034382D01*
X111757979Y-122091488D01*
X111764608Y-122131488D01*
X111764608Y-135788241D01*
X111744923Y-135855280D01*
X111692119Y-135901035D01*
X111688071Y-135902797D01*
X111589220Y-135943744D01*
X111589217Y-135943745D01*
X111589209Y-135943749D01*
X111390490Y-136058480D01*
X111208446Y-136198169D01*
X111046189Y-136360426D01*
X110906500Y-136542470D01*
X110791765Y-136741197D01*
X110791758Y-136741211D01*
X110703950Y-136953200D01*
X110644561Y-137174847D01*
X110644559Y-137174858D01*
X110614608Y-137402346D01*
X110614608Y-137631829D01*
X110630783Y-137754680D01*
X110644560Y-137859326D01*
X110691455Y-138034342D01*
X110703950Y-138080975D01*
X110791758Y-138292964D01*
X110791765Y-138292978D01*
X110906500Y-138491705D01*
X111046189Y-138673749D01*
X111046197Y-138673758D01*
X111092346Y-138719907D01*
X111125831Y-138781230D01*
X111120847Y-138850922D01*
X111078975Y-138906855D01*
X111013511Y-138931272D01*
X111008075Y-138931466D01*
X111006531Y-138931587D01*
X110831551Y-138959302D01*
X110663068Y-139014044D01*
X110663065Y-139014045D01*
X110505217Y-139094474D01*
X110423446Y-139153884D01*
X110361894Y-139198605D01*
X110361892Y-139198607D01*
X110361891Y-139198607D01*
X110236627Y-139323871D01*
X110236627Y-139323872D01*
X110236625Y-139323874D01*
X110191904Y-139385426D01*
X110132494Y-139467197D01*
X110052065Y-139625045D01*
X110052064Y-139625048D01*
X109997322Y-139793531D01*
X109969608Y-139968509D01*
X109969608Y-140145666D01*
X109997322Y-140320644D01*
X110052064Y-140489127D01*
X110052065Y-140489130D01*
X110132494Y-140646978D01*
X110236625Y-140790302D01*
X110361894Y-140915571D01*
X110505218Y-141019702D01*
X110573685Y-141054588D01*
X110663065Y-141100130D01*
X110663068Y-141100131D01*
X110747309Y-141127502D01*
X110831553Y-141154874D01*
X111006529Y-141182588D01*
X111006530Y-141182588D01*
X111183686Y-141182588D01*
X111183687Y-141182588D01*
X111358663Y-141154874D01*
X111527150Y-141100130D01*
X111684998Y-141019702D01*
X111828322Y-140915571D01*
X111953591Y-140790302D01*
X112057722Y-140646978D01*
X112138150Y-140489130D01*
X112192894Y-140320643D01*
X112220608Y-140145667D01*
X112220608Y-139968509D01*
X112211273Y-139909574D01*
X113924608Y-139909574D01*
X113924608Y-140204601D01*
X113939886Y-140320643D01*
X113963115Y-140497081D01*
X114039469Y-140782039D01*
X114039472Y-140782049D01*
X114152362Y-141054588D01*
X114152366Y-141054598D01*
X114299869Y-141310081D01*
X114479460Y-141544128D01*
X114479466Y-141544135D01*
X114688060Y-141752729D01*
X114688067Y-141752735D01*
X114922114Y-141932326D01*
X115177597Y-142079829D01*
X115177598Y-142079829D01*
X115177601Y-142079831D01*
X115450156Y-142192727D01*
X115735115Y-142269081D01*
X116027602Y-142307588D01*
X116027609Y-142307588D01*
X116322607Y-142307588D01*
X116322614Y-142307588D01*
X116615101Y-142269081D01*
X116900060Y-142192727D01*
X117172615Y-142079831D01*
X117428102Y-141932326D01*
X117662150Y-141752734D01*
X117870754Y-141544130D01*
X118050346Y-141310082D01*
X118197851Y-141054595D01*
X118310747Y-140782040D01*
X118387101Y-140497081D01*
X118425608Y-140204594D01*
X118425608Y-139968509D01*
X120129608Y-139968509D01*
X120129608Y-140145666D01*
X120157322Y-140320644D01*
X120212064Y-140489127D01*
X120212065Y-140489130D01*
X120292494Y-140646978D01*
X120396625Y-140790302D01*
X120521894Y-140915571D01*
X120665218Y-141019702D01*
X120733685Y-141054588D01*
X120823065Y-141100130D01*
X120823068Y-141100131D01*
X120907309Y-141127502D01*
X120991553Y-141154874D01*
X121166529Y-141182588D01*
X121166530Y-141182588D01*
X121343686Y-141182588D01*
X121343687Y-141182588D01*
X121518663Y-141154874D01*
X121687150Y-141100130D01*
X121844998Y-141019702D01*
X121988322Y-140915571D01*
X122113591Y-140790302D01*
X122217722Y-140646978D01*
X122298150Y-140489130D01*
X122352894Y-140320643D01*
X122380608Y-140145667D01*
X122380608Y-139968509D01*
X122352894Y-139793533D01*
X122298150Y-139625046D01*
X122298150Y-139625045D01*
X122217721Y-139467197D01*
X122206626Y-139451926D01*
X122113591Y-139323874D01*
X121988322Y-139198605D01*
X121844998Y-139094474D01*
X121837061Y-139090430D01*
X121687150Y-139014045D01*
X121687147Y-139014044D01*
X121518664Y-138959302D01*
X121431175Y-138945445D01*
X121343687Y-138931588D01*
X121166529Y-138931588D01*
X121108203Y-138940826D01*
X120991551Y-138959302D01*
X120823068Y-139014044D01*
X120823065Y-139014045D01*
X120665217Y-139094474D01*
X120583446Y-139153884D01*
X120521894Y-139198605D01*
X120521892Y-139198607D01*
X120521891Y-139198607D01*
X120396627Y-139323871D01*
X120396627Y-139323872D01*
X120396625Y-139323874D01*
X120351904Y-139385426D01*
X120292494Y-139467197D01*
X120212065Y-139625045D01*
X120212064Y-139625048D01*
X120157322Y-139793531D01*
X120129608Y-139968509D01*
X118425608Y-139968509D01*
X118425608Y-139909582D01*
X118387101Y-139617095D01*
X118310747Y-139332136D01*
X118197851Y-139059581D01*
X118171561Y-139014046D01*
X118050346Y-138804094D01*
X117870755Y-138570047D01*
X117870749Y-138570040D01*
X117662155Y-138361446D01*
X117662148Y-138361440D01*
X117428101Y-138181849D01*
X117172618Y-138034346D01*
X117172608Y-138034342D01*
X116900069Y-137921452D01*
X116900062Y-137921450D01*
X116900060Y-137921449D01*
X116615101Y-137845095D01*
X116566221Y-137838659D01*
X116322621Y-137806588D01*
X116322614Y-137806588D01*
X116027602Y-137806588D01*
X116027594Y-137806588D01*
X115749193Y-137843241D01*
X115735115Y-137845095D01*
X115450156Y-137921449D01*
X115450146Y-137921452D01*
X115177607Y-138034342D01*
X115177597Y-138034346D01*
X114922114Y-138181849D01*
X114688067Y-138361440D01*
X114688060Y-138361446D01*
X114479466Y-138570040D01*
X114479460Y-138570047D01*
X114299869Y-138804094D01*
X114152366Y-139059577D01*
X114152362Y-139059587D01*
X114039472Y-139332126D01*
X114039469Y-139332136D01*
X114003280Y-139467198D01*
X113963116Y-139617092D01*
X113963114Y-139617103D01*
X113924608Y-139909574D01*
X112211273Y-139909574D01*
X112192894Y-139793533D01*
X112138150Y-139625046D01*
X112138150Y-139625045D01*
X112057721Y-139467197D01*
X112046626Y-139451926D01*
X112023146Y-139386120D01*
X112038971Y-139318066D01*
X112089076Y-139269371D01*
X112157554Y-139255495D01*
X112163085Y-139256096D01*
X112250374Y-139267588D01*
X112250381Y-139267588D01*
X112479835Y-139267588D01*
X112479842Y-139267588D01*
X112707346Y-139237636D01*
X112928995Y-139178246D01*
X113140996Y-139090432D01*
X113339720Y-138975699D01*
X113521769Y-138836007D01*
X113521773Y-138836002D01*
X113521778Y-138835999D01*
X113684019Y-138673758D01*
X113684022Y-138673753D01*
X113684027Y-138673749D01*
X113823719Y-138491700D01*
X113938452Y-138292976D01*
X114026266Y-138080975D01*
X114085656Y-137859326D01*
X114115608Y-137631822D01*
X114115608Y-137402354D01*
X114085656Y-137174850D01*
X114026266Y-136953201D01*
X113938452Y-136741200D01*
X113823719Y-136542476D01*
X113823716Y-136542473D01*
X113823715Y-136542470D01*
X113688504Y-136366262D01*
X113684027Y-136360427D01*
X113684026Y-136360426D01*
X113684019Y-136360418D01*
X113521778Y-136198177D01*
X113521769Y-136198169D01*
X113339725Y-136058480D01*
X113141006Y-135943749D01*
X113141001Y-135943747D01*
X113140996Y-135943744D01*
X113042153Y-135902801D01*
X112987751Y-135858960D01*
X112965687Y-135792665D01*
X112965608Y-135788241D01*
X112965608Y-134862346D01*
X116964608Y-134862346D01*
X116964608Y-135091829D01*
X116989554Y-135281303D01*
X116994560Y-135319326D01*
X116994561Y-135319328D01*
X117053950Y-135540975D01*
X117141758Y-135752964D01*
X117141765Y-135752978D01*
X117256500Y-135951705D01*
X117396189Y-136133749D01*
X117396197Y-136133758D01*
X117558438Y-136295999D01*
X117558446Y-136296006D01*
X117558447Y-136296007D01*
X117568930Y-136304051D01*
X117740490Y-136435695D01*
X117740493Y-136435696D01*
X117740496Y-136435699D01*
X117939220Y-136550432D01*
X117939225Y-136550434D01*
X117939231Y-136550437D01*
X118030588Y-136588278D01*
X118151221Y-136638246D01*
X118372870Y-136697636D01*
X118600374Y-136727588D01*
X118600381Y-136727588D01*
X118829835Y-136727588D01*
X118829842Y-136727588D01*
X119057346Y-136697636D01*
X119278995Y-136638246D01*
X119490996Y-136550432D01*
X119689720Y-136435699D01*
X119871769Y-136296007D01*
X119871773Y-136296002D01*
X119871778Y-136295999D01*
X120034019Y-136133758D01*
X120034022Y-136133753D01*
X120034027Y-136133749D01*
X120173719Y-135951700D01*
X120288452Y-135752976D01*
X120376266Y-135540975D01*
X120435656Y-135319326D01*
X120465608Y-135091822D01*
X120465608Y-134862354D01*
X120435656Y-134634850D01*
X120376266Y-134413201D01*
X120288452Y-134201200D01*
X120173719Y-134002476D01*
X120173716Y-134002473D01*
X120173715Y-134002470D01*
X120034026Y-133820426D01*
X120034019Y-133820418D01*
X119871778Y-133658177D01*
X119871769Y-133658169D01*
X119689725Y-133518480D01*
X119490998Y-133403745D01*
X119490984Y-133403738D01*
X119278995Y-133315930D01*
X119057346Y-133256540D01*
X119019323Y-133251534D01*
X118829849Y-133226588D01*
X118829842Y-133226588D01*
X118600374Y-133226588D01*
X118600366Y-133226588D01*
X118383823Y-133255097D01*
X118372870Y-133256540D01*
X118279184Y-133281642D01*
X118151220Y-133315930D01*
X117939231Y-133403738D01*
X117939217Y-133403745D01*
X117740490Y-133518480D01*
X117558446Y-133658169D01*
X117396189Y-133820426D01*
X117256500Y-134002470D01*
X117141765Y-134201197D01*
X117141758Y-134201211D01*
X117053950Y-134413200D01*
X116994561Y-134634847D01*
X116994559Y-134634858D01*
X116964608Y-134862346D01*
X112965608Y-134862346D01*
X112965608Y-120859574D01*
X113924608Y-120859574D01*
X113924608Y-121154601D01*
X113926654Y-121170138D01*
X113963115Y-121447081D01*
X114016875Y-121647716D01*
X114039469Y-121732039D01*
X114039472Y-121732049D01*
X114152362Y-122004588D01*
X114152366Y-122004598D01*
X114299869Y-122260081D01*
X114479460Y-122494128D01*
X114479466Y-122494135D01*
X114688060Y-122702729D01*
X114688067Y-122702735D01*
X114922114Y-122882326D01*
X115177597Y-123029829D01*
X115177598Y-123029829D01*
X115177601Y-123029831D01*
X115450156Y-123142727D01*
X115735115Y-123219081D01*
X116027602Y-123257588D01*
X116027609Y-123257588D01*
X116322607Y-123257588D01*
X116322614Y-123257588D01*
X116615101Y-123219081D01*
X116900060Y-123142727D01*
X117172615Y-123029831D01*
X117428102Y-122882326D01*
X117662150Y-122702734D01*
X117870754Y-122494130D01*
X118050346Y-122260082D01*
X118197851Y-122004595D01*
X118310747Y-121732040D01*
X118387101Y-121447081D01*
X118425608Y-121154594D01*
X118425608Y-120918509D01*
X120129608Y-120918509D01*
X120129608Y-121095666D01*
X120157322Y-121270644D01*
X120212064Y-121439127D01*
X120212065Y-121439130D01*
X120280027Y-121572510D01*
X120292494Y-121596978D01*
X120396625Y-121740302D01*
X120521894Y-121865571D01*
X120665218Y-121969702D01*
X120733685Y-122004588D01*
X120823065Y-122050130D01*
X120823068Y-122050131D01*
X120907309Y-122077502D01*
X120991553Y-122104874D01*
X121166529Y-122132588D01*
X121166530Y-122132588D01*
X121343686Y-122132588D01*
X121343687Y-122132588D01*
X121518663Y-122104874D01*
X121687150Y-122050130D01*
X121844998Y-121969702D01*
X121988322Y-121865571D01*
X122113591Y-121740302D01*
X122217722Y-121596978D01*
X122298150Y-121439130D01*
X122352894Y-121270643D01*
X122380608Y-121095667D01*
X122380608Y-120918509D01*
X122352894Y-120743533D01*
X122298150Y-120575046D01*
X122298150Y-120575045D01*
X122230214Y-120441715D01*
X122217722Y-120417198D01*
X122113591Y-120273874D01*
X121988322Y-120148605D01*
X121844998Y-120044474D01*
X121837061Y-120040430D01*
X121687150Y-119964045D01*
X121687147Y-119964044D01*
X121518664Y-119909302D01*
X121431175Y-119895445D01*
X121343687Y-119881588D01*
X121166529Y-119881588D01*
X121108203Y-119890826D01*
X120991551Y-119909302D01*
X120823068Y-119964044D01*
X120823065Y-119964045D01*
X120665217Y-120044474D01*
X120583446Y-120103884D01*
X120521894Y-120148605D01*
X120521892Y-120148607D01*
X120521891Y-120148607D01*
X120396627Y-120273871D01*
X120396627Y-120273872D01*
X120396625Y-120273874D01*
X120356631Y-120328921D01*
X120292494Y-120417197D01*
X120212065Y-120575045D01*
X120212064Y-120575048D01*
X120157322Y-120743531D01*
X120129608Y-120918509D01*
X118425608Y-120918509D01*
X118425608Y-120859582D01*
X118387101Y-120567095D01*
X118310747Y-120282136D01*
X118197851Y-120009581D01*
X118171561Y-119964046D01*
X118050346Y-119754094D01*
X117870755Y-119520047D01*
X117870749Y-119520040D01*
X117662155Y-119311446D01*
X117662148Y-119311440D01*
X117428101Y-119131849D01*
X117172618Y-118984346D01*
X117172608Y-118984342D01*
X116900069Y-118871452D01*
X116900062Y-118871450D01*
X116900060Y-118871449D01*
X116615101Y-118795095D01*
X116566221Y-118788659D01*
X116322621Y-118756588D01*
X116322614Y-118756588D01*
X116027602Y-118756588D01*
X116027594Y-118756588D01*
X115749193Y-118793241D01*
X115735115Y-118795095D01*
X115450156Y-118871449D01*
X115450146Y-118871452D01*
X115177607Y-118984342D01*
X115177597Y-118984346D01*
X114922114Y-119131849D01*
X114688067Y-119311440D01*
X114688060Y-119311446D01*
X114479466Y-119520040D01*
X114479460Y-119520047D01*
X114299869Y-119754094D01*
X114152366Y-120009577D01*
X114152362Y-120009587D01*
X114039472Y-120282126D01*
X114039469Y-120282136D01*
X113984229Y-120488298D01*
X113963116Y-120567092D01*
X113963114Y-120567103D01*
X113924608Y-120859574D01*
X112965608Y-120859574D01*
X112965608Y-120195934D01*
X112985293Y-120128895D01*
X113038097Y-120083140D01*
X113042156Y-120081373D01*
X113140984Y-120040437D01*
X113140984Y-120040436D01*
X113140996Y-120040432D01*
X113339720Y-119925699D01*
X113521769Y-119786007D01*
X113521773Y-119786002D01*
X113521778Y-119785999D01*
X113684019Y-119623758D01*
X113684022Y-119623753D01*
X113684027Y-119623749D01*
X113823719Y-119441700D01*
X113938452Y-119242976D01*
X114026266Y-119030975D01*
X114085656Y-118809326D01*
X114115608Y-118581822D01*
X114115608Y-118352354D01*
X114085656Y-118124850D01*
X114026266Y-117903201D01*
X113938452Y-117691200D01*
X113823719Y-117492476D01*
X113823716Y-117492473D01*
X113823715Y-117492470D01*
X113684026Y-117310426D01*
X113684019Y-117310418D01*
X113521778Y-117148177D01*
X113521769Y-117148169D01*
X113339725Y-117008480D01*
X113141006Y-116893749D01*
X113141001Y-116893747D01*
X113140996Y-116893744D01*
X113042153Y-116852801D01*
X112987751Y-116808960D01*
X112965687Y-116742665D01*
X112965608Y-116738241D01*
X112965608Y-115812346D01*
X116964608Y-115812346D01*
X116964608Y-116041829D01*
X116989554Y-116231303D01*
X116994560Y-116269326D01*
X116994561Y-116269328D01*
X117053950Y-116490975D01*
X117141758Y-116702964D01*
X117141765Y-116702978D01*
X117256500Y-116901705D01*
X117396189Y-117083749D01*
X117396197Y-117083758D01*
X117558438Y-117245999D01*
X117558446Y-117246006D01*
X117740490Y-117385695D01*
X117740493Y-117385696D01*
X117740496Y-117385699D01*
X117939220Y-117500432D01*
X117939225Y-117500434D01*
X117939231Y-117500437D01*
X118030588Y-117538278D01*
X118151221Y-117588246D01*
X118372870Y-117647636D01*
X118600374Y-117677588D01*
X118600381Y-117677588D01*
X118829835Y-117677588D01*
X118829842Y-117677588D01*
X119057346Y-117647636D01*
X119278995Y-117588246D01*
X119490996Y-117500432D01*
X119689720Y-117385699D01*
X119871769Y-117246007D01*
X119871773Y-117246002D01*
X119871778Y-117245999D01*
X120034019Y-117083758D01*
X120034022Y-117083753D01*
X120034027Y-117083749D01*
X120173719Y-116901700D01*
X120288452Y-116702976D01*
X120376266Y-116490975D01*
X120435656Y-116269326D01*
X120465608Y-116041822D01*
X120465608Y-115812354D01*
X120435656Y-115584850D01*
X120376266Y-115363201D01*
X120288452Y-115151200D01*
X120173719Y-114952476D01*
X120173716Y-114952473D01*
X120173715Y-114952470D01*
X120034026Y-114770426D01*
X120034019Y-114770418D01*
X119871778Y-114608177D01*
X119871769Y-114608169D01*
X119689725Y-114468480D01*
X119490998Y-114353745D01*
X119490984Y-114353738D01*
X119278995Y-114265930D01*
X119057346Y-114206540D01*
X119019323Y-114201534D01*
X118829849Y-114176588D01*
X118829842Y-114176588D01*
X118600374Y-114176588D01*
X118600366Y-114176588D01*
X118383823Y-114205097D01*
X118372870Y-114206540D01*
X118279184Y-114231642D01*
X118151220Y-114265930D01*
X117939231Y-114353738D01*
X117939217Y-114353745D01*
X117740490Y-114468480D01*
X117558446Y-114608169D01*
X117396189Y-114770426D01*
X117256500Y-114952470D01*
X117141765Y-115151197D01*
X117141758Y-115151211D01*
X117053950Y-115363200D01*
X116994561Y-115584847D01*
X116994559Y-115584858D01*
X116964608Y-115812346D01*
X112965608Y-115812346D01*
X112965608Y-111375867D01*
X124349750Y-111375867D01*
X124349750Y-111588440D01*
X124383003Y-111798393D01*
X124448694Y-112000568D01*
X124545201Y-112189974D01*
X124670140Y-112361940D01*
X124820463Y-112512263D01*
X124992429Y-112637202D01*
X124992431Y-112637203D01*
X124992434Y-112637205D01*
X125181838Y-112733711D01*
X125384007Y-112799400D01*
X125593963Y-112832654D01*
X125593964Y-112832654D01*
X125806536Y-112832654D01*
X125806537Y-112832654D01*
X126016493Y-112799400D01*
X126218662Y-112733711D01*
X126408066Y-112637205D01*
X126430039Y-112621240D01*
X126580036Y-112512263D01*
X126580038Y-112512260D01*
X126580042Y-112512258D01*
X126730354Y-112361946D01*
X126730356Y-112361942D01*
X126730359Y-112361940D01*
X126855298Y-112189974D01*
X126855297Y-112189974D01*
X126855301Y-112189970D01*
X126951807Y-112000566D01*
X127017496Y-111798397D01*
X127050750Y-111588441D01*
X127050750Y-111375867D01*
X127017496Y-111165911D01*
X126951807Y-110963742D01*
X126855301Y-110774338D01*
X126855299Y-110774335D01*
X126855298Y-110774333D01*
X126730359Y-110602367D01*
X126580036Y-110452044D01*
X126408070Y-110327105D01*
X126218664Y-110230598D01*
X126218663Y-110230597D01*
X126218662Y-110230597D01*
X126016493Y-110164908D01*
X126016491Y-110164907D01*
X126016490Y-110164907D01*
X125855207Y-110139362D01*
X125806537Y-110131654D01*
X125593963Y-110131654D01*
X125545292Y-110139362D01*
X125384010Y-110164907D01*
X125181835Y-110230598D01*
X124992429Y-110327105D01*
X124820463Y-110452044D01*
X124670140Y-110602367D01*
X124545201Y-110774333D01*
X124448694Y-110963739D01*
X124383003Y-111165914D01*
X124349750Y-111375867D01*
X112965608Y-111375867D01*
X112965608Y-101809574D01*
X113924608Y-101809574D01*
X113924608Y-102104601D01*
X113939886Y-102220643D01*
X113963115Y-102397081D01*
X114016875Y-102597716D01*
X114039469Y-102682039D01*
X114039472Y-102682049D01*
X114152362Y-102954588D01*
X114152366Y-102954598D01*
X114299869Y-103210081D01*
X114479460Y-103444128D01*
X114479466Y-103444135D01*
X114688060Y-103652729D01*
X114688067Y-103652735D01*
X114922114Y-103832326D01*
X115177597Y-103979829D01*
X115177598Y-103979829D01*
X115177601Y-103979831D01*
X115450156Y-104092727D01*
X115735115Y-104169081D01*
X116027602Y-104207588D01*
X116027609Y-104207588D01*
X116322607Y-104207588D01*
X116322614Y-104207588D01*
X116615101Y-104169081D01*
X116900060Y-104092727D01*
X117172615Y-103979831D01*
X117428102Y-103832326D01*
X117662150Y-103652734D01*
X117870754Y-103444130D01*
X118050346Y-103210082D01*
X118197851Y-102954595D01*
X118310747Y-102682040D01*
X118387101Y-102397081D01*
X118425608Y-102104594D01*
X118425608Y-101868509D01*
X120129608Y-101868509D01*
X120129608Y-102045666D01*
X120157322Y-102220644D01*
X120212064Y-102389127D01*
X120212065Y-102389130D01*
X120280027Y-102522510D01*
X120292494Y-102546978D01*
X120396625Y-102690302D01*
X120521894Y-102815571D01*
X120665218Y-102919702D01*
X120710509Y-102942779D01*
X120823065Y-103000130D01*
X120823068Y-103000131D01*
X120907309Y-103027502D01*
X120991553Y-103054874D01*
X121166529Y-103082588D01*
X121166530Y-103082588D01*
X121343686Y-103082588D01*
X121343687Y-103082588D01*
X121518663Y-103054874D01*
X121687150Y-103000130D01*
X121844998Y-102919702D01*
X121988322Y-102815571D01*
X122113591Y-102690302D01*
X122217722Y-102546978D01*
X122298150Y-102389130D01*
X122352894Y-102220643D01*
X122380608Y-102045667D01*
X122380608Y-101868509D01*
X122352894Y-101693533D01*
X122298150Y-101525046D01*
X122298150Y-101525045D01*
X122253949Y-101438298D01*
X122217722Y-101367198D01*
X122113591Y-101223874D01*
X121988322Y-101098605D01*
X121844998Y-100994474D01*
X121837061Y-100990430D01*
X121687150Y-100914045D01*
X121687147Y-100914044D01*
X121518664Y-100859302D01*
X121431175Y-100845445D01*
X121343687Y-100831588D01*
X121166529Y-100831588D01*
X121108203Y-100840826D01*
X120991551Y-100859302D01*
X120823068Y-100914044D01*
X120823065Y-100914045D01*
X120665217Y-100994474D01*
X120583446Y-101053884D01*
X120521894Y-101098605D01*
X120521892Y-101098607D01*
X120521891Y-101098607D01*
X120396627Y-101223871D01*
X120396627Y-101223872D01*
X120396625Y-101223874D01*
X120351904Y-101285426D01*
X120292494Y-101367197D01*
X120212065Y-101525045D01*
X120212064Y-101525048D01*
X120157322Y-101693531D01*
X120129608Y-101868509D01*
X118425608Y-101868509D01*
X118425608Y-101809582D01*
X118387101Y-101517095D01*
X118310747Y-101232136D01*
X118197851Y-100959581D01*
X118171561Y-100914046D01*
X118050346Y-100704094D01*
X117870755Y-100470047D01*
X117870749Y-100470040D01*
X117662155Y-100261446D01*
X117662148Y-100261440D01*
X117428101Y-100081849D01*
X117172618Y-99934346D01*
X117172608Y-99934342D01*
X116900069Y-99821452D01*
X116900062Y-99821450D01*
X116900060Y-99821449D01*
X116615101Y-99745095D01*
X116566221Y-99738659D01*
X116322621Y-99706588D01*
X116322614Y-99706588D01*
X116027602Y-99706588D01*
X116027594Y-99706588D01*
X115749193Y-99743241D01*
X115735115Y-99745095D01*
X115450156Y-99821449D01*
X115450146Y-99821452D01*
X115177607Y-99934342D01*
X115177597Y-99934346D01*
X114922114Y-100081849D01*
X114688067Y-100261440D01*
X114688060Y-100261446D01*
X114479466Y-100470040D01*
X114479460Y-100470047D01*
X114299869Y-100704094D01*
X114152366Y-100959577D01*
X114152362Y-100959587D01*
X114039472Y-101232126D01*
X114039469Y-101232136D01*
X113984229Y-101438298D01*
X113963116Y-101517092D01*
X113963114Y-101517103D01*
X113924608Y-101809574D01*
X112965608Y-101809574D01*
X112965608Y-101145934D01*
X112985293Y-101078895D01*
X113038097Y-101033140D01*
X113042156Y-101031373D01*
X113140984Y-100990437D01*
X113140984Y-100990436D01*
X113140996Y-100990432D01*
X113339720Y-100875699D01*
X113521769Y-100736007D01*
X113521773Y-100736002D01*
X113521778Y-100735999D01*
X113684019Y-100573758D01*
X113684022Y-100573753D01*
X113684027Y-100573749D01*
X113823719Y-100391700D01*
X113938452Y-100192976D01*
X114026266Y-99980975D01*
X114085656Y-99759326D01*
X114115608Y-99531822D01*
X114115608Y-99302354D01*
X114085656Y-99074850D01*
X114026266Y-98853201D01*
X113938452Y-98641200D01*
X113823719Y-98442476D01*
X113823716Y-98442473D01*
X113823715Y-98442470D01*
X113684026Y-98260426D01*
X113684019Y-98260418D01*
X113521778Y-98098177D01*
X113521769Y-98098169D01*
X113339725Y-97958480D01*
X113141006Y-97843749D01*
X113141001Y-97843747D01*
X113140996Y-97843744D01*
X113042153Y-97802801D01*
X112987751Y-97758960D01*
X112965687Y-97692665D01*
X112965608Y-97688241D01*
X112965608Y-96762346D01*
X116964608Y-96762346D01*
X116964608Y-96991829D01*
X116984650Y-97144051D01*
X116994560Y-97219326D01*
X117040553Y-97390977D01*
X117053950Y-97440975D01*
X117141758Y-97652964D01*
X117141765Y-97652978D01*
X117256500Y-97851705D01*
X117396189Y-98033749D01*
X117396197Y-98033758D01*
X117558438Y-98195999D01*
X117558446Y-98196006D01*
X117740490Y-98335695D01*
X117740493Y-98335696D01*
X117740496Y-98335699D01*
X117939220Y-98450432D01*
X117939225Y-98450434D01*
X117939231Y-98450437D01*
X118030588Y-98488278D01*
X118151221Y-98538246D01*
X118372870Y-98597636D01*
X118600374Y-98627588D01*
X118600381Y-98627588D01*
X118829835Y-98627588D01*
X118829842Y-98627588D01*
X119057346Y-98597636D01*
X119278995Y-98538246D01*
X119490996Y-98450432D01*
X119689720Y-98335699D01*
X119871769Y-98196007D01*
X119871773Y-98196002D01*
X119871778Y-98195999D01*
X120034019Y-98033758D01*
X120034022Y-98033753D01*
X120034027Y-98033749D01*
X120173719Y-97851700D01*
X120288452Y-97652976D01*
X120376266Y-97440975D01*
X120435656Y-97219326D01*
X120465608Y-96991822D01*
X120465608Y-96762354D01*
X120435656Y-96534850D01*
X120376266Y-96313201D01*
X120300391Y-96130023D01*
X120288457Y-96101211D01*
X120288454Y-96101205D01*
X120288452Y-96101200D01*
X120173719Y-95902476D01*
X120173716Y-95902473D01*
X120173715Y-95902470D01*
X120070031Y-95767348D01*
X120034027Y-95720427D01*
X120034026Y-95720426D01*
X120034024Y-95720423D01*
X119985592Y-95671991D01*
X126705858Y-95671991D01*
X126705858Y-95829684D01*
X126736619Y-95984327D01*
X126736622Y-95984339D01*
X126796960Y-96130010D01*
X126796967Y-96130023D01*
X126884568Y-96261126D01*
X126884571Y-96261130D01*
X126996065Y-96372624D01*
X126996069Y-96372627D01*
X127127172Y-96460228D01*
X127127185Y-96460235D01*
X127272856Y-96520573D01*
X127272861Y-96520575D01*
X127427511Y-96551337D01*
X127427514Y-96551338D01*
X127427516Y-96551338D01*
X127585202Y-96551338D01*
X127585203Y-96551337D01*
X127739855Y-96520575D01*
X127885537Y-96460232D01*
X128016647Y-96372627D01*
X128128147Y-96261127D01*
X128215752Y-96130017D01*
X128276095Y-95984335D01*
X128295471Y-95886923D01*
X128306996Y-95828988D01*
X128339381Y-95767077D01*
X128340876Y-95765554D01*
X130632401Y-93474029D01*
X130693722Y-93440546D01*
X130763414Y-93445530D01*
X130819347Y-93487402D01*
X130843764Y-93552866D01*
X130839855Y-93593805D01*
X130814607Y-93688031D01*
X130814607Y-93856134D01*
X130814608Y-93856147D01*
X130814608Y-97688241D01*
X130794923Y-97755280D01*
X130742119Y-97801035D01*
X130738071Y-97802797D01*
X130639220Y-97843744D01*
X130639217Y-97843745D01*
X130639209Y-97843749D01*
X130440490Y-97958480D01*
X130258446Y-98098169D01*
X130096189Y-98260426D01*
X129956500Y-98442470D01*
X129841765Y-98641197D01*
X129841758Y-98641211D01*
X129753950Y-98853200D01*
X129694561Y-99074847D01*
X129694559Y-99074858D01*
X129664608Y-99302346D01*
X129664608Y-99531829D01*
X129687617Y-99706588D01*
X129694560Y-99759326D01*
X129741455Y-99934342D01*
X129753950Y-99980975D01*
X129841758Y-100192964D01*
X129841765Y-100192978D01*
X129956500Y-100391705D01*
X130096189Y-100573749D01*
X130096197Y-100573758D01*
X130142346Y-100619907D01*
X130175831Y-100681230D01*
X130170847Y-100750922D01*
X130128975Y-100806855D01*
X130063511Y-100831272D01*
X130058075Y-100831466D01*
X130056531Y-100831587D01*
X129881551Y-100859302D01*
X129713068Y-100914044D01*
X129713065Y-100914045D01*
X129555217Y-100994474D01*
X129473446Y-101053884D01*
X129411894Y-101098605D01*
X129411892Y-101098607D01*
X129411891Y-101098607D01*
X129286627Y-101223871D01*
X129286627Y-101223872D01*
X129286625Y-101223874D01*
X129241904Y-101285426D01*
X129182494Y-101367197D01*
X129102065Y-101525045D01*
X129102064Y-101525048D01*
X129047322Y-101693531D01*
X129019608Y-101868509D01*
X129019608Y-102045666D01*
X129047322Y-102220644D01*
X129102064Y-102389127D01*
X129102065Y-102389130D01*
X129170027Y-102522510D01*
X129182494Y-102546978D01*
X129286625Y-102690302D01*
X129411894Y-102815571D01*
X129555218Y-102919702D01*
X129600509Y-102942779D01*
X129713065Y-103000130D01*
X129713068Y-103000131D01*
X129797309Y-103027502D01*
X129881553Y-103054874D01*
X130056529Y-103082588D01*
X130056530Y-103082588D01*
X130233686Y-103082588D01*
X130233687Y-103082588D01*
X130408663Y-103054874D01*
X130577150Y-103000130D01*
X130634313Y-102971003D01*
X130702981Y-102958107D01*
X130767721Y-102984382D01*
X130807979Y-103041488D01*
X130814608Y-103081488D01*
X130814608Y-116738241D01*
X130794923Y-116805280D01*
X130742119Y-116851035D01*
X130738071Y-116852797D01*
X130639220Y-116893744D01*
X130639217Y-116893745D01*
X130639209Y-116893749D01*
X130440490Y-117008480D01*
X130258446Y-117148169D01*
X130096189Y-117310426D01*
X129956500Y-117492470D01*
X129841765Y-117691197D01*
X129841758Y-117691211D01*
X129753950Y-117903200D01*
X129694561Y-118124847D01*
X129694559Y-118124858D01*
X129664608Y-118352346D01*
X129664608Y-118581829D01*
X129687617Y-118756588D01*
X129694560Y-118809326D01*
X129741455Y-118984342D01*
X129753950Y-119030975D01*
X129841758Y-119242964D01*
X129841765Y-119242978D01*
X129956500Y-119441705D01*
X130096189Y-119623749D01*
X130096197Y-119623758D01*
X130142346Y-119669907D01*
X130175831Y-119731230D01*
X130170847Y-119800922D01*
X130128975Y-119856855D01*
X130063511Y-119881272D01*
X130058075Y-119881466D01*
X130056531Y-119881587D01*
X129881551Y-119909302D01*
X129713068Y-119964044D01*
X129713065Y-119964045D01*
X129555217Y-120044474D01*
X129473446Y-120103884D01*
X129411894Y-120148605D01*
X129411892Y-120148607D01*
X129411891Y-120148607D01*
X129286627Y-120273871D01*
X129286627Y-120273872D01*
X129286625Y-120273874D01*
X129246631Y-120328921D01*
X129182494Y-120417197D01*
X129102065Y-120575045D01*
X129102064Y-120575048D01*
X129047322Y-120743531D01*
X129028331Y-120863435D01*
X128998402Y-120926570D01*
X128939090Y-120963501D01*
X128869228Y-120962503D01*
X128810995Y-120923893D01*
X128782881Y-120859929D01*
X128781858Y-120844037D01*
X128781858Y-104505603D01*
X128801543Y-104438564D01*
X128802756Y-104436712D01*
X128890748Y-104305023D01*
X128890748Y-104305022D01*
X128890752Y-104305017D01*
X128951095Y-104159335D01*
X128981858Y-104004680D01*
X128981858Y-103846996D01*
X128981858Y-103846993D01*
X128981857Y-103846991D01*
X128961042Y-103742348D01*
X128951095Y-103692341D01*
X128951093Y-103692336D01*
X128890755Y-103546665D01*
X128890748Y-103546652D01*
X128803147Y-103415549D01*
X128803144Y-103415545D01*
X128691650Y-103304051D01*
X128691646Y-103304048D01*
X128560543Y-103216447D01*
X128560530Y-103216440D01*
X128414859Y-103156102D01*
X128414847Y-103156099D01*
X128260203Y-103125338D01*
X128260200Y-103125338D01*
X128102516Y-103125338D01*
X128102513Y-103125338D01*
X127947868Y-103156099D01*
X127947856Y-103156102D01*
X127802185Y-103216440D01*
X127802172Y-103216447D01*
X127671069Y-103304048D01*
X127671065Y-103304051D01*
X127559571Y-103415545D01*
X127559568Y-103415549D01*
X127471967Y-103546652D01*
X127471960Y-103546665D01*
X127411622Y-103692336D01*
X127411619Y-103692348D01*
X127380858Y-103846991D01*
X127380858Y-104004684D01*
X127411619Y-104159327D01*
X127411622Y-104159339D01*
X127471960Y-104305010D01*
X127471967Y-104305023D01*
X127559960Y-104436712D01*
X127580838Y-104503389D01*
X127580858Y-104505603D01*
X127580858Y-124842897D01*
X127561173Y-124909936D01*
X127544539Y-124930578D01*
X127534571Y-124940545D01*
X127534568Y-124940549D01*
X127446967Y-125071652D01*
X127446960Y-125071665D01*
X127386622Y-125217336D01*
X127386619Y-125217348D01*
X127355858Y-125371991D01*
X127355858Y-125529684D01*
X127386619Y-125684327D01*
X127386622Y-125684339D01*
X127446960Y-125830010D01*
X127446967Y-125830023D01*
X127534568Y-125961126D01*
X127534571Y-125961130D01*
X127646065Y-126072624D01*
X127646069Y-126072627D01*
X127777172Y-126160228D01*
X127777185Y-126160235D01*
X127865414Y-126196780D01*
X127922861Y-126220575D01*
X128077511Y-126251337D01*
X128077514Y-126251338D01*
X128077516Y-126251338D01*
X128235202Y-126251338D01*
X128235203Y-126251337D01*
X128389855Y-126220575D01*
X128535537Y-126160232D01*
X128666647Y-126072627D01*
X128778147Y-125961127D01*
X128865752Y-125830017D01*
X128926095Y-125684335D01*
X128956858Y-125529680D01*
X128956858Y-125371996D01*
X128956858Y-125371993D01*
X128956857Y-125371991D01*
X128926096Y-125217348D01*
X128926095Y-125217341D01*
X128865752Y-125071659D01*
X128802755Y-124977377D01*
X128781878Y-124910701D01*
X128781858Y-124908488D01*
X128781858Y-121170138D01*
X128801543Y-121103099D01*
X128854347Y-121057344D01*
X128923505Y-121047400D01*
X128987061Y-121076425D01*
X129024835Y-121135203D01*
X129028330Y-121150738D01*
X129031403Y-121170138D01*
X129047322Y-121270644D01*
X129102064Y-121439127D01*
X129102065Y-121439130D01*
X129170027Y-121572510D01*
X129182494Y-121596978D01*
X129286625Y-121740302D01*
X129411894Y-121865571D01*
X129555218Y-121969702D01*
X129623685Y-122004588D01*
X129713065Y-122050130D01*
X129713068Y-122050131D01*
X129797309Y-122077502D01*
X129881553Y-122104874D01*
X130056529Y-122132588D01*
X130056530Y-122132588D01*
X130233686Y-122132588D01*
X130233687Y-122132588D01*
X130408663Y-122104874D01*
X130577150Y-122050130D01*
X130634313Y-122021003D01*
X130702981Y-122008107D01*
X130767721Y-122034382D01*
X130807979Y-122091488D01*
X130814608Y-122131488D01*
X130814608Y-135788241D01*
X130794923Y-135855280D01*
X130742119Y-135901035D01*
X130738071Y-135902797D01*
X130639220Y-135943744D01*
X130639217Y-135943745D01*
X130639209Y-135943749D01*
X130440490Y-136058480D01*
X130258446Y-136198169D01*
X130096189Y-136360426D01*
X129956500Y-136542470D01*
X129841765Y-136741197D01*
X129841758Y-136741211D01*
X129753950Y-136953200D01*
X129694561Y-137174847D01*
X129694559Y-137174858D01*
X129664608Y-137402346D01*
X129664608Y-137631829D01*
X129680783Y-137754680D01*
X129694560Y-137859326D01*
X129741455Y-138034342D01*
X129753950Y-138080975D01*
X129841758Y-138292964D01*
X129841765Y-138292978D01*
X129956500Y-138491705D01*
X130096189Y-138673749D01*
X130096197Y-138673758D01*
X130142346Y-138719907D01*
X130175831Y-138781230D01*
X130170847Y-138850922D01*
X130128975Y-138906855D01*
X130063511Y-138931272D01*
X130058075Y-138931466D01*
X130056531Y-138931587D01*
X129881551Y-138959302D01*
X129713068Y-139014044D01*
X129713065Y-139014045D01*
X129555217Y-139094474D01*
X129473446Y-139153884D01*
X129411894Y-139198605D01*
X129411892Y-139198607D01*
X129411891Y-139198607D01*
X129286627Y-139323871D01*
X129286627Y-139323872D01*
X129286625Y-139323874D01*
X129241904Y-139385426D01*
X129182494Y-139467197D01*
X129102065Y-139625045D01*
X129102064Y-139625048D01*
X129047322Y-139793531D01*
X129019608Y-139968509D01*
X129019608Y-140145666D01*
X129047322Y-140320644D01*
X129102064Y-140489127D01*
X129102065Y-140489130D01*
X129182494Y-140646978D01*
X129286625Y-140790302D01*
X129411894Y-140915571D01*
X129555218Y-141019702D01*
X129623685Y-141054588D01*
X129713065Y-141100130D01*
X129713068Y-141100131D01*
X129797309Y-141127502D01*
X129881553Y-141154874D01*
X130056529Y-141182588D01*
X130056530Y-141182588D01*
X130233686Y-141182588D01*
X130233687Y-141182588D01*
X130408663Y-141154874D01*
X130577150Y-141100130D01*
X130734998Y-141019702D01*
X130878322Y-140915571D01*
X131003591Y-140790302D01*
X131107722Y-140646978D01*
X131188150Y-140489130D01*
X131242894Y-140320643D01*
X131270608Y-140145667D01*
X131270608Y-139968509D01*
X131261273Y-139909574D01*
X132974608Y-139909574D01*
X132974608Y-140204601D01*
X132989886Y-140320643D01*
X133013115Y-140497081D01*
X133089469Y-140782039D01*
X133089472Y-140782049D01*
X133202362Y-141054588D01*
X133202366Y-141054598D01*
X133349869Y-141310081D01*
X133529460Y-141544128D01*
X133529466Y-141544135D01*
X133738060Y-141752729D01*
X133738067Y-141752735D01*
X133972114Y-141932326D01*
X134227597Y-142079829D01*
X134227598Y-142079829D01*
X134227601Y-142079831D01*
X134500156Y-142192727D01*
X134785115Y-142269081D01*
X135077602Y-142307588D01*
X135077609Y-142307588D01*
X135372607Y-142307588D01*
X135372614Y-142307588D01*
X135665101Y-142269081D01*
X135950060Y-142192727D01*
X136222615Y-142079831D01*
X136478102Y-141932326D01*
X136712150Y-141752734D01*
X136920754Y-141544130D01*
X137100346Y-141310082D01*
X137247851Y-141054595D01*
X137360747Y-140782040D01*
X137437101Y-140497081D01*
X137475608Y-140204594D01*
X137475608Y-139968509D01*
X139179608Y-139968509D01*
X139179608Y-140145666D01*
X139207322Y-140320644D01*
X139262064Y-140489127D01*
X139262065Y-140489130D01*
X139342494Y-140646978D01*
X139446625Y-140790302D01*
X139571894Y-140915571D01*
X139715218Y-141019702D01*
X139783685Y-141054588D01*
X139873065Y-141100130D01*
X139873068Y-141100131D01*
X139957309Y-141127502D01*
X140041553Y-141154874D01*
X140216529Y-141182588D01*
X140216530Y-141182588D01*
X140393686Y-141182588D01*
X140393687Y-141182588D01*
X140568663Y-141154874D01*
X140737150Y-141100130D01*
X140894998Y-141019702D01*
X141038322Y-140915571D01*
X141163591Y-140790302D01*
X141267722Y-140646978D01*
X141348150Y-140489130D01*
X141402894Y-140320643D01*
X141430608Y-140145667D01*
X141430608Y-139968509D01*
X141402894Y-139793533D01*
X141348150Y-139625046D01*
X141348150Y-139625045D01*
X141267721Y-139467197D01*
X141256626Y-139451926D01*
X141163591Y-139323874D01*
X141038322Y-139198605D01*
X140894998Y-139094474D01*
X140887061Y-139090430D01*
X140737150Y-139014045D01*
X140737147Y-139014044D01*
X140568664Y-138959302D01*
X140481175Y-138945445D01*
X140393687Y-138931588D01*
X140216529Y-138931588D01*
X140158203Y-138940826D01*
X140041551Y-138959302D01*
X139873068Y-139014044D01*
X139873065Y-139014045D01*
X139715217Y-139094474D01*
X139633446Y-139153884D01*
X139571894Y-139198605D01*
X139571892Y-139198607D01*
X139571891Y-139198607D01*
X139446627Y-139323871D01*
X139446627Y-139323872D01*
X139446625Y-139323874D01*
X139401904Y-139385426D01*
X139342494Y-139467197D01*
X139262065Y-139625045D01*
X139262064Y-139625048D01*
X139207322Y-139793531D01*
X139179608Y-139968509D01*
X137475608Y-139968509D01*
X137475608Y-139909582D01*
X137437101Y-139617095D01*
X137360747Y-139332136D01*
X137247851Y-139059581D01*
X137221561Y-139014046D01*
X137100346Y-138804094D01*
X136920755Y-138570047D01*
X136920749Y-138570040D01*
X136712155Y-138361446D01*
X136712148Y-138361440D01*
X136478101Y-138181849D01*
X136222618Y-138034346D01*
X136222608Y-138034342D01*
X135950069Y-137921452D01*
X135950062Y-137921450D01*
X135950060Y-137921449D01*
X135665101Y-137845095D01*
X135616221Y-137838659D01*
X135372621Y-137806588D01*
X135372614Y-137806588D01*
X135077602Y-137806588D01*
X135077594Y-137806588D01*
X134799193Y-137843241D01*
X134785115Y-137845095D01*
X134500156Y-137921449D01*
X134500146Y-137921452D01*
X134227607Y-138034342D01*
X134227597Y-138034346D01*
X133972114Y-138181849D01*
X133738067Y-138361440D01*
X133738060Y-138361446D01*
X133529466Y-138570040D01*
X133529460Y-138570047D01*
X133349869Y-138804094D01*
X133202366Y-139059577D01*
X133202362Y-139059587D01*
X133089472Y-139332126D01*
X133089469Y-139332136D01*
X133053280Y-139467198D01*
X133013116Y-139617092D01*
X133013114Y-139617103D01*
X132974608Y-139909574D01*
X131261273Y-139909574D01*
X131242894Y-139793533D01*
X131188150Y-139625046D01*
X131188150Y-139625045D01*
X131107721Y-139467197D01*
X131096626Y-139451926D01*
X131073146Y-139386120D01*
X131088971Y-139318066D01*
X131139076Y-139269371D01*
X131207554Y-139255495D01*
X131213085Y-139256096D01*
X131300374Y-139267588D01*
X131300381Y-139267588D01*
X131529835Y-139267588D01*
X131529842Y-139267588D01*
X131757346Y-139237636D01*
X131978995Y-139178246D01*
X132190996Y-139090432D01*
X132389720Y-138975699D01*
X132571769Y-138836007D01*
X132571773Y-138836002D01*
X132571778Y-138835999D01*
X132734019Y-138673758D01*
X132734022Y-138673753D01*
X132734027Y-138673749D01*
X132873719Y-138491700D01*
X132988452Y-138292976D01*
X133076266Y-138080975D01*
X133135656Y-137859326D01*
X133165608Y-137631822D01*
X133165608Y-137402354D01*
X133135656Y-137174850D01*
X133076266Y-136953201D01*
X132988452Y-136741200D01*
X132873719Y-136542476D01*
X132873716Y-136542473D01*
X132873715Y-136542470D01*
X132738504Y-136366262D01*
X132734027Y-136360427D01*
X132734026Y-136360426D01*
X132734019Y-136360418D01*
X132571778Y-136198177D01*
X132571769Y-136198169D01*
X132389725Y-136058480D01*
X132191006Y-135943749D01*
X132191001Y-135943747D01*
X132190996Y-135943744D01*
X132092153Y-135902801D01*
X132037751Y-135858960D01*
X132015687Y-135792665D01*
X132015608Y-135788241D01*
X132015608Y-134862346D01*
X136014608Y-134862346D01*
X136014608Y-135091829D01*
X136039554Y-135281303D01*
X136044560Y-135319326D01*
X136044561Y-135319328D01*
X136103950Y-135540975D01*
X136191758Y-135752964D01*
X136191765Y-135752978D01*
X136306500Y-135951705D01*
X136446189Y-136133749D01*
X136446197Y-136133758D01*
X136608438Y-136295999D01*
X136608446Y-136296006D01*
X136608447Y-136296007D01*
X136618930Y-136304051D01*
X136790490Y-136435695D01*
X136790493Y-136435696D01*
X136790496Y-136435699D01*
X136989220Y-136550432D01*
X136989225Y-136550434D01*
X136989231Y-136550437D01*
X137080588Y-136588278D01*
X137201221Y-136638246D01*
X137422870Y-136697636D01*
X137650374Y-136727588D01*
X137650381Y-136727588D01*
X137879835Y-136727588D01*
X137879842Y-136727588D01*
X138107346Y-136697636D01*
X138328995Y-136638246D01*
X138540996Y-136550432D01*
X138739720Y-136435699D01*
X138921769Y-136296007D01*
X138921773Y-136296002D01*
X138921778Y-136295999D01*
X139084019Y-136133758D01*
X139084022Y-136133753D01*
X139084027Y-136133749D01*
X139223719Y-135951700D01*
X139338452Y-135752976D01*
X139426266Y-135540975D01*
X139485656Y-135319326D01*
X139515608Y-135091822D01*
X139515608Y-134862354D01*
X139485656Y-134634850D01*
X139426266Y-134413201D01*
X139338452Y-134201200D01*
X139223719Y-134002476D01*
X139223716Y-134002473D01*
X139223715Y-134002470D01*
X139084026Y-133820426D01*
X139084019Y-133820418D01*
X138921778Y-133658177D01*
X138921769Y-133658169D01*
X138739725Y-133518480D01*
X138540998Y-133403745D01*
X138540984Y-133403738D01*
X138328995Y-133315930D01*
X138107346Y-133256540D01*
X138069323Y-133251534D01*
X137879849Y-133226588D01*
X137879842Y-133226588D01*
X137650374Y-133226588D01*
X137650366Y-133226588D01*
X137433823Y-133255097D01*
X137422870Y-133256540D01*
X137329184Y-133281642D01*
X137201220Y-133315930D01*
X136989231Y-133403738D01*
X136989217Y-133403745D01*
X136790490Y-133518480D01*
X136608446Y-133658169D01*
X136446189Y-133820426D01*
X136306500Y-134002470D01*
X136191765Y-134201197D01*
X136191758Y-134201211D01*
X136103950Y-134413200D01*
X136044561Y-134634847D01*
X136044559Y-134634858D01*
X136014608Y-134862346D01*
X132015608Y-134862346D01*
X132015608Y-129560191D01*
X142758826Y-129560191D01*
X142758826Y-129717884D01*
X142789587Y-129872527D01*
X142789590Y-129872539D01*
X142849928Y-130018210D01*
X142849935Y-130018223D01*
X142937536Y-130149326D01*
X142937539Y-130149330D01*
X143049033Y-130260824D01*
X143049037Y-130260827D01*
X143180140Y-130348428D01*
X143180153Y-130348435D01*
X143325824Y-130408773D01*
X143325829Y-130408775D01*
X143463331Y-130436126D01*
X143480479Y-130439537D01*
X143480482Y-130439538D01*
X143480484Y-130439538D01*
X143638170Y-130439538D01*
X143638171Y-130439537D01*
X143792823Y-130408775D01*
X143938505Y-130348432D01*
X144069615Y-130260827D01*
X144181115Y-130149327D01*
X144268720Y-130018217D01*
X144329063Y-129872535D01*
X144359826Y-129717880D01*
X144359826Y-129560196D01*
X144359826Y-129560193D01*
X144359825Y-129560191D01*
X144357132Y-129546652D01*
X144329063Y-129405541D01*
X144287024Y-129304048D01*
X144268723Y-129259865D01*
X144268716Y-129259852D01*
X144181115Y-129128749D01*
X144181112Y-129128745D01*
X144069618Y-129017251D01*
X144069614Y-129017248D01*
X143938511Y-128929647D01*
X143938498Y-128929640D01*
X143792827Y-128869302D01*
X143792815Y-128869299D01*
X143638171Y-128838538D01*
X143638168Y-128838538D01*
X143480484Y-128838538D01*
X143480481Y-128838538D01*
X143325836Y-128869299D01*
X143325824Y-128869302D01*
X143180153Y-128929640D01*
X143180140Y-128929647D01*
X143049037Y-129017248D01*
X143049033Y-129017251D01*
X142937539Y-129128745D01*
X142937536Y-129128749D01*
X142849935Y-129259852D01*
X142849928Y-129259865D01*
X142789590Y-129405536D01*
X142789587Y-129405548D01*
X142758826Y-129560191D01*
X132015608Y-129560191D01*
X132015608Y-120859574D01*
X132974608Y-120859574D01*
X132974608Y-121154601D01*
X132976654Y-121170138D01*
X133013115Y-121447081D01*
X133066875Y-121647716D01*
X133089469Y-121732039D01*
X133089472Y-121732049D01*
X133202362Y-122004588D01*
X133202366Y-122004598D01*
X133349869Y-122260081D01*
X133529460Y-122494128D01*
X133529466Y-122494135D01*
X133738060Y-122702729D01*
X133738067Y-122702735D01*
X133972114Y-122882326D01*
X134227597Y-123029829D01*
X134227598Y-123029829D01*
X134227601Y-123029831D01*
X134500156Y-123142727D01*
X134785115Y-123219081D01*
X135077602Y-123257588D01*
X135077609Y-123257588D01*
X135372607Y-123257588D01*
X135372614Y-123257588D01*
X135665101Y-123219081D01*
X135950060Y-123142727D01*
X136222615Y-123029831D01*
X136478102Y-122882326D01*
X136712150Y-122702734D01*
X136920754Y-122494130D01*
X137100346Y-122260082D01*
X137247851Y-122004595D01*
X137360747Y-121732040D01*
X137437101Y-121447081D01*
X137475608Y-121154594D01*
X137475608Y-120918509D01*
X139179608Y-120918509D01*
X139179608Y-121095666D01*
X139207322Y-121270644D01*
X139262064Y-121439127D01*
X139262065Y-121439130D01*
X139330027Y-121572510D01*
X139342494Y-121596978D01*
X139446625Y-121740302D01*
X139571894Y-121865571D01*
X139715218Y-121969702D01*
X139783685Y-122004588D01*
X139873065Y-122050130D01*
X139873068Y-122050131D01*
X139957309Y-122077502D01*
X140041553Y-122104874D01*
X140216529Y-122132588D01*
X140216530Y-122132588D01*
X140393686Y-122132588D01*
X140393687Y-122132588D01*
X140568663Y-122104874D01*
X140737150Y-122050130D01*
X140894998Y-121969702D01*
X141038322Y-121865571D01*
X141163591Y-121740302D01*
X141267722Y-121596978D01*
X141348150Y-121439130D01*
X141402894Y-121270643D01*
X141430608Y-121095667D01*
X141430608Y-120918509D01*
X141402894Y-120743533D01*
X141348150Y-120575046D01*
X141348150Y-120575045D01*
X141280214Y-120441715D01*
X141267722Y-120417198D01*
X141163591Y-120273874D01*
X141038322Y-120148605D01*
X140894998Y-120044474D01*
X140887061Y-120040430D01*
X140737150Y-119964045D01*
X140737147Y-119964044D01*
X140568664Y-119909302D01*
X140481175Y-119895445D01*
X140393687Y-119881588D01*
X140216529Y-119881588D01*
X140158203Y-119890826D01*
X140041551Y-119909302D01*
X139873068Y-119964044D01*
X139873065Y-119964045D01*
X139715217Y-120044474D01*
X139633446Y-120103884D01*
X139571894Y-120148605D01*
X139571892Y-120148607D01*
X139571891Y-120148607D01*
X139446627Y-120273871D01*
X139446627Y-120273872D01*
X139446625Y-120273874D01*
X139406631Y-120328921D01*
X139342494Y-120417197D01*
X139262065Y-120575045D01*
X139262064Y-120575048D01*
X139207322Y-120743531D01*
X139179608Y-120918509D01*
X137475608Y-120918509D01*
X137475608Y-120859582D01*
X137437101Y-120567095D01*
X137360747Y-120282136D01*
X137247851Y-120009581D01*
X137221561Y-119964046D01*
X137100346Y-119754094D01*
X136920755Y-119520047D01*
X136920749Y-119520040D01*
X136712155Y-119311446D01*
X136712148Y-119311440D01*
X136478101Y-119131849D01*
X136222618Y-118984346D01*
X136222608Y-118984342D01*
X135950069Y-118871452D01*
X135950062Y-118871450D01*
X135950060Y-118871449D01*
X135665101Y-118795095D01*
X135616221Y-118788659D01*
X135372621Y-118756588D01*
X135372614Y-118756588D01*
X135077602Y-118756588D01*
X135077594Y-118756588D01*
X134799193Y-118793241D01*
X134785115Y-118795095D01*
X134500156Y-118871449D01*
X134500146Y-118871452D01*
X134227607Y-118984342D01*
X134227597Y-118984346D01*
X133972114Y-119131849D01*
X133738067Y-119311440D01*
X133738060Y-119311446D01*
X133529466Y-119520040D01*
X133529460Y-119520047D01*
X133349869Y-119754094D01*
X133202366Y-120009577D01*
X133202362Y-120009587D01*
X133089472Y-120282126D01*
X133089469Y-120282136D01*
X133034229Y-120488298D01*
X133013116Y-120567092D01*
X133013114Y-120567103D01*
X132974608Y-120859574D01*
X132015608Y-120859574D01*
X132015608Y-120195934D01*
X132035293Y-120128895D01*
X132088097Y-120083140D01*
X132092156Y-120081373D01*
X132190984Y-120040437D01*
X132190984Y-120040436D01*
X132190996Y-120040432D01*
X132389720Y-119925699D01*
X132571769Y-119786007D01*
X132571773Y-119786002D01*
X132571778Y-119785999D01*
X132734019Y-119623758D01*
X132734022Y-119623753D01*
X132734027Y-119623749D01*
X132873719Y-119441700D01*
X132988452Y-119242976D01*
X133076266Y-119030975D01*
X133135656Y-118809326D01*
X133165608Y-118581822D01*
X133165608Y-118352354D01*
X133135656Y-118124850D01*
X133076266Y-117903201D01*
X132988452Y-117691200D01*
X132873719Y-117492476D01*
X132873716Y-117492473D01*
X132873715Y-117492470D01*
X132734026Y-117310426D01*
X132734019Y-117310418D01*
X132571778Y-117148177D01*
X132571769Y-117148169D01*
X132389725Y-117008480D01*
X132191006Y-116893749D01*
X132191001Y-116893747D01*
X132190996Y-116893744D01*
X132092153Y-116852801D01*
X132037751Y-116808960D01*
X132015687Y-116742665D01*
X132015608Y-116738241D01*
X132015608Y-115812346D01*
X136014608Y-115812346D01*
X136014608Y-116041829D01*
X136039554Y-116231303D01*
X136044560Y-116269326D01*
X136044561Y-116269328D01*
X136103950Y-116490975D01*
X136191758Y-116702964D01*
X136191765Y-116702978D01*
X136306500Y-116901705D01*
X136446189Y-117083749D01*
X136446197Y-117083758D01*
X136608438Y-117245999D01*
X136608446Y-117246006D01*
X136790490Y-117385695D01*
X136790493Y-117385696D01*
X136790496Y-117385699D01*
X136989220Y-117500432D01*
X136989225Y-117500434D01*
X136989231Y-117500437D01*
X137080588Y-117538278D01*
X137201221Y-117588246D01*
X137422870Y-117647636D01*
X137650374Y-117677588D01*
X137650381Y-117677588D01*
X137879835Y-117677588D01*
X137879842Y-117677588D01*
X138107346Y-117647636D01*
X138328995Y-117588246D01*
X138540996Y-117500432D01*
X138739720Y-117385699D01*
X138921769Y-117246007D01*
X138921773Y-117246002D01*
X138921778Y-117245999D01*
X139084019Y-117083758D01*
X139084022Y-117083753D01*
X139084027Y-117083749D01*
X139223719Y-116901700D01*
X139338452Y-116702976D01*
X139426266Y-116490975D01*
X139485656Y-116269326D01*
X139515608Y-116041822D01*
X139515608Y-115812354D01*
X139485656Y-115584850D01*
X139426266Y-115363201D01*
X139338452Y-115151200D01*
X139223719Y-114952476D01*
X139223716Y-114952473D01*
X139223715Y-114952470D01*
X139084026Y-114770426D01*
X139084019Y-114770418D01*
X138921778Y-114608177D01*
X138921769Y-114608169D01*
X138739725Y-114468480D01*
X138540998Y-114353745D01*
X138540984Y-114353738D01*
X138328995Y-114265930D01*
X138107346Y-114206540D01*
X138069323Y-114201534D01*
X137879849Y-114176588D01*
X137879842Y-114176588D01*
X137650374Y-114176588D01*
X137650366Y-114176588D01*
X137433823Y-114205097D01*
X137422870Y-114206540D01*
X137329184Y-114231642D01*
X137201220Y-114265930D01*
X136989231Y-114353738D01*
X136989217Y-114353745D01*
X136790490Y-114468480D01*
X136608446Y-114608169D01*
X136446189Y-114770426D01*
X136306500Y-114952470D01*
X136191765Y-115151197D01*
X136191758Y-115151211D01*
X136103950Y-115363200D01*
X136044561Y-115584847D01*
X136044559Y-115584858D01*
X136014608Y-115812346D01*
X132015608Y-115812346D01*
X132015608Y-101809574D01*
X132974608Y-101809574D01*
X132974608Y-102104601D01*
X132989886Y-102220643D01*
X133013115Y-102397081D01*
X133066875Y-102597716D01*
X133089469Y-102682039D01*
X133089472Y-102682049D01*
X133202362Y-102954588D01*
X133202366Y-102954598D01*
X133349869Y-103210081D01*
X133529460Y-103444128D01*
X133529466Y-103444135D01*
X133738060Y-103652729D01*
X133738067Y-103652735D01*
X133972114Y-103832326D01*
X134227597Y-103979829D01*
X134227598Y-103979829D01*
X134227601Y-103979831D01*
X134500156Y-104092727D01*
X134785115Y-104169081D01*
X135077602Y-104207588D01*
X135077609Y-104207588D01*
X135372607Y-104207588D01*
X135372614Y-104207588D01*
X135665101Y-104169081D01*
X135950060Y-104092727D01*
X136222615Y-103979831D01*
X136478102Y-103832326D01*
X136712150Y-103652734D01*
X136920754Y-103444130D01*
X137100346Y-103210082D01*
X137247851Y-102954595D01*
X137360747Y-102682040D01*
X137437101Y-102397081D01*
X137475608Y-102104594D01*
X137475608Y-101868509D01*
X139179608Y-101868509D01*
X139179608Y-102045666D01*
X139207322Y-102220644D01*
X139262064Y-102389127D01*
X139262065Y-102389130D01*
X139330027Y-102522510D01*
X139342494Y-102546978D01*
X139446625Y-102690302D01*
X139571894Y-102815571D01*
X139715218Y-102919702D01*
X139760509Y-102942779D01*
X139873065Y-103000130D01*
X139873068Y-103000131D01*
X139957309Y-103027502D01*
X140041553Y-103054874D01*
X140216529Y-103082588D01*
X140216530Y-103082588D01*
X140393686Y-103082588D01*
X140393687Y-103082588D01*
X140568663Y-103054874D01*
X140737150Y-103000130D01*
X140894998Y-102919702D01*
X141038322Y-102815571D01*
X141163591Y-102690302D01*
X141267722Y-102546978D01*
X141348150Y-102389130D01*
X141402894Y-102220643D01*
X141430608Y-102045667D01*
X141430608Y-101868509D01*
X141402894Y-101693533D01*
X141348150Y-101525046D01*
X141348150Y-101525045D01*
X141303949Y-101438298D01*
X141267722Y-101367198D01*
X141163591Y-101223874D01*
X141038322Y-101098605D01*
X140894998Y-100994474D01*
X140887061Y-100990430D01*
X140737150Y-100914045D01*
X140737147Y-100914044D01*
X140568664Y-100859302D01*
X140481175Y-100845445D01*
X140393687Y-100831588D01*
X140216529Y-100831588D01*
X140158203Y-100840826D01*
X140041551Y-100859302D01*
X139873068Y-100914044D01*
X139873065Y-100914045D01*
X139715217Y-100994474D01*
X139633446Y-101053884D01*
X139571894Y-101098605D01*
X139571892Y-101098607D01*
X139571891Y-101098607D01*
X139446627Y-101223871D01*
X139446627Y-101223872D01*
X139446625Y-101223874D01*
X139401904Y-101285426D01*
X139342494Y-101367197D01*
X139262065Y-101525045D01*
X139262064Y-101525048D01*
X139207322Y-101693531D01*
X139179608Y-101868509D01*
X137475608Y-101868509D01*
X137475608Y-101809582D01*
X137437101Y-101517095D01*
X137360747Y-101232136D01*
X137247851Y-100959581D01*
X137221561Y-100914046D01*
X137100346Y-100704094D01*
X136920755Y-100470047D01*
X136920749Y-100470040D01*
X136712155Y-100261446D01*
X136712148Y-100261440D01*
X136478101Y-100081849D01*
X136222618Y-99934346D01*
X136222608Y-99934342D01*
X135950069Y-99821452D01*
X135950062Y-99821450D01*
X135950060Y-99821449D01*
X135665101Y-99745095D01*
X135616221Y-99738659D01*
X135372621Y-99706588D01*
X135372614Y-99706588D01*
X135077602Y-99706588D01*
X135077594Y-99706588D01*
X134799193Y-99743241D01*
X134785115Y-99745095D01*
X134500156Y-99821449D01*
X134500146Y-99821452D01*
X134227607Y-99934342D01*
X134227597Y-99934346D01*
X133972114Y-100081849D01*
X133738067Y-100261440D01*
X133738060Y-100261446D01*
X133529466Y-100470040D01*
X133529460Y-100470047D01*
X133349869Y-100704094D01*
X133202366Y-100959577D01*
X133202362Y-100959587D01*
X133089472Y-101232126D01*
X133089469Y-101232136D01*
X133034229Y-101438298D01*
X133013116Y-101517092D01*
X133013114Y-101517103D01*
X132974608Y-101809574D01*
X132015608Y-101809574D01*
X132015608Y-101145934D01*
X132035293Y-101078895D01*
X132088097Y-101033140D01*
X132092156Y-101031373D01*
X132190984Y-100990437D01*
X132190984Y-100990436D01*
X132190996Y-100990432D01*
X132389720Y-100875699D01*
X132571769Y-100736007D01*
X132571773Y-100736002D01*
X132571778Y-100735999D01*
X132734019Y-100573758D01*
X132734022Y-100573753D01*
X132734027Y-100573749D01*
X132873719Y-100391700D01*
X132988452Y-100192976D01*
X133076266Y-99980975D01*
X133135656Y-99759326D01*
X133165608Y-99531822D01*
X133165608Y-99302354D01*
X133135656Y-99074850D01*
X133076266Y-98853201D01*
X132988452Y-98641200D01*
X132873719Y-98442476D01*
X132873716Y-98442473D01*
X132873715Y-98442470D01*
X132734026Y-98260426D01*
X132734019Y-98260418D01*
X132571778Y-98098177D01*
X132571769Y-98098169D01*
X132389725Y-97958480D01*
X132191006Y-97843749D01*
X132191001Y-97843747D01*
X132190996Y-97843744D01*
X132092153Y-97802801D01*
X132037751Y-97758960D01*
X132015687Y-97692665D01*
X132015608Y-97688241D01*
X132015608Y-94067185D01*
X132035293Y-94000146D01*
X132051927Y-93979504D01*
X132684440Y-93346991D01*
X133346022Y-92685409D01*
X133407343Y-92651926D01*
X133409510Y-92651475D01*
X133410199Y-92651338D01*
X133410200Y-92651338D01*
X133564855Y-92620575D01*
X133651932Y-92584507D01*
X133709406Y-92560701D01*
X133778875Y-92553232D01*
X133841354Y-92584507D01*
X133877006Y-92644597D01*
X133880858Y-92675262D01*
X133880858Y-92839168D01*
X133880857Y-92839186D01*
X133880857Y-93004892D01*
X133880856Y-93004892D01*
X133921781Y-93157624D01*
X133936988Y-93183961D01*
X133936989Y-93183966D01*
X133936991Y-93183966D01*
X133978012Y-93255017D01*
X134000837Y-93294552D01*
X134000839Y-93294555D01*
X134119707Y-93413423D01*
X134119713Y-93413428D01*
X135571497Y-94865212D01*
X135571507Y-94865223D01*
X135575837Y-94869553D01*
X135575838Y-94869554D01*
X135687642Y-94981358D01*
X135687644Y-94981359D01*
X135687648Y-94981362D01*
X135791708Y-95041440D01*
X135824574Y-95060415D01*
X135936377Y-95090372D01*
X135977300Y-95101338D01*
X135977301Y-95101338D01*
X136877024Y-95101338D01*
X136944063Y-95121023D01*
X136989818Y-95173827D01*
X136999762Y-95242985D01*
X136970737Y-95306541D01*
X136939025Y-95332723D01*
X136891063Y-95360415D01*
X136790490Y-95418480D01*
X136608446Y-95558169D01*
X136446189Y-95720426D01*
X136306500Y-95902470D01*
X136191765Y-96101197D01*
X136191758Y-96101211D01*
X136103950Y-96313200D01*
X136103950Y-96313201D01*
X136048386Y-96520573D01*
X136044561Y-96534847D01*
X136044559Y-96534858D01*
X136014608Y-96762346D01*
X136014608Y-96991829D01*
X136034650Y-97144051D01*
X136044560Y-97219326D01*
X136090553Y-97390977D01*
X136103950Y-97440975D01*
X136191758Y-97652964D01*
X136191765Y-97652978D01*
X136306500Y-97851705D01*
X136446189Y-98033749D01*
X136446197Y-98033758D01*
X136608438Y-98195999D01*
X136608446Y-98196006D01*
X136790490Y-98335695D01*
X136790493Y-98335696D01*
X136790496Y-98335699D01*
X136989220Y-98450432D01*
X136989225Y-98450434D01*
X136989231Y-98450437D01*
X137080588Y-98488278D01*
X137201221Y-98538246D01*
X137422870Y-98597636D01*
X137650374Y-98627588D01*
X137650381Y-98627588D01*
X137879835Y-98627588D01*
X137879842Y-98627588D01*
X138107346Y-98597636D01*
X138328995Y-98538246D01*
X138540996Y-98450432D01*
X138739720Y-98335699D01*
X138921769Y-98196007D01*
X138921773Y-98196002D01*
X138921778Y-98195999D01*
X139084019Y-98033758D01*
X139084022Y-98033753D01*
X139084027Y-98033749D01*
X139223719Y-97851700D01*
X139338452Y-97652976D01*
X139426266Y-97440975D01*
X139485656Y-97219326D01*
X139515608Y-96991822D01*
X139515608Y-96762354D01*
X139485656Y-96534850D01*
X139426266Y-96313201D01*
X139350391Y-96130023D01*
X139338457Y-96101211D01*
X139338454Y-96101205D01*
X139338452Y-96101200D01*
X139223719Y-95902476D01*
X139223716Y-95902473D01*
X139223715Y-95902470D01*
X139100113Y-95741391D01*
X139084027Y-95720427D01*
X139084023Y-95720423D01*
X139084019Y-95720418D01*
X138921778Y-95558177D01*
X138921769Y-95558169D01*
X138739725Y-95418480D01*
X138731068Y-95413482D01*
X138591191Y-95332724D01*
X138542976Y-95282158D01*
X138529753Y-95213551D01*
X138555721Y-95148686D01*
X138612636Y-95108158D01*
X138653192Y-95101338D01*
X145248761Y-95101338D01*
X145315800Y-95121023D01*
X145336442Y-95137657D01*
X148818011Y-98619226D01*
X148851496Y-98680549D01*
X148846512Y-98750241D01*
X148844891Y-98754360D01*
X148803953Y-98853191D01*
X148803950Y-98853201D01*
X148744561Y-99074847D01*
X148744559Y-99074858D01*
X148714608Y-99302346D01*
X148714608Y-99531829D01*
X148737617Y-99706588D01*
X148744560Y-99759326D01*
X148791455Y-99934342D01*
X148803950Y-99980975D01*
X148891758Y-100192964D01*
X148891765Y-100192978D01*
X149006500Y-100391705D01*
X149146189Y-100573749D01*
X149146197Y-100573758D01*
X149192346Y-100619907D01*
X149225831Y-100681230D01*
X149220847Y-100750922D01*
X149178975Y-100806855D01*
X149113511Y-100831272D01*
X149108075Y-100831466D01*
X149106531Y-100831587D01*
X148931551Y-100859302D01*
X148763068Y-100914044D01*
X148763065Y-100914045D01*
X148605217Y-100994474D01*
X148523446Y-101053884D01*
X148461894Y-101098605D01*
X148461892Y-101098607D01*
X148461891Y-101098607D01*
X148336627Y-101223871D01*
X148336627Y-101223872D01*
X148336625Y-101223874D01*
X148291904Y-101285426D01*
X148232494Y-101367197D01*
X148152065Y-101525045D01*
X148152064Y-101525048D01*
X148097322Y-101693531D01*
X148069608Y-101868509D01*
X148069608Y-102045666D01*
X148097322Y-102220644D01*
X148152064Y-102389127D01*
X148152065Y-102389130D01*
X148220027Y-102522510D01*
X148232494Y-102546978D01*
X148336625Y-102690302D01*
X148461894Y-102815571D01*
X148605218Y-102919702D01*
X148650509Y-102942779D01*
X148763065Y-103000130D01*
X148763068Y-103000131D01*
X148847309Y-103027502D01*
X148931553Y-103054874D01*
X149106529Y-103082588D01*
X149106530Y-103082588D01*
X149283686Y-103082588D01*
X149283687Y-103082588D01*
X149458663Y-103054874D01*
X149627150Y-103000130D01*
X149684313Y-102971003D01*
X149752981Y-102958107D01*
X149817721Y-102984382D01*
X149857979Y-103041488D01*
X149864608Y-103081488D01*
X149864608Y-116738241D01*
X149844923Y-116805280D01*
X149792119Y-116851035D01*
X149788071Y-116852797D01*
X149689220Y-116893744D01*
X149689217Y-116893745D01*
X149689209Y-116893749D01*
X149490490Y-117008480D01*
X149308446Y-117148169D01*
X149146189Y-117310426D01*
X149006500Y-117492470D01*
X148891765Y-117691197D01*
X148891758Y-117691211D01*
X148803950Y-117903200D01*
X148744561Y-118124847D01*
X148744559Y-118124858D01*
X148714608Y-118352346D01*
X148714608Y-118581829D01*
X148737617Y-118756588D01*
X148744560Y-118809326D01*
X148791455Y-118984342D01*
X148803950Y-119030975D01*
X148891758Y-119242964D01*
X148891765Y-119242978D01*
X149006500Y-119441705D01*
X149146189Y-119623749D01*
X149146197Y-119623758D01*
X149192346Y-119669907D01*
X149225831Y-119731230D01*
X149220847Y-119800922D01*
X149178975Y-119856855D01*
X149113511Y-119881272D01*
X149108075Y-119881466D01*
X149106531Y-119881587D01*
X148931551Y-119909302D01*
X148763068Y-119964044D01*
X148763065Y-119964045D01*
X148605217Y-120044474D01*
X148523446Y-120103884D01*
X148461894Y-120148605D01*
X148461892Y-120148607D01*
X148461891Y-120148607D01*
X148336627Y-120273871D01*
X148336627Y-120273872D01*
X148336625Y-120273874D01*
X148296631Y-120328921D01*
X148232494Y-120417197D01*
X148152065Y-120575045D01*
X148152064Y-120575048D01*
X148097322Y-120743531D01*
X148069608Y-120918509D01*
X148069608Y-121095666D01*
X148097322Y-121270644D01*
X148152064Y-121439127D01*
X148152065Y-121439130D01*
X148220027Y-121572510D01*
X148232494Y-121596978D01*
X148336625Y-121740302D01*
X148461894Y-121865571D01*
X148605218Y-121969702D01*
X148673685Y-122004588D01*
X148763065Y-122050130D01*
X148763068Y-122050131D01*
X148847309Y-122077502D01*
X148931553Y-122104874D01*
X149106529Y-122132588D01*
X149106530Y-122132588D01*
X149283686Y-122132588D01*
X149283687Y-122132588D01*
X149458663Y-122104874D01*
X149627150Y-122050130D01*
X149684313Y-122021003D01*
X149752981Y-122008107D01*
X149817721Y-122034382D01*
X149857979Y-122091488D01*
X149864608Y-122131488D01*
X149864608Y-135788241D01*
X149844923Y-135855280D01*
X149792119Y-135901035D01*
X149788071Y-135902797D01*
X149689220Y-135943744D01*
X149689217Y-135943745D01*
X149689209Y-135943749D01*
X149490490Y-136058480D01*
X149308446Y-136198169D01*
X149146189Y-136360426D01*
X149006500Y-136542470D01*
X148891765Y-136741197D01*
X148891758Y-136741211D01*
X148803950Y-136953200D01*
X148744561Y-137174847D01*
X148744559Y-137174858D01*
X148714608Y-137402346D01*
X148714608Y-137631829D01*
X148730783Y-137754680D01*
X148744560Y-137859326D01*
X148791455Y-138034342D01*
X148803950Y-138080975D01*
X148891758Y-138292964D01*
X148891765Y-138292978D01*
X149006500Y-138491705D01*
X149146189Y-138673749D01*
X149146197Y-138673758D01*
X149192346Y-138719907D01*
X149225831Y-138781230D01*
X149220847Y-138850922D01*
X149178975Y-138906855D01*
X149113511Y-138931272D01*
X149108075Y-138931466D01*
X149106531Y-138931587D01*
X148931551Y-138959302D01*
X148763068Y-139014044D01*
X148763065Y-139014045D01*
X148605217Y-139094474D01*
X148523446Y-139153884D01*
X148461894Y-139198605D01*
X148461892Y-139198607D01*
X148461891Y-139198607D01*
X148336627Y-139323871D01*
X148336627Y-139323872D01*
X148336625Y-139323874D01*
X148291904Y-139385426D01*
X148232494Y-139467197D01*
X148152065Y-139625045D01*
X148152064Y-139625048D01*
X148097322Y-139793531D01*
X148069608Y-139968509D01*
X148069608Y-140145666D01*
X148097322Y-140320644D01*
X148152064Y-140489127D01*
X148152065Y-140489130D01*
X148232494Y-140646978D01*
X148336625Y-140790302D01*
X148461894Y-140915571D01*
X148605218Y-141019702D01*
X148673685Y-141054588D01*
X148763065Y-141100130D01*
X148763068Y-141100131D01*
X148847309Y-141127502D01*
X148931553Y-141154874D01*
X149106529Y-141182588D01*
X149106530Y-141182588D01*
X149283686Y-141182588D01*
X149283687Y-141182588D01*
X149458663Y-141154874D01*
X149627150Y-141100130D01*
X149784998Y-141019702D01*
X149928322Y-140915571D01*
X150053591Y-140790302D01*
X150157722Y-140646978D01*
X150238150Y-140489130D01*
X150292894Y-140320643D01*
X150320608Y-140145667D01*
X150320608Y-139968509D01*
X150311273Y-139909574D01*
X152024608Y-139909574D01*
X152024608Y-140204601D01*
X152039886Y-140320643D01*
X152063115Y-140497081D01*
X152139469Y-140782039D01*
X152139472Y-140782049D01*
X152252362Y-141054588D01*
X152252366Y-141054598D01*
X152399869Y-141310081D01*
X152579460Y-141544128D01*
X152579466Y-141544135D01*
X152788060Y-141752729D01*
X152788067Y-141752735D01*
X153022114Y-141932326D01*
X153277597Y-142079829D01*
X153277598Y-142079829D01*
X153277601Y-142079831D01*
X153550156Y-142192727D01*
X153835115Y-142269081D01*
X154127602Y-142307588D01*
X154127609Y-142307588D01*
X154422607Y-142307588D01*
X154422614Y-142307588D01*
X154715101Y-142269081D01*
X155000060Y-142192727D01*
X155272615Y-142079831D01*
X155528102Y-141932326D01*
X155762150Y-141752734D01*
X155970754Y-141544130D01*
X156150346Y-141310082D01*
X156297851Y-141054595D01*
X156410747Y-140782040D01*
X156487101Y-140497081D01*
X156525608Y-140204594D01*
X156525608Y-139968509D01*
X158229608Y-139968509D01*
X158229608Y-140145666D01*
X158257322Y-140320644D01*
X158312064Y-140489127D01*
X158312065Y-140489130D01*
X158392494Y-140646978D01*
X158496625Y-140790302D01*
X158621894Y-140915571D01*
X158765218Y-141019702D01*
X158833685Y-141054588D01*
X158923065Y-141100130D01*
X158923068Y-141100131D01*
X159007309Y-141127502D01*
X159091553Y-141154874D01*
X159266529Y-141182588D01*
X159266530Y-141182588D01*
X159443686Y-141182588D01*
X159443687Y-141182588D01*
X159618663Y-141154874D01*
X159787150Y-141100130D01*
X159944998Y-141019702D01*
X160088322Y-140915571D01*
X160213591Y-140790302D01*
X160317722Y-140646978D01*
X160398150Y-140489130D01*
X160452894Y-140320643D01*
X160480608Y-140145667D01*
X160480608Y-139968509D01*
X160452894Y-139793533D01*
X160398150Y-139625046D01*
X160398150Y-139625045D01*
X160317721Y-139467197D01*
X160306626Y-139451926D01*
X160213591Y-139323874D01*
X160088322Y-139198605D01*
X159944998Y-139094474D01*
X159937061Y-139090430D01*
X159787150Y-139014045D01*
X159787147Y-139014044D01*
X159618664Y-138959302D01*
X159531175Y-138945445D01*
X159443687Y-138931588D01*
X159266529Y-138931588D01*
X159208203Y-138940826D01*
X159091551Y-138959302D01*
X158923068Y-139014044D01*
X158923065Y-139014045D01*
X158765217Y-139094474D01*
X158683446Y-139153884D01*
X158621894Y-139198605D01*
X158621892Y-139198607D01*
X158621891Y-139198607D01*
X158496627Y-139323871D01*
X158496627Y-139323872D01*
X158496625Y-139323874D01*
X158451904Y-139385426D01*
X158392494Y-139467197D01*
X158312065Y-139625045D01*
X158312064Y-139625048D01*
X158257322Y-139793531D01*
X158229608Y-139968509D01*
X156525608Y-139968509D01*
X156525608Y-139909582D01*
X156487101Y-139617095D01*
X156410747Y-139332136D01*
X156297851Y-139059581D01*
X156271561Y-139014046D01*
X156150346Y-138804094D01*
X155970755Y-138570047D01*
X155970749Y-138570040D01*
X155762155Y-138361446D01*
X155762148Y-138361440D01*
X155528101Y-138181849D01*
X155272618Y-138034346D01*
X155272608Y-138034342D01*
X155000069Y-137921452D01*
X155000062Y-137921450D01*
X155000060Y-137921449D01*
X154715101Y-137845095D01*
X154666221Y-137838659D01*
X154422621Y-137806588D01*
X154422614Y-137806588D01*
X154127602Y-137806588D01*
X154127594Y-137806588D01*
X153849193Y-137843241D01*
X153835115Y-137845095D01*
X153550156Y-137921449D01*
X153550146Y-137921452D01*
X153277607Y-138034342D01*
X153277597Y-138034346D01*
X153022114Y-138181849D01*
X152788067Y-138361440D01*
X152788060Y-138361446D01*
X152579466Y-138570040D01*
X152579460Y-138570047D01*
X152399869Y-138804094D01*
X152252366Y-139059577D01*
X152252362Y-139059587D01*
X152139472Y-139332126D01*
X152139469Y-139332136D01*
X152103280Y-139467198D01*
X152063116Y-139617092D01*
X152063114Y-139617103D01*
X152024608Y-139909574D01*
X150311273Y-139909574D01*
X150292894Y-139793533D01*
X150238150Y-139625046D01*
X150238150Y-139625045D01*
X150157721Y-139467197D01*
X150146626Y-139451926D01*
X150123146Y-139386120D01*
X150138971Y-139318066D01*
X150189076Y-139269371D01*
X150257554Y-139255495D01*
X150263085Y-139256096D01*
X150350374Y-139267588D01*
X150350381Y-139267588D01*
X150579835Y-139267588D01*
X150579842Y-139267588D01*
X150807346Y-139237636D01*
X151028995Y-139178246D01*
X151240996Y-139090432D01*
X151439720Y-138975699D01*
X151621769Y-138836007D01*
X151621773Y-138836002D01*
X151621778Y-138835999D01*
X151784019Y-138673758D01*
X151784022Y-138673753D01*
X151784027Y-138673749D01*
X151923719Y-138491700D01*
X152038452Y-138292976D01*
X152126266Y-138080975D01*
X152185656Y-137859326D01*
X152215608Y-137631822D01*
X152215608Y-137596991D01*
X157030858Y-137596991D01*
X157030858Y-137754684D01*
X157061619Y-137909327D01*
X157061622Y-137909339D01*
X157121960Y-138055010D01*
X157121967Y-138055023D01*
X157209568Y-138186126D01*
X157209571Y-138186130D01*
X157321065Y-138297624D01*
X157321069Y-138297627D01*
X157452172Y-138385228D01*
X157452185Y-138385235D01*
X157597856Y-138445573D01*
X157597861Y-138445575D01*
X157752511Y-138476337D01*
X157752514Y-138476338D01*
X157752516Y-138476338D01*
X157910202Y-138476338D01*
X157910203Y-138476337D01*
X158064855Y-138445575D01*
X158210537Y-138385232D01*
X158341647Y-138297627D01*
X158453147Y-138186127D01*
X158540752Y-138055017D01*
X158601095Y-137909335D01*
X158621533Y-137806588D01*
X158631996Y-137753988D01*
X158664381Y-137692077D01*
X158665825Y-137690605D01*
X158793776Y-137562654D01*
X158855097Y-137529172D01*
X158881455Y-137526338D01*
X161951592Y-137526338D01*
X162018631Y-137546023D01*
X162020483Y-137547236D01*
X162152172Y-137635228D01*
X162152185Y-137635235D01*
X162289416Y-137692077D01*
X162297861Y-137695575D01*
X162443643Y-137724573D01*
X162452511Y-137726337D01*
X162452514Y-137726338D01*
X162452516Y-137726338D01*
X162610202Y-137726338D01*
X162610203Y-137726337D01*
X162764855Y-137695575D01*
X162910537Y-137635232D01*
X163041647Y-137547627D01*
X163153147Y-137436127D01*
X163240752Y-137305017D01*
X163244212Y-137296665D01*
X163294665Y-137174858D01*
X163301095Y-137159335D01*
X163331858Y-137004680D01*
X163331858Y-136846996D01*
X163331858Y-136846993D01*
X163331857Y-136846991D01*
X163310816Y-136741211D01*
X163301095Y-136692341D01*
X163301093Y-136692336D01*
X163240755Y-136546665D01*
X163240748Y-136546652D01*
X163153147Y-136415549D01*
X163153144Y-136415545D01*
X163041650Y-136304051D01*
X163041646Y-136304048D01*
X162910543Y-136216447D01*
X162910530Y-136216440D01*
X162764859Y-136156102D01*
X162764847Y-136156099D01*
X162610203Y-136125338D01*
X162610200Y-136125338D01*
X162452516Y-136125338D01*
X162452513Y-136125338D01*
X162297868Y-136156099D01*
X162297856Y-136156102D01*
X162152185Y-136216440D01*
X162152172Y-136216447D01*
X162020483Y-136304440D01*
X161953805Y-136325318D01*
X161951592Y-136325338D01*
X158660415Y-136325338D01*
X158502301Y-136325338D01*
X158349573Y-136366261D01*
X158349572Y-136366261D01*
X158349570Y-136366262D01*
X158349567Y-136366263D01*
X158299454Y-136395197D01*
X158299453Y-136395198D01*
X158264211Y-136415545D01*
X158212643Y-136445317D01*
X158212640Y-136445319D01*
X157816697Y-136841263D01*
X157755374Y-136874748D01*
X157753208Y-136875199D01*
X157597866Y-136906099D01*
X157597856Y-136906102D01*
X157452185Y-136966440D01*
X157452172Y-136966447D01*
X157321069Y-137054048D01*
X157321065Y-137054051D01*
X157209571Y-137165545D01*
X157209568Y-137165549D01*
X157121967Y-137296652D01*
X157121960Y-137296665D01*
X157061622Y-137442336D01*
X157061619Y-137442348D01*
X157030858Y-137596991D01*
X152215608Y-137596991D01*
X152215608Y-137402354D01*
X152185656Y-137174850D01*
X152126266Y-136953201D01*
X152038452Y-136741200D01*
X151923719Y-136542476D01*
X151923716Y-136542473D01*
X151923715Y-136542470D01*
X151788504Y-136366262D01*
X151784027Y-136360427D01*
X151784026Y-136360426D01*
X151784019Y-136360418D01*
X151621778Y-136198177D01*
X151621769Y-136198169D01*
X151439725Y-136058480D01*
X151241006Y-135943749D01*
X151241001Y-135943747D01*
X151240996Y-135943744D01*
X151142153Y-135902801D01*
X151087751Y-135858960D01*
X151065687Y-135792665D01*
X151065608Y-135788241D01*
X151065608Y-134862346D01*
X155064608Y-134862346D01*
X155064608Y-135091829D01*
X155089554Y-135281303D01*
X155094560Y-135319326D01*
X155094561Y-135319328D01*
X155153950Y-135540975D01*
X155241758Y-135752964D01*
X155241765Y-135752978D01*
X155356500Y-135951705D01*
X155496189Y-136133749D01*
X155496197Y-136133758D01*
X155658438Y-136295999D01*
X155658446Y-136296006D01*
X155658447Y-136296007D01*
X155668930Y-136304051D01*
X155840490Y-136435695D01*
X155840493Y-136435696D01*
X155840496Y-136435699D01*
X156039220Y-136550432D01*
X156039225Y-136550434D01*
X156039231Y-136550437D01*
X156130588Y-136588278D01*
X156251221Y-136638246D01*
X156472870Y-136697636D01*
X156700374Y-136727588D01*
X156700381Y-136727588D01*
X156929835Y-136727588D01*
X156929842Y-136727588D01*
X157157346Y-136697636D01*
X157378995Y-136638246D01*
X157590996Y-136550432D01*
X157789720Y-136435699D01*
X157971769Y-136296007D01*
X157971773Y-136296002D01*
X157971778Y-136295999D01*
X158134019Y-136133758D01*
X158134022Y-136133753D01*
X158134027Y-136133749D01*
X158273719Y-135951700D01*
X158388452Y-135752976D01*
X158476266Y-135540975D01*
X158535656Y-135319326D01*
X158565608Y-135091822D01*
X158565608Y-134862354D01*
X158535656Y-134634850D01*
X158476266Y-134413201D01*
X158388452Y-134201200D01*
X158273719Y-134002476D01*
X158273716Y-134002473D01*
X158273715Y-134002470D01*
X158134026Y-133820426D01*
X158134019Y-133820418D01*
X157971778Y-133658177D01*
X157971769Y-133658169D01*
X157789725Y-133518480D01*
X157590998Y-133403745D01*
X157590984Y-133403738D01*
X157378995Y-133315930D01*
X157157346Y-133256540D01*
X157119323Y-133251534D01*
X156929849Y-133226588D01*
X156929842Y-133226588D01*
X156700374Y-133226588D01*
X156700366Y-133226588D01*
X156483823Y-133255097D01*
X156472870Y-133256540D01*
X156379184Y-133281642D01*
X156251220Y-133315930D01*
X156039231Y-133403738D01*
X156039217Y-133403745D01*
X155840490Y-133518480D01*
X155658446Y-133658169D01*
X155496189Y-133820426D01*
X155356500Y-134002470D01*
X155241765Y-134201197D01*
X155241758Y-134201211D01*
X155153950Y-134413200D01*
X155094561Y-134634847D01*
X155094559Y-134634858D01*
X155064608Y-134862346D01*
X151065608Y-134862346D01*
X151065608Y-120859574D01*
X152024608Y-120859574D01*
X152024608Y-121154601D01*
X152026654Y-121170138D01*
X152063115Y-121447081D01*
X152116875Y-121647716D01*
X152139469Y-121732039D01*
X152139472Y-121732049D01*
X152252362Y-122004588D01*
X152252366Y-122004598D01*
X152399869Y-122260081D01*
X152579460Y-122494128D01*
X152579466Y-122494135D01*
X152788060Y-122702729D01*
X152788067Y-122702735D01*
X153022114Y-122882326D01*
X153277597Y-123029829D01*
X153277598Y-123029829D01*
X153277601Y-123029831D01*
X153550156Y-123142727D01*
X153835115Y-123219081D01*
X154127602Y-123257588D01*
X154127609Y-123257588D01*
X154422607Y-123257588D01*
X154422614Y-123257588D01*
X154715101Y-123219081D01*
X155000060Y-123142727D01*
X155272615Y-123029831D01*
X155528102Y-122882326D01*
X155762150Y-122702734D01*
X155970754Y-122494130D01*
X156150346Y-122260082D01*
X156297851Y-122004595D01*
X156410747Y-121732040D01*
X156487101Y-121447081D01*
X156525608Y-121154594D01*
X156525608Y-120859582D01*
X156487101Y-120567095D01*
X156410747Y-120282136D01*
X156297851Y-120009581D01*
X156271561Y-119964046D01*
X156150346Y-119754094D01*
X155970755Y-119520047D01*
X155970749Y-119520040D01*
X155762155Y-119311446D01*
X155762148Y-119311440D01*
X155528101Y-119131849D01*
X155272618Y-118984346D01*
X155272608Y-118984342D01*
X155000069Y-118871452D01*
X155000062Y-118871450D01*
X155000060Y-118871449D01*
X154715101Y-118795095D01*
X154666221Y-118788659D01*
X154422621Y-118756588D01*
X154422614Y-118756588D01*
X154127602Y-118756588D01*
X154127594Y-118756588D01*
X153849193Y-118793241D01*
X153835115Y-118795095D01*
X153550156Y-118871449D01*
X153550146Y-118871452D01*
X153277607Y-118984342D01*
X153277597Y-118984346D01*
X153022114Y-119131849D01*
X152788067Y-119311440D01*
X152788060Y-119311446D01*
X152579466Y-119520040D01*
X152579460Y-119520047D01*
X152399869Y-119754094D01*
X152252366Y-120009577D01*
X152252362Y-120009587D01*
X152139472Y-120282126D01*
X152139469Y-120282136D01*
X152084229Y-120488298D01*
X152063116Y-120567092D01*
X152063114Y-120567103D01*
X152024608Y-120859574D01*
X151065608Y-120859574D01*
X151065608Y-120195934D01*
X151085293Y-120128895D01*
X151138097Y-120083140D01*
X151142156Y-120081373D01*
X151240984Y-120040437D01*
X151240984Y-120040436D01*
X151240996Y-120040432D01*
X151439720Y-119925699D01*
X151621769Y-119786007D01*
X151621773Y-119786002D01*
X151621778Y-119785999D01*
X151784019Y-119623758D01*
X151784022Y-119623753D01*
X151784027Y-119623749D01*
X151923719Y-119441700D01*
X152038452Y-119242976D01*
X152126266Y-119030975D01*
X152185656Y-118809326D01*
X152215608Y-118581822D01*
X152215608Y-118352354D01*
X152185656Y-118124850D01*
X152126266Y-117903201D01*
X152038452Y-117691200D01*
X151923719Y-117492476D01*
X151923716Y-117492473D01*
X151923715Y-117492470D01*
X151784026Y-117310426D01*
X151784019Y-117310418D01*
X151621778Y-117148177D01*
X151621769Y-117148169D01*
X151439725Y-117008480D01*
X151241006Y-116893749D01*
X151241001Y-116893747D01*
X151240996Y-116893744D01*
X151142153Y-116852801D01*
X151087751Y-116808960D01*
X151065687Y-116742665D01*
X151065608Y-116738241D01*
X151065608Y-115812346D01*
X155064608Y-115812346D01*
X155064608Y-116041829D01*
X155089554Y-116231303D01*
X155094560Y-116269326D01*
X155094561Y-116269328D01*
X155153950Y-116490975D01*
X155241758Y-116702964D01*
X155241765Y-116702978D01*
X155356500Y-116901705D01*
X155496189Y-117083749D01*
X155496197Y-117083758D01*
X155658438Y-117245999D01*
X155658446Y-117246006D01*
X155840490Y-117385695D01*
X155840493Y-117385696D01*
X155840496Y-117385699D01*
X156039220Y-117500432D01*
X156039225Y-117500434D01*
X156039231Y-117500437D01*
X156130588Y-117538278D01*
X156251221Y-117588246D01*
X156472870Y-117647636D01*
X156700374Y-117677588D01*
X156700381Y-117677588D01*
X156929835Y-117677588D01*
X156929842Y-117677588D01*
X157157346Y-117647636D01*
X157378995Y-117588246D01*
X157590996Y-117500432D01*
X157789720Y-117385699D01*
X157971769Y-117246007D01*
X157971773Y-117246002D01*
X157971778Y-117245999D01*
X158134019Y-117083758D01*
X158134022Y-117083753D01*
X158134027Y-117083749D01*
X158273719Y-116901700D01*
X158388452Y-116702976D01*
X158476266Y-116490975D01*
X158535656Y-116269326D01*
X158565608Y-116041822D01*
X158565608Y-115812354D01*
X158535656Y-115584850D01*
X158476266Y-115363201D01*
X158388452Y-115151200D01*
X158273719Y-114952476D01*
X158273716Y-114952473D01*
X158273715Y-114952470D01*
X158134026Y-114770426D01*
X158134019Y-114770418D01*
X157971778Y-114608177D01*
X157971769Y-114608169D01*
X157789725Y-114468480D01*
X157590998Y-114353745D01*
X157590984Y-114353738D01*
X157378995Y-114265930D01*
X157157346Y-114206540D01*
X157119323Y-114201534D01*
X156929849Y-114176588D01*
X156929842Y-114176588D01*
X156700374Y-114176588D01*
X156700366Y-114176588D01*
X156483823Y-114205097D01*
X156472870Y-114206540D01*
X156379184Y-114231642D01*
X156251220Y-114265930D01*
X156039231Y-114353738D01*
X156039217Y-114353745D01*
X155840490Y-114468480D01*
X155658446Y-114608169D01*
X155496189Y-114770426D01*
X155356500Y-114952470D01*
X155241765Y-115151197D01*
X155241758Y-115151211D01*
X155153950Y-115363200D01*
X155094561Y-115584847D01*
X155094559Y-115584858D01*
X155064608Y-115812346D01*
X151065608Y-115812346D01*
X151065608Y-101809574D01*
X152024608Y-101809574D01*
X152024608Y-102104601D01*
X152039886Y-102220643D01*
X152063115Y-102397081D01*
X152116875Y-102597716D01*
X152139469Y-102682039D01*
X152139472Y-102682049D01*
X152252362Y-102954588D01*
X152252366Y-102954598D01*
X152399869Y-103210081D01*
X152579460Y-103444128D01*
X152579466Y-103444135D01*
X152788060Y-103652729D01*
X152788067Y-103652735D01*
X153022114Y-103832326D01*
X153277597Y-103979829D01*
X153277598Y-103979829D01*
X153277601Y-103979831D01*
X153550156Y-104092727D01*
X153835115Y-104169081D01*
X154127602Y-104207588D01*
X154127609Y-104207588D01*
X154422607Y-104207588D01*
X154422614Y-104207588D01*
X154715101Y-104169081D01*
X155000060Y-104092727D01*
X155272615Y-103979831D01*
X155528102Y-103832326D01*
X155762150Y-103652734D01*
X155970754Y-103444130D01*
X156150346Y-103210082D01*
X156297851Y-102954595D01*
X156410747Y-102682040D01*
X156487101Y-102397081D01*
X156525608Y-102104594D01*
X156525608Y-101868509D01*
X158229608Y-101868509D01*
X158229608Y-102045666D01*
X158257322Y-102220644D01*
X158312064Y-102389127D01*
X158312065Y-102389130D01*
X158380027Y-102522510D01*
X158392494Y-102546978D01*
X158496625Y-102690302D01*
X158621894Y-102815571D01*
X158765218Y-102919702D01*
X158810509Y-102942779D01*
X158923065Y-103000130D01*
X158923068Y-103000131D01*
X159007309Y-103027502D01*
X159091553Y-103054874D01*
X159266529Y-103082588D01*
X159266530Y-103082588D01*
X159443686Y-103082588D01*
X159443687Y-103082588D01*
X159618663Y-103054874D01*
X159787150Y-103000130D01*
X159944998Y-102919702D01*
X160088322Y-102815571D01*
X160213591Y-102690302D01*
X160317722Y-102546978D01*
X160398150Y-102389130D01*
X160452894Y-102220643D01*
X160480608Y-102045667D01*
X160480608Y-101868509D01*
X160452894Y-101693533D01*
X160398150Y-101525046D01*
X160398150Y-101525045D01*
X160353949Y-101438298D01*
X160317722Y-101367198D01*
X160213591Y-101223874D01*
X160088322Y-101098605D01*
X159944998Y-100994474D01*
X159937061Y-100990430D01*
X159787150Y-100914045D01*
X159787147Y-100914044D01*
X159618664Y-100859302D01*
X159531175Y-100845445D01*
X159443687Y-100831588D01*
X159266529Y-100831588D01*
X159208203Y-100840826D01*
X159091551Y-100859302D01*
X158923068Y-100914044D01*
X158923065Y-100914045D01*
X158765217Y-100994474D01*
X158683446Y-101053884D01*
X158621894Y-101098605D01*
X158621892Y-101098607D01*
X158621891Y-101098607D01*
X158496627Y-101223871D01*
X158496627Y-101223872D01*
X158496625Y-101223874D01*
X158451904Y-101285426D01*
X158392494Y-101367197D01*
X158312065Y-101525045D01*
X158312064Y-101525048D01*
X158257322Y-101693531D01*
X158229608Y-101868509D01*
X156525608Y-101868509D01*
X156525608Y-101809582D01*
X156487101Y-101517095D01*
X156410747Y-101232136D01*
X156297851Y-100959581D01*
X156271561Y-100914046D01*
X156150346Y-100704094D01*
X155970755Y-100470047D01*
X155970749Y-100470040D01*
X155762155Y-100261446D01*
X155762148Y-100261440D01*
X155528101Y-100081849D01*
X155272618Y-99934346D01*
X155272608Y-99934342D01*
X155000069Y-99821452D01*
X155000062Y-99821450D01*
X155000060Y-99821449D01*
X154715101Y-99745095D01*
X154666221Y-99738659D01*
X154422621Y-99706588D01*
X154422614Y-99706588D01*
X154127602Y-99706588D01*
X154127594Y-99706588D01*
X153849193Y-99743241D01*
X153835115Y-99745095D01*
X153550156Y-99821449D01*
X153550146Y-99821452D01*
X153277607Y-99934342D01*
X153277597Y-99934346D01*
X153022114Y-100081849D01*
X152788067Y-100261440D01*
X152788060Y-100261446D01*
X152579466Y-100470040D01*
X152579460Y-100470047D01*
X152399869Y-100704094D01*
X152252366Y-100959577D01*
X152252362Y-100959587D01*
X152139472Y-101232126D01*
X152139469Y-101232136D01*
X152084229Y-101438298D01*
X152063116Y-101517092D01*
X152063114Y-101517103D01*
X152024608Y-101809574D01*
X151065608Y-101809574D01*
X151065608Y-101145934D01*
X151085293Y-101078895D01*
X151138097Y-101033140D01*
X151142156Y-101031373D01*
X151240984Y-100990437D01*
X151240984Y-100990436D01*
X151240996Y-100990432D01*
X151439720Y-100875699D01*
X151621769Y-100736007D01*
X151621773Y-100736002D01*
X151621778Y-100735999D01*
X151784019Y-100573758D01*
X151784022Y-100573753D01*
X151784027Y-100573749D01*
X151923719Y-100391700D01*
X152038452Y-100192976D01*
X152126266Y-99980975D01*
X152185656Y-99759326D01*
X152215608Y-99531822D01*
X152215608Y-99302354D01*
X152185656Y-99074850D01*
X152126266Y-98853201D01*
X152038452Y-98641200D01*
X151923719Y-98442476D01*
X151923716Y-98442473D01*
X151923715Y-98442470D01*
X151784026Y-98260426D01*
X151784019Y-98260418D01*
X151621778Y-98098177D01*
X151621769Y-98098169D01*
X151439725Y-97958480D01*
X151240998Y-97843745D01*
X151240984Y-97843738D01*
X151028995Y-97755930D01*
X151026569Y-97755280D01*
X150807346Y-97696540D01*
X150769323Y-97691534D01*
X150579849Y-97666588D01*
X150579842Y-97666588D01*
X150350374Y-97666588D01*
X150350366Y-97666588D01*
X150133823Y-97695097D01*
X150122870Y-97696540D01*
X149903647Y-97755280D01*
X149901221Y-97755930D01*
X149901211Y-97755933D01*
X149802380Y-97796871D01*
X149732910Y-97804340D01*
X149670431Y-97773065D01*
X149667246Y-97769991D01*
X148659601Y-96762346D01*
X155064608Y-96762346D01*
X155064608Y-96991829D01*
X155084650Y-97144051D01*
X155094560Y-97219326D01*
X155140553Y-97390977D01*
X155153950Y-97440975D01*
X155241758Y-97652964D01*
X155241765Y-97652978D01*
X155356500Y-97851705D01*
X155496189Y-98033749D01*
X155496197Y-98033758D01*
X155658438Y-98195999D01*
X155658446Y-98196006D01*
X155840490Y-98335695D01*
X155840493Y-98335696D01*
X155840496Y-98335699D01*
X156039220Y-98450432D01*
X156039225Y-98450434D01*
X156039231Y-98450437D01*
X156130588Y-98488278D01*
X156251221Y-98538246D01*
X156472870Y-98597636D01*
X156700374Y-98627588D01*
X156700381Y-98627588D01*
X156929835Y-98627588D01*
X156929842Y-98627588D01*
X157157346Y-98597636D01*
X157378995Y-98538246D01*
X157590996Y-98450432D01*
X157789720Y-98335699D01*
X157971769Y-98196007D01*
X157971773Y-98196002D01*
X157971778Y-98195999D01*
X158134019Y-98033758D01*
X158134022Y-98033753D01*
X158134027Y-98033749D01*
X158273719Y-97851700D01*
X158388452Y-97652976D01*
X158476266Y-97440975D01*
X158535656Y-97219326D01*
X158565608Y-96991822D01*
X158565608Y-96762354D01*
X158535656Y-96534850D01*
X158476266Y-96313201D01*
X158400391Y-96130023D01*
X158388457Y-96101211D01*
X158388454Y-96101205D01*
X158388452Y-96101200D01*
X158273719Y-95902476D01*
X158273716Y-95902473D01*
X158273715Y-95902470D01*
X158150113Y-95741391D01*
X158134027Y-95720427D01*
X158134023Y-95720423D01*
X158134019Y-95720418D01*
X157971778Y-95558177D01*
X157971769Y-95558169D01*
X157789725Y-95418480D01*
X157760581Y-95401654D01*
X157590996Y-95303744D01*
X157590984Y-95303738D01*
X157378995Y-95215930D01*
X157370116Y-95213551D01*
X157157346Y-95156540D01*
X157119323Y-95151534D01*
X156929849Y-95126588D01*
X156929842Y-95126588D01*
X156700374Y-95126588D01*
X156700366Y-95126588D01*
X156483823Y-95155097D01*
X156472870Y-95156540D01*
X156379184Y-95181642D01*
X156251220Y-95215930D01*
X156039231Y-95303738D01*
X156039217Y-95303745D01*
X155840490Y-95418480D01*
X155658446Y-95558169D01*
X155496189Y-95720426D01*
X155356500Y-95902470D01*
X155241765Y-96101197D01*
X155241758Y-96101211D01*
X155153950Y-96313200D01*
X155153950Y-96313201D01*
X155098386Y-96520573D01*
X155094561Y-96534847D01*
X155094559Y-96534858D01*
X155064608Y-96762346D01*
X148659601Y-96762346D01*
X146036448Y-94139193D01*
X146036446Y-94139190D01*
X145917575Y-94020319D01*
X145917574Y-94020318D01*
X145806792Y-93956358D01*
X145806792Y-93956357D01*
X145806787Y-93956356D01*
X145797664Y-93951088D01*
X145780644Y-93941261D01*
X145742461Y-93931030D01*
X145627915Y-93900337D01*
X145469801Y-93900337D01*
X145462205Y-93900337D01*
X145462189Y-93900338D01*
X136356455Y-93900338D01*
X136289416Y-93880653D01*
X136268774Y-93864019D01*
X135201746Y-92796991D01*
X150646710Y-92796991D01*
X150646710Y-92954684D01*
X150677471Y-93109327D01*
X150677474Y-93109339D01*
X150737812Y-93255010D01*
X150737819Y-93255023D01*
X150825420Y-93386126D01*
X150825423Y-93386130D01*
X150936917Y-93497624D01*
X150936921Y-93497627D01*
X151068024Y-93585228D01*
X151068037Y-93585235D01*
X151213708Y-93645573D01*
X151213713Y-93645575D01*
X151278357Y-93658433D01*
X151369059Y-93676476D01*
X151430970Y-93708861D01*
X151432549Y-93710412D01*
X151437349Y-93715212D01*
X151437359Y-93715223D01*
X151441689Y-93719553D01*
X151441690Y-93719554D01*
X151553494Y-93831358D01*
X151553496Y-93831359D01*
X151553500Y-93831362D01*
X151638876Y-93880653D01*
X151690426Y-93910415D01*
X151786262Y-93936094D01*
X151843152Y-93951338D01*
X151843153Y-93951338D01*
X156906261Y-93951338D01*
X156973300Y-93971023D01*
X156993941Y-93987656D01*
X158287642Y-95281358D01*
X158287644Y-95281359D01*
X158287648Y-95281362D01*
X158376613Y-95332725D01*
X158424574Y-95360415D01*
X158577301Y-95401339D01*
X158577303Y-95401339D01*
X158743012Y-95401339D01*
X158743028Y-95401338D01*
X158788510Y-95401338D01*
X158855549Y-95421023D01*
X158901304Y-95473827D01*
X158910127Y-95501146D01*
X158936619Y-95634329D01*
X158936622Y-95634339D01*
X158996960Y-95780010D01*
X158996967Y-95780023D01*
X159084568Y-95911126D01*
X159084571Y-95911130D01*
X159196065Y-96022624D01*
X159196069Y-96022627D01*
X159327172Y-96110228D01*
X159327185Y-96110235D01*
X159472856Y-96170573D01*
X159472861Y-96170575D01*
X159537505Y-96183433D01*
X159628207Y-96201476D01*
X159690118Y-96233861D01*
X159691697Y-96235412D01*
X161044539Y-97588254D01*
X161078024Y-97649577D01*
X161080858Y-97675935D01*
X161080858Y-102875740D01*
X161061173Y-102942779D01*
X161044539Y-102963421D01*
X160175839Y-103832120D01*
X160175833Y-103832128D01*
X160129854Y-103911768D01*
X160129854Y-103911769D01*
X160096781Y-103969053D01*
X160055857Y-104121781D01*
X160055857Y-104121783D01*
X160055857Y-104289884D01*
X160055858Y-104289897D01*
X160055858Y-104817947D01*
X160036173Y-104884986D01*
X160034960Y-104886838D01*
X159946967Y-105018527D01*
X159946960Y-105018540D01*
X159886622Y-105164211D01*
X159886619Y-105164223D01*
X159855858Y-105318866D01*
X159855858Y-105476559D01*
X159886619Y-105631202D01*
X159886622Y-105631214D01*
X159946960Y-105776885D01*
X159946967Y-105776898D01*
X160034568Y-105908001D01*
X160034571Y-105908005D01*
X160146065Y-106019499D01*
X160146069Y-106019502D01*
X160277172Y-106107103D01*
X160277185Y-106107110D01*
X160422856Y-106167448D01*
X160422861Y-106167450D01*
X160577511Y-106198212D01*
X160577514Y-106198213D01*
X160577516Y-106198213D01*
X160735202Y-106198213D01*
X160735203Y-106198212D01*
X160889855Y-106167450D01*
X161035537Y-106107107D01*
X161166647Y-106019502D01*
X161278147Y-105908002D01*
X161365752Y-105776892D01*
X161426095Y-105631210D01*
X161456858Y-105476555D01*
X161456858Y-105318871D01*
X161456858Y-105318868D01*
X161456857Y-105318866D01*
X161426096Y-105164223D01*
X161426095Y-105164216D01*
X161426093Y-105164211D01*
X161365755Y-105018540D01*
X161365748Y-105018527D01*
X161277756Y-104886838D01*
X161256878Y-104820160D01*
X161256858Y-104817947D01*
X161256858Y-104500934D01*
X161276543Y-104433895D01*
X161293173Y-104413257D01*
X162050071Y-103656359D01*
X162050074Y-103656358D01*
X162161878Y-103544554D01*
X162211997Y-103457742D01*
X162240935Y-103407623D01*
X162281859Y-103254895D01*
X162281859Y-103096781D01*
X162281859Y-103089186D01*
X162281858Y-103089168D01*
X162281858Y-97464898D01*
X162281859Y-97464885D01*
X162281859Y-97296783D01*
X162281859Y-97296781D01*
X162240935Y-97144053D01*
X162161878Y-97007122D01*
X160767773Y-95613018D01*
X160734289Y-95551696D01*
X160739273Y-95482004D01*
X160781145Y-95426071D01*
X160846609Y-95401654D01*
X160855455Y-95401338D01*
X163737190Y-95401338D01*
X163804229Y-95421023D01*
X163849984Y-95473827D01*
X163859928Y-95542985D01*
X163840291Y-95594230D01*
X163821968Y-95621650D01*
X163821960Y-95621665D01*
X163761622Y-95767336D01*
X163761619Y-95767348D01*
X163730858Y-95921991D01*
X163730858Y-96079684D01*
X163761619Y-96234327D01*
X163761622Y-96234339D01*
X163821960Y-96380010D01*
X163821967Y-96380023D01*
X163909568Y-96511126D01*
X163909571Y-96511130D01*
X164021065Y-96622624D01*
X164021069Y-96622627D01*
X164152172Y-96710228D01*
X164152185Y-96710235D01*
X164278028Y-96762360D01*
X164297861Y-96770575D01*
X164362505Y-96783433D01*
X164453207Y-96801476D01*
X164515118Y-96833861D01*
X164516697Y-96835412D01*
X165769539Y-98088254D01*
X165803024Y-98149577D01*
X165805858Y-98175935D01*
X165805858Y-103051338D01*
X165786173Y-103118377D01*
X165733369Y-103164132D01*
X165681858Y-103175338D01*
X165527513Y-103175338D01*
X165372868Y-103206099D01*
X165372856Y-103206102D01*
X165227185Y-103266440D01*
X165227172Y-103266447D01*
X165096069Y-103354048D01*
X165096065Y-103354051D01*
X164984571Y-103465545D01*
X164984568Y-103465549D01*
X164896967Y-103596652D01*
X164896960Y-103596665D01*
X164836622Y-103742336D01*
X164836619Y-103742348D01*
X164805858Y-103896991D01*
X164805858Y-104054684D01*
X164836619Y-104209327D01*
X164836622Y-104209339D01*
X164896960Y-104355010D01*
X164896967Y-104355023D01*
X164984960Y-104486712D01*
X165005838Y-104553389D01*
X165005858Y-104555603D01*
X165005858Y-105525740D01*
X164986173Y-105592779D01*
X164969539Y-105613421D01*
X160650839Y-109932120D01*
X160650837Y-109932123D01*
X160600719Y-110018932D01*
X160600717Y-110018934D01*
X160571783Y-110069047D01*
X160571782Y-110069048D01*
X160571781Y-110069053D01*
X160530857Y-110221781D01*
X160530857Y-110221783D01*
X160530857Y-110389884D01*
X160530858Y-110389897D01*
X160530858Y-120328921D01*
X160511173Y-120395960D01*
X160458369Y-120441715D01*
X160389211Y-120451659D01*
X160325655Y-120422634D01*
X160306540Y-120401807D01*
X160280858Y-120366459D01*
X160213591Y-120273874D01*
X160088322Y-120148605D01*
X159944998Y-120044474D01*
X159937061Y-120040430D01*
X159787150Y-119964045D01*
X159787147Y-119964044D01*
X159618664Y-119909302D01*
X159531175Y-119895445D01*
X159443687Y-119881588D01*
X159266529Y-119881588D01*
X159208203Y-119890826D01*
X159091551Y-119909302D01*
X158923068Y-119964044D01*
X158923065Y-119964045D01*
X158765217Y-120044474D01*
X158683446Y-120103884D01*
X158621894Y-120148605D01*
X158621892Y-120148607D01*
X158621891Y-120148607D01*
X158496627Y-120273871D01*
X158496627Y-120273872D01*
X158496625Y-120273874D01*
X158456631Y-120328921D01*
X158392494Y-120417197D01*
X158312065Y-120575045D01*
X158312064Y-120575048D01*
X158257322Y-120743531D01*
X158229608Y-120918509D01*
X158229608Y-121095666D01*
X158257322Y-121270644D01*
X158312064Y-121439127D01*
X158312065Y-121439130D01*
X158380027Y-121572510D01*
X158392494Y-121596978D01*
X158496625Y-121740302D01*
X158621894Y-121865571D01*
X158765218Y-121969702D01*
X158833685Y-122004588D01*
X158923065Y-122050130D01*
X158923068Y-122050131D01*
X159007309Y-122077502D01*
X159091553Y-122104874D01*
X159266529Y-122132588D01*
X159266530Y-122132588D01*
X159443686Y-122132588D01*
X159443687Y-122132588D01*
X159618663Y-122104874D01*
X159787150Y-122050130D01*
X159944998Y-121969702D01*
X160088322Y-121865571D01*
X160213591Y-121740302D01*
X160306540Y-121612369D01*
X160361870Y-121569703D01*
X160431483Y-121563724D01*
X160493278Y-121596330D01*
X160527636Y-121657169D01*
X160530858Y-121685254D01*
X160530858Y-125975740D01*
X160511173Y-126042779D01*
X160494539Y-126063421D01*
X157466697Y-129091263D01*
X157405374Y-129124748D01*
X157403208Y-129125199D01*
X157247866Y-129156099D01*
X157247856Y-129156102D01*
X157102185Y-129216440D01*
X157102172Y-129216447D01*
X156971069Y-129304048D01*
X156971065Y-129304051D01*
X156859571Y-129415545D01*
X156859568Y-129415549D01*
X156771967Y-129546652D01*
X156771960Y-129546665D01*
X156711622Y-129692336D01*
X156711619Y-129692348D01*
X156680858Y-129846991D01*
X156680858Y-130004684D01*
X156711619Y-130159327D01*
X156711622Y-130159339D01*
X156771960Y-130305010D01*
X156771967Y-130305023D01*
X156859568Y-130436126D01*
X156859571Y-130436130D01*
X156971065Y-130547624D01*
X156971069Y-130547627D01*
X157102172Y-130635228D01*
X157102185Y-130635235D01*
X157247856Y-130695573D01*
X157247861Y-130695575D01*
X157402511Y-130726337D01*
X157402514Y-130726338D01*
X157402516Y-130726338D01*
X157560202Y-130726338D01*
X157560203Y-130726337D01*
X157714855Y-130695575D01*
X157860537Y-130635232D01*
X157991647Y-130547627D01*
X158103147Y-130436127D01*
X158190752Y-130305017D01*
X158251095Y-130159335D01*
X158279164Y-130018223D01*
X158281996Y-130003988D01*
X158314381Y-129942077D01*
X158315876Y-129940554D01*
X161611878Y-126644554D01*
X161690935Y-126507622D01*
X161731859Y-126354895D01*
X161731859Y-126196780D01*
X161731859Y-126189185D01*
X161731858Y-126189167D01*
X161731858Y-111375867D01*
X162449782Y-111375867D01*
X162449782Y-111588440D01*
X162483035Y-111798393D01*
X162548726Y-112000568D01*
X162645233Y-112189974D01*
X162770172Y-112361940D01*
X162920495Y-112512263D01*
X163092461Y-112637202D01*
X163092463Y-112637203D01*
X163092466Y-112637205D01*
X163281870Y-112733711D01*
X163484039Y-112799400D01*
X163693995Y-112832654D01*
X163693996Y-112832654D01*
X163906568Y-112832654D01*
X163906569Y-112832654D01*
X164116525Y-112799400D01*
X164318694Y-112733711D01*
X164508098Y-112637205D01*
X164530071Y-112621240D01*
X164680068Y-112512263D01*
X164680070Y-112512260D01*
X164680074Y-112512258D01*
X164830386Y-112361946D01*
X164830388Y-112361942D01*
X164830391Y-112361940D01*
X164955330Y-112189974D01*
X164955329Y-112189974D01*
X164955333Y-112189970D01*
X165051839Y-112000566D01*
X165117528Y-111798397D01*
X165150782Y-111588441D01*
X165150782Y-111375867D01*
X165117528Y-111165911D01*
X165051839Y-110963742D01*
X164955333Y-110774338D01*
X164955331Y-110774335D01*
X164955330Y-110774333D01*
X164830391Y-110602367D01*
X164680068Y-110452044D01*
X164508102Y-110327105D01*
X164318696Y-110230598D01*
X164318695Y-110230597D01*
X164318694Y-110230597D01*
X164116525Y-110164908D01*
X164116523Y-110164907D01*
X164116522Y-110164907D01*
X163955239Y-110139362D01*
X163906569Y-110131654D01*
X163693995Y-110131654D01*
X163645324Y-110139362D01*
X163484042Y-110164907D01*
X163281867Y-110230598D01*
X163092461Y-110327105D01*
X162920495Y-110452044D01*
X162770172Y-110602367D01*
X162645233Y-110774333D01*
X162548726Y-110963739D01*
X162483035Y-111165914D01*
X162449782Y-111375867D01*
X161731858Y-111375867D01*
X161731858Y-110600935D01*
X161751543Y-110533896D01*
X161768177Y-110513254D01*
X165594177Y-106687254D01*
X165655500Y-106653769D01*
X165725192Y-106658753D01*
X165781125Y-106700625D01*
X165805542Y-106766089D01*
X165805858Y-106774935D01*
X165805858Y-124096072D01*
X165786173Y-124163111D01*
X165784960Y-124164963D01*
X165696967Y-124296652D01*
X165696960Y-124296665D01*
X165636622Y-124442336D01*
X165636619Y-124442348D01*
X165605858Y-124596991D01*
X165605858Y-124754684D01*
X165636619Y-124909327D01*
X165636622Y-124909339D01*
X165696960Y-125055010D01*
X165696967Y-125055023D01*
X165784568Y-125186126D01*
X165784571Y-125186130D01*
X165896065Y-125297624D01*
X165896069Y-125297627D01*
X166027172Y-125385228D01*
X166027185Y-125385235D01*
X166172856Y-125445573D01*
X166172861Y-125445575D01*
X166327511Y-125476337D01*
X166327514Y-125476338D01*
X166327516Y-125476338D01*
X166485202Y-125476338D01*
X166485203Y-125476337D01*
X166639855Y-125445575D01*
X166785537Y-125385232D01*
X166916647Y-125297627D01*
X167028147Y-125186127D01*
X167115752Y-125055017D01*
X167176095Y-124909335D01*
X167206858Y-124754680D01*
X167206858Y-124596996D01*
X167206858Y-124596993D01*
X167206857Y-124596991D01*
X167176096Y-124442348D01*
X167176095Y-124442341D01*
X167176093Y-124442336D01*
X167115755Y-124296665D01*
X167115748Y-124296652D01*
X167027756Y-124164963D01*
X167006878Y-124098285D01*
X167006858Y-124096072D01*
X167006858Y-121572510D01*
X167026543Y-121505471D01*
X167079347Y-121459716D01*
X167148505Y-121449772D01*
X167212061Y-121478797D01*
X167241342Y-121516214D01*
X167282494Y-121596978D01*
X167386625Y-121740302D01*
X167511894Y-121865571D01*
X167655218Y-121969702D01*
X167723685Y-122004588D01*
X167813065Y-122050130D01*
X167813068Y-122050131D01*
X167897309Y-122077502D01*
X167981553Y-122104874D01*
X168156529Y-122132588D01*
X168156530Y-122132588D01*
X168333686Y-122132588D01*
X168333687Y-122132588D01*
X168508663Y-122104874D01*
X168677150Y-122050130D01*
X168734313Y-122021003D01*
X168802981Y-122008107D01*
X168867721Y-122034382D01*
X168907979Y-122091488D01*
X168914608Y-122131488D01*
X168914608Y-135788241D01*
X168894923Y-135855280D01*
X168842119Y-135901035D01*
X168838071Y-135902797D01*
X168739220Y-135943744D01*
X168739217Y-135943745D01*
X168739209Y-135943749D01*
X168540490Y-136058480D01*
X168358446Y-136198169D01*
X168196189Y-136360426D01*
X168056500Y-136542470D01*
X167941765Y-136741197D01*
X167941758Y-136741211D01*
X167853950Y-136953200D01*
X167794561Y-137174847D01*
X167794559Y-137174858D01*
X167764608Y-137402346D01*
X167764608Y-137631829D01*
X167780783Y-137754680D01*
X167794560Y-137859326D01*
X167841455Y-138034342D01*
X167853950Y-138080975D01*
X167941758Y-138292964D01*
X167941765Y-138292978D01*
X168056500Y-138491705D01*
X168196189Y-138673749D01*
X168196197Y-138673758D01*
X168242346Y-138719907D01*
X168275831Y-138781230D01*
X168270847Y-138850922D01*
X168228975Y-138906855D01*
X168163511Y-138931272D01*
X168158075Y-138931466D01*
X168156531Y-138931587D01*
X167981551Y-138959302D01*
X167813068Y-139014044D01*
X167813065Y-139014045D01*
X167655217Y-139094474D01*
X167573446Y-139153884D01*
X167511894Y-139198605D01*
X167511892Y-139198607D01*
X167511891Y-139198607D01*
X167386627Y-139323871D01*
X167386627Y-139323872D01*
X167386625Y-139323874D01*
X167341904Y-139385426D01*
X167282494Y-139467197D01*
X167202065Y-139625045D01*
X167202064Y-139625048D01*
X167147322Y-139793531D01*
X167119608Y-139968509D01*
X167119608Y-140145666D01*
X167147322Y-140320644D01*
X167202064Y-140489127D01*
X167202065Y-140489130D01*
X167282494Y-140646978D01*
X167386625Y-140790302D01*
X167511894Y-140915571D01*
X167655218Y-141019702D01*
X167723685Y-141054588D01*
X167813065Y-141100130D01*
X167813068Y-141100131D01*
X167897309Y-141127502D01*
X167981553Y-141154874D01*
X168156529Y-141182588D01*
X168156530Y-141182588D01*
X168333686Y-141182588D01*
X168333687Y-141182588D01*
X168508663Y-141154874D01*
X168677150Y-141100130D01*
X168834998Y-141019702D01*
X168978322Y-140915571D01*
X169103591Y-140790302D01*
X169207722Y-140646978D01*
X169288150Y-140489130D01*
X169342894Y-140320643D01*
X169370608Y-140145667D01*
X169370608Y-139968509D01*
X169361273Y-139909574D01*
X171074608Y-139909574D01*
X171074608Y-140204601D01*
X171089886Y-140320643D01*
X171113115Y-140497081D01*
X171189469Y-140782039D01*
X171189472Y-140782049D01*
X171302362Y-141054588D01*
X171302366Y-141054598D01*
X171449869Y-141310081D01*
X171629460Y-141544128D01*
X171629466Y-141544135D01*
X171838060Y-141752729D01*
X171838067Y-141752735D01*
X172072114Y-141932326D01*
X172327597Y-142079829D01*
X172327598Y-142079829D01*
X172327601Y-142079831D01*
X172600156Y-142192727D01*
X172885115Y-142269081D01*
X173177602Y-142307588D01*
X173177609Y-142307588D01*
X173472607Y-142307588D01*
X173472614Y-142307588D01*
X173765101Y-142269081D01*
X174050060Y-142192727D01*
X174322615Y-142079831D01*
X174578102Y-141932326D01*
X174812150Y-141752734D01*
X175020754Y-141544130D01*
X175200346Y-141310082D01*
X175347851Y-141054595D01*
X175460747Y-140782040D01*
X175537101Y-140497081D01*
X175575608Y-140204594D01*
X175575608Y-139968509D01*
X177279608Y-139968509D01*
X177279608Y-140145666D01*
X177307322Y-140320644D01*
X177362064Y-140489127D01*
X177362065Y-140489130D01*
X177442494Y-140646978D01*
X177546625Y-140790302D01*
X177671894Y-140915571D01*
X177815218Y-141019702D01*
X177883685Y-141054588D01*
X177973065Y-141100130D01*
X177973068Y-141100131D01*
X178057309Y-141127502D01*
X178141553Y-141154874D01*
X178316529Y-141182588D01*
X178316530Y-141182588D01*
X178493686Y-141182588D01*
X178493687Y-141182588D01*
X178668663Y-141154874D01*
X178837150Y-141100130D01*
X178994998Y-141019702D01*
X179138322Y-140915571D01*
X179263591Y-140790302D01*
X179367722Y-140646978D01*
X179448150Y-140489130D01*
X179502894Y-140320643D01*
X179530608Y-140145667D01*
X179530608Y-139968509D01*
X179502894Y-139793533D01*
X179448150Y-139625046D01*
X179448150Y-139625045D01*
X179367721Y-139467197D01*
X179356626Y-139451926D01*
X179263591Y-139323874D01*
X179138322Y-139198605D01*
X178994998Y-139094474D01*
X178987061Y-139090430D01*
X178837150Y-139014045D01*
X178837147Y-139014044D01*
X178668664Y-138959302D01*
X178581175Y-138945445D01*
X178493687Y-138931588D01*
X178316529Y-138931588D01*
X178258203Y-138940826D01*
X178141551Y-138959302D01*
X177973068Y-139014044D01*
X177973065Y-139014045D01*
X177815217Y-139094474D01*
X177733446Y-139153884D01*
X177671894Y-139198605D01*
X177671892Y-139198607D01*
X177671891Y-139198607D01*
X177546627Y-139323871D01*
X177546627Y-139323872D01*
X177546625Y-139323874D01*
X177501904Y-139385426D01*
X177442494Y-139467197D01*
X177362065Y-139625045D01*
X177362064Y-139625048D01*
X177307322Y-139793531D01*
X177279608Y-139968509D01*
X175575608Y-139968509D01*
X175575608Y-139909582D01*
X175537101Y-139617095D01*
X175460747Y-139332136D01*
X175347851Y-139059581D01*
X175321561Y-139014046D01*
X175200346Y-138804094D01*
X175020755Y-138570047D01*
X175020749Y-138570040D01*
X174812155Y-138361446D01*
X174812148Y-138361440D01*
X174578101Y-138181849D01*
X174322618Y-138034346D01*
X174322608Y-138034342D01*
X174050069Y-137921452D01*
X174050062Y-137921450D01*
X174050060Y-137921449D01*
X173765101Y-137845095D01*
X173716221Y-137838659D01*
X173472621Y-137806588D01*
X173472614Y-137806588D01*
X173177602Y-137806588D01*
X173177594Y-137806588D01*
X172899193Y-137843241D01*
X172885115Y-137845095D01*
X172600156Y-137921449D01*
X172600146Y-137921452D01*
X172327607Y-138034342D01*
X172327597Y-138034346D01*
X172072114Y-138181849D01*
X171838067Y-138361440D01*
X171838060Y-138361446D01*
X171629466Y-138570040D01*
X171629460Y-138570047D01*
X171449869Y-138804094D01*
X171302366Y-139059577D01*
X171302362Y-139059587D01*
X171189472Y-139332126D01*
X171189469Y-139332136D01*
X171153280Y-139467198D01*
X171113116Y-139617092D01*
X171113114Y-139617103D01*
X171074608Y-139909574D01*
X169361273Y-139909574D01*
X169342894Y-139793533D01*
X169288150Y-139625046D01*
X169288150Y-139625045D01*
X169207721Y-139467197D01*
X169196626Y-139451926D01*
X169173146Y-139386120D01*
X169188971Y-139318066D01*
X169239076Y-139269371D01*
X169307554Y-139255495D01*
X169313085Y-139256096D01*
X169400374Y-139267588D01*
X169400381Y-139267588D01*
X169629835Y-139267588D01*
X169629842Y-139267588D01*
X169857346Y-139237636D01*
X170078995Y-139178246D01*
X170290996Y-139090432D01*
X170489720Y-138975699D01*
X170671769Y-138836007D01*
X170671773Y-138836002D01*
X170671778Y-138835999D01*
X170834019Y-138673758D01*
X170834022Y-138673753D01*
X170834027Y-138673749D01*
X170973719Y-138491700D01*
X171088452Y-138292976D01*
X171176266Y-138080975D01*
X171235656Y-137859326D01*
X171265608Y-137631822D01*
X171265608Y-137402354D01*
X171235656Y-137174850D01*
X171176266Y-136953201D01*
X171088452Y-136741200D01*
X170973719Y-136542476D01*
X170973716Y-136542473D01*
X170973715Y-136542470D01*
X170838504Y-136366262D01*
X170834027Y-136360427D01*
X170834026Y-136360426D01*
X170834019Y-136360418D01*
X170671778Y-136198177D01*
X170671769Y-136198169D01*
X170489725Y-136058480D01*
X170291006Y-135943749D01*
X170291001Y-135943747D01*
X170290996Y-135943744D01*
X170192153Y-135902801D01*
X170137751Y-135858960D01*
X170115687Y-135792665D01*
X170115608Y-135788241D01*
X170115608Y-134862346D01*
X174114608Y-134862346D01*
X174114608Y-135091829D01*
X174139554Y-135281303D01*
X174144560Y-135319326D01*
X174144561Y-135319328D01*
X174203950Y-135540975D01*
X174291758Y-135752964D01*
X174291765Y-135752978D01*
X174406500Y-135951705D01*
X174546189Y-136133749D01*
X174546197Y-136133758D01*
X174708438Y-136295999D01*
X174708446Y-136296006D01*
X174708447Y-136296007D01*
X174718930Y-136304051D01*
X174890490Y-136435695D01*
X174890493Y-136435696D01*
X174890496Y-136435699D01*
X175089220Y-136550432D01*
X175089225Y-136550434D01*
X175089231Y-136550437D01*
X175180588Y-136588278D01*
X175301221Y-136638246D01*
X175522870Y-136697636D01*
X175750374Y-136727588D01*
X175750381Y-136727588D01*
X175979835Y-136727588D01*
X175979842Y-136727588D01*
X176207346Y-136697636D01*
X176428995Y-136638246D01*
X176640996Y-136550432D01*
X176839720Y-136435699D01*
X177021769Y-136296007D01*
X177021773Y-136296002D01*
X177021778Y-136295999D01*
X177184019Y-136133758D01*
X177184022Y-136133753D01*
X177184027Y-136133749D01*
X177323719Y-135951700D01*
X177438452Y-135752976D01*
X177526266Y-135540975D01*
X177585656Y-135319326D01*
X177615608Y-135091822D01*
X177615608Y-134862354D01*
X177585656Y-134634850D01*
X177526266Y-134413201D01*
X177438452Y-134201200D01*
X177323719Y-134002476D01*
X177323716Y-134002473D01*
X177323715Y-134002470D01*
X177184026Y-133820426D01*
X177184019Y-133820418D01*
X177021778Y-133658177D01*
X177021769Y-133658169D01*
X176839725Y-133518480D01*
X176640998Y-133403745D01*
X176640984Y-133403738D01*
X176428995Y-133315930D01*
X176207346Y-133256540D01*
X176169323Y-133251534D01*
X175979849Y-133226588D01*
X175979842Y-133226588D01*
X175750374Y-133226588D01*
X175750366Y-133226588D01*
X175533823Y-133255097D01*
X175522870Y-133256540D01*
X175429184Y-133281642D01*
X175301220Y-133315930D01*
X175089231Y-133403738D01*
X175089217Y-133403745D01*
X174890490Y-133518480D01*
X174708446Y-133658169D01*
X174546189Y-133820426D01*
X174406500Y-134002470D01*
X174291765Y-134201197D01*
X174291758Y-134201211D01*
X174203950Y-134413200D01*
X174144561Y-134634847D01*
X174144559Y-134634858D01*
X174114608Y-134862346D01*
X170115608Y-134862346D01*
X170115608Y-120859574D01*
X171074608Y-120859574D01*
X171074608Y-121154601D01*
X171076654Y-121170138D01*
X171113115Y-121447081D01*
X171166875Y-121647716D01*
X171189469Y-121732039D01*
X171189472Y-121732049D01*
X171302362Y-122004588D01*
X171302366Y-122004598D01*
X171449869Y-122260081D01*
X171629460Y-122494128D01*
X171629466Y-122494135D01*
X171838060Y-122702729D01*
X171838067Y-122702735D01*
X172072114Y-122882326D01*
X172327597Y-123029829D01*
X172327598Y-123029829D01*
X172327601Y-123029831D01*
X172600156Y-123142727D01*
X172885115Y-123219081D01*
X173177602Y-123257588D01*
X173177609Y-123257588D01*
X173472607Y-123257588D01*
X173472614Y-123257588D01*
X173765101Y-123219081D01*
X174050060Y-123142727D01*
X174322615Y-123029831D01*
X174578102Y-122882326D01*
X174812150Y-122702734D01*
X175020754Y-122494130D01*
X175200346Y-122260082D01*
X175347851Y-122004595D01*
X175460747Y-121732040D01*
X175537101Y-121447081D01*
X175575608Y-121154594D01*
X175575608Y-120859582D01*
X175537101Y-120567095D01*
X175460747Y-120282136D01*
X175347851Y-120009581D01*
X175321561Y-119964046D01*
X175200346Y-119754094D01*
X175020755Y-119520047D01*
X175020749Y-119520040D01*
X174812155Y-119311446D01*
X174812148Y-119311440D01*
X174578101Y-119131849D01*
X174322618Y-118984346D01*
X174322608Y-118984342D01*
X174050069Y-118871452D01*
X174050062Y-118871450D01*
X174050060Y-118871449D01*
X173765101Y-118795095D01*
X173716221Y-118788659D01*
X173472621Y-118756588D01*
X173472614Y-118756588D01*
X173177602Y-118756588D01*
X173177594Y-118756588D01*
X172899193Y-118793241D01*
X172885115Y-118795095D01*
X172600156Y-118871449D01*
X172600146Y-118871452D01*
X172327607Y-118984342D01*
X172327597Y-118984346D01*
X172072114Y-119131849D01*
X171838067Y-119311440D01*
X171838060Y-119311446D01*
X171629466Y-119520040D01*
X171629460Y-119520047D01*
X171449869Y-119754094D01*
X171302366Y-120009577D01*
X171302362Y-120009587D01*
X171189472Y-120282126D01*
X171189469Y-120282136D01*
X171134229Y-120488298D01*
X171113116Y-120567092D01*
X171113114Y-120567103D01*
X171074608Y-120859574D01*
X170115608Y-120859574D01*
X170115608Y-120195934D01*
X170135293Y-120128895D01*
X170188097Y-120083140D01*
X170192156Y-120081373D01*
X170290984Y-120040437D01*
X170290984Y-120040436D01*
X170290996Y-120040432D01*
X170489720Y-119925699D01*
X170671769Y-119786007D01*
X170671773Y-119786002D01*
X170671778Y-119785999D01*
X170834019Y-119623758D01*
X170834022Y-119623753D01*
X170834027Y-119623749D01*
X170973719Y-119441700D01*
X171088452Y-119242976D01*
X171176266Y-119030975D01*
X171235656Y-118809326D01*
X171265608Y-118581822D01*
X171265608Y-118352354D01*
X171235656Y-118124850D01*
X171176266Y-117903201D01*
X171088452Y-117691200D01*
X170973719Y-117492476D01*
X170973716Y-117492473D01*
X170973715Y-117492470D01*
X170834026Y-117310426D01*
X170834019Y-117310418D01*
X170671778Y-117148177D01*
X170671769Y-117148169D01*
X170489725Y-117008480D01*
X170291006Y-116893749D01*
X170291001Y-116893747D01*
X170290996Y-116893744D01*
X170192153Y-116852801D01*
X170137751Y-116808960D01*
X170115687Y-116742665D01*
X170115608Y-116738241D01*
X170115608Y-115812346D01*
X174114608Y-115812346D01*
X174114608Y-116041829D01*
X174139554Y-116231303D01*
X174144560Y-116269326D01*
X174144561Y-116269328D01*
X174203950Y-116490975D01*
X174291758Y-116702964D01*
X174291765Y-116702978D01*
X174406500Y-116901705D01*
X174546189Y-117083749D01*
X174546197Y-117083758D01*
X174708438Y-117245999D01*
X174708446Y-117246006D01*
X174890490Y-117385695D01*
X174890493Y-117385696D01*
X174890496Y-117385699D01*
X175089220Y-117500432D01*
X175089225Y-117500434D01*
X175089231Y-117500437D01*
X175180588Y-117538278D01*
X175301221Y-117588246D01*
X175522870Y-117647636D01*
X175750374Y-117677588D01*
X175750381Y-117677588D01*
X175979835Y-117677588D01*
X175979842Y-117677588D01*
X176207346Y-117647636D01*
X176428995Y-117588246D01*
X176640996Y-117500432D01*
X176839720Y-117385699D01*
X177021769Y-117246007D01*
X177021773Y-117246002D01*
X177021778Y-117245999D01*
X177184019Y-117083758D01*
X177184022Y-117083753D01*
X177184027Y-117083749D01*
X177323719Y-116901700D01*
X177438452Y-116702976D01*
X177526266Y-116490975D01*
X177585656Y-116269326D01*
X177615608Y-116041822D01*
X177615608Y-115812354D01*
X177585656Y-115584850D01*
X177526266Y-115363201D01*
X177438452Y-115151200D01*
X177323719Y-114952476D01*
X177323716Y-114952473D01*
X177323715Y-114952470D01*
X177184026Y-114770426D01*
X177184019Y-114770418D01*
X177021778Y-114608177D01*
X177021769Y-114608169D01*
X176839725Y-114468480D01*
X176640998Y-114353745D01*
X176640984Y-114353738D01*
X176428995Y-114265930D01*
X176207346Y-114206540D01*
X176169323Y-114201534D01*
X175979849Y-114176588D01*
X175979842Y-114176588D01*
X175750374Y-114176588D01*
X175750366Y-114176588D01*
X175533823Y-114205097D01*
X175522870Y-114206540D01*
X175429184Y-114231642D01*
X175301220Y-114265930D01*
X175089231Y-114353738D01*
X175089217Y-114353745D01*
X174890490Y-114468480D01*
X174708446Y-114608169D01*
X174546189Y-114770426D01*
X174406500Y-114952470D01*
X174291765Y-115151197D01*
X174291758Y-115151211D01*
X174203950Y-115363200D01*
X174144561Y-115584847D01*
X174144559Y-115584858D01*
X174114608Y-115812346D01*
X170115608Y-115812346D01*
X170115608Y-101809574D01*
X171074608Y-101809574D01*
X171074608Y-102104601D01*
X171089886Y-102220643D01*
X171113115Y-102397081D01*
X171166875Y-102597716D01*
X171189469Y-102682039D01*
X171189472Y-102682049D01*
X171302362Y-102954588D01*
X171302366Y-102954598D01*
X171449869Y-103210081D01*
X171629460Y-103444128D01*
X171629466Y-103444135D01*
X171838060Y-103652729D01*
X171838067Y-103652735D01*
X172072114Y-103832326D01*
X172327597Y-103979829D01*
X172327598Y-103979829D01*
X172327601Y-103979831D01*
X172600156Y-104092727D01*
X172885115Y-104169081D01*
X173177602Y-104207588D01*
X173177609Y-104207588D01*
X173472607Y-104207588D01*
X173472614Y-104207588D01*
X173765101Y-104169081D01*
X174050060Y-104092727D01*
X174322615Y-103979831D01*
X174578102Y-103832326D01*
X174812150Y-103652734D01*
X175020754Y-103444130D01*
X175200346Y-103210082D01*
X175347851Y-102954595D01*
X175460747Y-102682040D01*
X175537101Y-102397081D01*
X175575608Y-102104594D01*
X175575608Y-101809582D01*
X175537101Y-101517095D01*
X175460747Y-101232136D01*
X175347851Y-100959581D01*
X175321561Y-100914046D01*
X175200346Y-100704094D01*
X175020755Y-100470047D01*
X175020749Y-100470040D01*
X174812155Y-100261446D01*
X174812148Y-100261440D01*
X174578101Y-100081849D01*
X174322618Y-99934346D01*
X174322608Y-99934342D01*
X174050069Y-99821452D01*
X174050062Y-99821450D01*
X174050060Y-99821449D01*
X173765101Y-99745095D01*
X173716221Y-99738659D01*
X173472621Y-99706588D01*
X173472614Y-99706588D01*
X173177602Y-99706588D01*
X173177594Y-99706588D01*
X172899193Y-99743241D01*
X172885115Y-99745095D01*
X172600156Y-99821449D01*
X172600146Y-99821452D01*
X172327607Y-99934342D01*
X172327597Y-99934346D01*
X172072114Y-100081849D01*
X171838067Y-100261440D01*
X171838060Y-100261446D01*
X171629466Y-100470040D01*
X171629460Y-100470047D01*
X171449869Y-100704094D01*
X171302366Y-100959577D01*
X171302362Y-100959587D01*
X171189472Y-101232126D01*
X171189469Y-101232136D01*
X171134229Y-101438298D01*
X171113116Y-101517092D01*
X171113114Y-101517103D01*
X171074608Y-101809574D01*
X170115608Y-101809574D01*
X170115608Y-101145934D01*
X170135293Y-101078895D01*
X170188097Y-101033140D01*
X170192156Y-101031373D01*
X170290984Y-100990437D01*
X170290984Y-100990436D01*
X170290996Y-100990432D01*
X170489720Y-100875699D01*
X170671769Y-100736007D01*
X170671773Y-100736002D01*
X170671778Y-100735999D01*
X170834019Y-100573758D01*
X170834022Y-100573753D01*
X170834027Y-100573749D01*
X170973719Y-100391700D01*
X171088452Y-100192976D01*
X171176266Y-99980975D01*
X171235656Y-99759326D01*
X171265608Y-99531822D01*
X171265608Y-99302354D01*
X171235656Y-99074850D01*
X171176266Y-98853201D01*
X171088452Y-98641200D01*
X170973719Y-98442476D01*
X170973716Y-98442473D01*
X170973715Y-98442470D01*
X170834026Y-98260426D01*
X170834019Y-98260418D01*
X170671778Y-98098177D01*
X170671769Y-98098169D01*
X170489725Y-97958480D01*
X170291006Y-97843749D01*
X170291001Y-97843747D01*
X170290996Y-97843744D01*
X170192153Y-97802801D01*
X170137751Y-97758960D01*
X170115687Y-97692665D01*
X170115608Y-97688241D01*
X170115608Y-96762346D01*
X174114608Y-96762346D01*
X174114608Y-96991829D01*
X174134650Y-97144051D01*
X174144560Y-97219326D01*
X174190553Y-97390977D01*
X174203950Y-97440975D01*
X174291758Y-97652964D01*
X174291765Y-97652978D01*
X174406500Y-97851705D01*
X174546189Y-98033749D01*
X174546197Y-98033758D01*
X174708438Y-98195999D01*
X174708446Y-98196006D01*
X174890490Y-98335695D01*
X174890493Y-98335696D01*
X174890496Y-98335699D01*
X175089220Y-98450432D01*
X175089225Y-98450434D01*
X175089231Y-98450437D01*
X175180588Y-98488278D01*
X175301221Y-98538246D01*
X175522870Y-98597636D01*
X175750374Y-98627588D01*
X175750381Y-98627588D01*
X175979835Y-98627588D01*
X175979842Y-98627588D01*
X176207346Y-98597636D01*
X176428995Y-98538246D01*
X176640996Y-98450432D01*
X176839720Y-98335699D01*
X177021769Y-98196007D01*
X177021773Y-98196002D01*
X177021778Y-98195999D01*
X177184019Y-98033758D01*
X177184022Y-98033753D01*
X177184027Y-98033749D01*
X177323719Y-97851700D01*
X177438452Y-97652976D01*
X177526266Y-97440975D01*
X177585656Y-97219326D01*
X177615608Y-96991822D01*
X177615608Y-96762354D01*
X177585656Y-96534850D01*
X177526266Y-96313201D01*
X177450391Y-96130023D01*
X177438457Y-96101211D01*
X177438454Y-96101205D01*
X177438452Y-96101200D01*
X177323719Y-95902476D01*
X177323716Y-95902473D01*
X177323715Y-95902470D01*
X177200113Y-95741391D01*
X177184027Y-95720427D01*
X177184023Y-95720423D01*
X177184019Y-95720418D01*
X177021778Y-95558177D01*
X177021769Y-95558169D01*
X176839725Y-95418480D01*
X176810581Y-95401654D01*
X176640996Y-95303744D01*
X176640984Y-95303738D01*
X176428995Y-95215930D01*
X176420116Y-95213551D01*
X176207346Y-95156540D01*
X176169323Y-95151534D01*
X175979849Y-95126588D01*
X175979842Y-95126588D01*
X175750374Y-95126588D01*
X175750366Y-95126588D01*
X175533823Y-95155097D01*
X175522870Y-95156540D01*
X175429184Y-95181642D01*
X175301220Y-95215930D01*
X175089231Y-95303738D01*
X175089217Y-95303745D01*
X174890490Y-95418480D01*
X174708446Y-95558169D01*
X174546189Y-95720426D01*
X174406500Y-95902470D01*
X174291765Y-96101197D01*
X174291758Y-96101211D01*
X174203950Y-96313200D01*
X174203950Y-96313201D01*
X174148386Y-96520573D01*
X174144561Y-96534847D01*
X174144559Y-96534858D01*
X174114608Y-96762346D01*
X170115608Y-96762346D01*
X170115608Y-94855533D01*
X170115608Y-94855531D01*
X170074685Y-94702804D01*
X170074685Y-94702803D01*
X170033295Y-94631114D01*
X169995628Y-94565872D01*
X169883824Y-94454068D01*
X169883823Y-94454067D01*
X169879493Y-94449737D01*
X169879482Y-94449727D01*
X169868948Y-94439193D01*
X169868946Y-94439190D01*
X169750075Y-94320319D01*
X169750070Y-94320315D01*
X169624136Y-94247608D01*
X169624135Y-94247607D01*
X169613145Y-94241261D01*
X169552051Y-94224891D01*
X169460415Y-94200337D01*
X169302301Y-94200337D01*
X169294705Y-94200337D01*
X169294689Y-94200338D01*
X162188299Y-94200338D01*
X162121260Y-94180653D01*
X162075505Y-94127849D01*
X162065561Y-94058691D01*
X162094586Y-93995135D01*
X162100618Y-93988657D01*
X162153144Y-93936130D01*
X162153147Y-93936127D01*
X162240752Y-93805017D01*
X162301095Y-93659335D01*
X162331858Y-93504680D01*
X162331858Y-93346996D01*
X162331858Y-93346993D01*
X162331857Y-93346991D01*
X162321427Y-93294555D01*
X162301095Y-93192341D01*
X162286715Y-93157624D01*
X162240755Y-93046665D01*
X162240748Y-93046652D01*
X162153147Y-92915549D01*
X162153144Y-92915545D01*
X162041650Y-92804051D01*
X162041646Y-92804048D01*
X161910543Y-92716447D01*
X161910530Y-92716440D01*
X161764859Y-92656102D01*
X161764847Y-92656099D01*
X161610203Y-92625338D01*
X161610200Y-92625338D01*
X161452516Y-92625338D01*
X161452513Y-92625338D01*
X161297868Y-92656099D01*
X161297856Y-92656102D01*
X161152185Y-92716440D01*
X161152172Y-92716447D01*
X161021069Y-92804048D01*
X161021065Y-92804051D01*
X160986100Y-92839018D01*
X160924778Y-92872504D01*
X160898418Y-92875338D01*
X160511124Y-92875338D01*
X160444085Y-92855653D01*
X160442233Y-92854440D01*
X160310543Y-92766447D01*
X160310530Y-92766440D01*
X160164859Y-92706102D01*
X160164847Y-92706099D01*
X160010203Y-92675338D01*
X160010200Y-92675338D01*
X159852516Y-92675338D01*
X159852513Y-92675338D01*
X159697868Y-92706099D01*
X159697856Y-92706102D01*
X159552185Y-92766440D01*
X159552172Y-92766447D01*
X159421069Y-92854048D01*
X159421065Y-92854051D01*
X159309571Y-92965545D01*
X159309568Y-92965549D01*
X159237594Y-93073266D01*
X159183982Y-93118071D01*
X159114657Y-93126778D01*
X159051629Y-93096623D01*
X159046811Y-93092056D01*
X157793177Y-91838422D01*
X157759692Y-91777099D01*
X157756858Y-91750741D01*
X157756858Y-88355603D01*
X157776543Y-88288564D01*
X157777756Y-88286712D01*
X157865748Y-88155023D01*
X157865748Y-88155022D01*
X157865752Y-88155017D01*
X157926095Y-88009335D01*
X157956858Y-87854680D01*
X157956858Y-87696996D01*
X157956858Y-87696993D01*
X157956857Y-87696991D01*
X157939080Y-87607623D01*
X157926095Y-87542341D01*
X157896174Y-87470104D01*
X157865755Y-87396665D01*
X157865748Y-87396652D01*
X157778147Y-87265549D01*
X157778144Y-87265545D01*
X157666650Y-87154051D01*
X157666646Y-87154048D01*
X157535543Y-87066447D01*
X157535530Y-87066440D01*
X157389859Y-87006102D01*
X157389847Y-87006099D01*
X157235203Y-86975338D01*
X157235200Y-86975338D01*
X157229204Y-86975338D01*
X157162165Y-86955653D01*
X157116410Y-86902849D01*
X157106466Y-86833691D01*
X157135491Y-86770135D01*
X157141523Y-86763657D01*
X157438065Y-86467115D01*
X169324608Y-86467115D01*
X169324608Y-86703310D01*
X169361554Y-86936581D01*
X169434541Y-87161209D01*
X169503617Y-87296777D01*
X169541765Y-87371646D01*
X169680591Y-87562723D01*
X169847598Y-87729730D01*
X170038675Y-87868556D01*
X170089032Y-87894214D01*
X170249111Y-87975779D01*
X170249113Y-87975779D01*
X170249116Y-87975781D01*
X170352360Y-88009327D01*
X170473739Y-88048766D01*
X170707011Y-88085713D01*
X170707016Y-88085713D01*
X170943205Y-88085713D01*
X171176476Y-88048766D01*
X171177978Y-88048278D01*
X171401100Y-87975781D01*
X171611541Y-87868556D01*
X171802618Y-87729730D01*
X171969625Y-87562723D01*
X172014375Y-87501128D01*
X172018788Y-87496244D01*
X172043167Y-87481276D01*
X172065819Y-87463809D01*
X172073451Y-87462683D01*
X172078331Y-87459688D01*
X172091878Y-87459966D01*
X172097651Y-87459115D01*
X172842145Y-86714621D01*
X172859183Y-86778206D01*
X172925009Y-86892220D01*
X173018101Y-86985312D01*
X173132115Y-87051138D01*
X173195698Y-87068175D01*
X172456001Y-87807871D01*
X172538936Y-87868127D01*
X172749305Y-87975315D01*
X172973860Y-88048278D01*
X172973859Y-88048278D01*
X173207056Y-88085213D01*
X173443160Y-88085213D01*
X173676355Y-88048278D01*
X173900910Y-87975315D01*
X174111271Y-87868131D01*
X174111277Y-87868127D01*
X174194212Y-87807871D01*
X174194213Y-87807871D01*
X173454516Y-87068175D01*
X173518101Y-87051138D01*
X173632115Y-86985312D01*
X173725207Y-86892220D01*
X173791033Y-86778206D01*
X173808070Y-86714622D01*
X174554378Y-87460930D01*
X174598051Y-87470104D01*
X174639722Y-87506472D01*
X174680591Y-87562723D01*
X174847598Y-87729730D01*
X175038675Y-87868556D01*
X175089032Y-87894214D01*
X175249111Y-87975779D01*
X175249113Y-87975779D01*
X175249116Y-87975781D01*
X175352360Y-88009327D01*
X175473739Y-88048766D01*
X175707011Y-88085713D01*
X175707016Y-88085713D01*
X175943205Y-88085713D01*
X176176476Y-88048766D01*
X176177978Y-88048278D01*
X176401100Y-87975781D01*
X176611541Y-87868556D01*
X176802618Y-87729730D01*
X176969625Y-87562723D01*
X177108451Y-87371646D01*
X177215676Y-87161205D01*
X177288661Y-86936581D01*
X177304957Y-86833691D01*
X177325608Y-86703310D01*
X177325608Y-86467115D01*
X177288661Y-86233844D01*
X177215674Y-86009216D01*
X177108450Y-85798779D01*
X177044899Y-85711309D01*
X176969625Y-85607703D01*
X176802618Y-85440696D01*
X176611541Y-85301870D01*
X176401104Y-85194646D01*
X176176476Y-85121659D01*
X175943205Y-85084713D01*
X175943200Y-85084713D01*
X175707016Y-85084713D01*
X175707011Y-85084713D01*
X175473739Y-85121659D01*
X175249111Y-85194646D01*
X175038674Y-85301870D01*
X175020922Y-85314768D01*
X174847598Y-85440696D01*
X174847596Y-85440698D01*
X174847595Y-85440698D01*
X174680590Y-85607703D01*
X174639723Y-85663952D01*
X174584393Y-85706617D01*
X174552563Y-85711309D01*
X173808070Y-86455803D01*
X173791033Y-86392220D01*
X173725207Y-86278206D01*
X173632115Y-86185114D01*
X173518101Y-86119288D01*
X173454517Y-86102250D01*
X174194213Y-85362553D01*
X174194212Y-85362551D01*
X174111282Y-85302300D01*
X173900910Y-85195110D01*
X173676355Y-85122147D01*
X173676356Y-85122147D01*
X173443160Y-85085213D01*
X173207056Y-85085213D01*
X172973860Y-85122147D01*
X172749305Y-85195110D01*
X172538938Y-85302297D01*
X172456002Y-85362553D01*
X173195699Y-86102250D01*
X173132115Y-86119288D01*
X173018101Y-86185114D01*
X172925009Y-86278206D01*
X172859183Y-86392220D01*
X172842145Y-86455803D01*
X172095835Y-85709493D01*
X172052160Y-85700318D01*
X172018788Y-85674181D01*
X172014372Y-85669292D01*
X171969625Y-85607703D01*
X171802618Y-85440696D01*
X171611541Y-85301870D01*
X171401104Y-85194646D01*
X171176476Y-85121659D01*
X170943205Y-85084713D01*
X170943200Y-85084713D01*
X170707016Y-85084713D01*
X170707011Y-85084713D01*
X170473739Y-85121659D01*
X170249111Y-85194646D01*
X170038674Y-85301870D01*
X170020922Y-85314768D01*
X169847598Y-85440696D01*
X169847596Y-85440698D01*
X169847595Y-85440698D01*
X169680593Y-85607700D01*
X169680593Y-85607701D01*
X169680591Y-85607703D01*
X169639724Y-85663952D01*
X169541765Y-85798779D01*
X169434541Y-86009216D01*
X169361554Y-86233844D01*
X169324608Y-86467115D01*
X157438065Y-86467115D01*
X157530612Y-86374568D01*
X158106401Y-85798780D01*
X159170649Y-84734532D01*
X159231972Y-84701047D01*
X159258330Y-84698213D01*
X177507842Y-84698213D01*
X177574881Y-84717898D01*
X177576733Y-84719111D01*
X177708422Y-84807103D01*
X177708435Y-84807110D01*
X177783084Y-84838030D01*
X177854111Y-84867450D01*
X178008761Y-84898212D01*
X178008764Y-84898213D01*
X178008766Y-84898213D01*
X178166452Y-84898213D01*
X178166453Y-84898212D01*
X178321105Y-84867450D01*
X178466787Y-84807107D01*
X178597897Y-84719502D01*
X178709397Y-84608002D01*
X178797002Y-84476892D01*
X178857345Y-84331210D01*
X178888108Y-84176555D01*
X178888108Y-84131185D01*
X178907793Y-84064146D01*
X178960597Y-84018391D01*
X179029755Y-84008447D01*
X179093311Y-84037472D01*
X179099789Y-84043504D01*
X179294539Y-84238254D01*
X179328024Y-84299577D01*
X179330858Y-84325935D01*
X179330858Y-100995127D01*
X179311173Y-101062166D01*
X179258369Y-101107921D01*
X179189211Y-101117865D01*
X179133973Y-101095445D01*
X178994998Y-100994474D01*
X178987061Y-100990430D01*
X178837150Y-100914045D01*
X178837147Y-100914044D01*
X178668664Y-100859302D01*
X178581175Y-100845445D01*
X178493687Y-100831588D01*
X178316529Y-100831588D01*
X178258203Y-100840826D01*
X178141551Y-100859302D01*
X177973068Y-100914044D01*
X177973065Y-100914045D01*
X177815217Y-100994474D01*
X177733446Y-101053884D01*
X177671894Y-101098605D01*
X177671892Y-101098607D01*
X177671891Y-101098607D01*
X177546627Y-101223871D01*
X177546627Y-101223872D01*
X177546625Y-101223874D01*
X177501904Y-101285426D01*
X177442494Y-101367197D01*
X177362065Y-101525045D01*
X177362064Y-101525048D01*
X177307322Y-101693531D01*
X177279608Y-101868509D01*
X177279608Y-102045666D01*
X177307322Y-102220644D01*
X177362064Y-102389127D01*
X177362065Y-102389130D01*
X177430027Y-102522510D01*
X177442494Y-102546978D01*
X177546625Y-102690302D01*
X177671894Y-102815571D01*
X177815218Y-102919702D01*
X177860509Y-102942779D01*
X177973065Y-103000130D01*
X177973068Y-103000131D01*
X178057309Y-103027502D01*
X178141553Y-103054874D01*
X178316529Y-103082588D01*
X178316530Y-103082588D01*
X178493686Y-103082588D01*
X178493687Y-103082588D01*
X178668663Y-103054874D01*
X178837150Y-103000130D01*
X178994998Y-102919702D01*
X179133975Y-102818728D01*
X179199778Y-102795250D01*
X179267832Y-102811075D01*
X179316527Y-102861181D01*
X179330858Y-102919048D01*
X179330858Y-120045127D01*
X179311173Y-120112166D01*
X179258369Y-120157921D01*
X179189211Y-120167865D01*
X179133973Y-120145445D01*
X178994998Y-120044474D01*
X178987061Y-120040430D01*
X178837150Y-119964045D01*
X178837147Y-119964044D01*
X178668664Y-119909302D01*
X178581175Y-119895445D01*
X178493687Y-119881588D01*
X178316529Y-119881588D01*
X178258203Y-119890826D01*
X178141551Y-119909302D01*
X177973068Y-119964044D01*
X177973065Y-119964045D01*
X177815217Y-120044474D01*
X177733446Y-120103884D01*
X177671894Y-120148605D01*
X177671892Y-120148607D01*
X177671891Y-120148607D01*
X177546627Y-120273871D01*
X177546627Y-120273872D01*
X177546625Y-120273874D01*
X177506631Y-120328921D01*
X177442494Y-120417197D01*
X177362065Y-120575045D01*
X177362064Y-120575048D01*
X177307322Y-120743531D01*
X177279608Y-120918509D01*
X177279608Y-121095666D01*
X177307322Y-121270644D01*
X177362064Y-121439127D01*
X177362065Y-121439130D01*
X177430027Y-121572510D01*
X177442494Y-121596978D01*
X177546625Y-121740302D01*
X177671894Y-121865571D01*
X177815218Y-121969702D01*
X177883685Y-122004588D01*
X177973065Y-122050130D01*
X177973068Y-122050131D01*
X178057309Y-122077502D01*
X178141553Y-122104874D01*
X178316529Y-122132588D01*
X178316530Y-122132588D01*
X178493686Y-122132588D01*
X178493687Y-122132588D01*
X178668663Y-122104874D01*
X178837150Y-122050130D01*
X178994998Y-121969702D01*
X179133975Y-121868728D01*
X179199778Y-121845250D01*
X179267832Y-121861075D01*
X179316527Y-121911181D01*
X179330858Y-121969048D01*
X179330858Y-125271072D01*
X179311173Y-125338111D01*
X179309960Y-125339963D01*
X179221967Y-125471652D01*
X179221960Y-125471665D01*
X179161622Y-125617336D01*
X179161619Y-125617348D01*
X179130858Y-125771991D01*
X179130858Y-125929684D01*
X179161619Y-126084327D01*
X179161622Y-126084339D01*
X179221960Y-126230010D01*
X179221967Y-126230023D01*
X179309568Y-126361126D01*
X179309571Y-126361130D01*
X179421065Y-126472624D01*
X179421069Y-126472627D01*
X179552172Y-126560228D01*
X179552185Y-126560235D01*
X179697856Y-126620573D01*
X179697861Y-126620575D01*
X179818376Y-126644547D01*
X179852511Y-126651337D01*
X179852514Y-126651338D01*
X179852516Y-126651338D01*
X180010202Y-126651338D01*
X180010203Y-126651337D01*
X180164855Y-126620575D01*
X180310537Y-126560232D01*
X180441647Y-126472627D01*
X180553147Y-126361127D01*
X180640752Y-126230017D01*
X180701095Y-126084335D01*
X180731858Y-125929680D01*
X180731858Y-125771996D01*
X180731858Y-125771993D01*
X180731857Y-125771991D01*
X180701096Y-125617348D01*
X180701095Y-125617341D01*
X180664785Y-125529680D01*
X180640755Y-125471665D01*
X180640748Y-125471652D01*
X180552756Y-125339963D01*
X180531878Y-125273285D01*
X180531858Y-125271072D01*
X180531858Y-84114897D01*
X180531859Y-84114884D01*
X180531859Y-83946783D01*
X180531859Y-83946781D01*
X180490935Y-83794053D01*
X180467137Y-83752836D01*
X180453399Y-83729039D01*
X180453398Y-83729038D01*
X180411879Y-83657124D01*
X180411878Y-83657122D01*
X180300074Y-83545318D01*
X180300073Y-83545317D01*
X180295743Y-83540987D01*
X180295732Y-83540977D01*
X178793948Y-82039193D01*
X178793946Y-82039190D01*
X178675075Y-81920319D01*
X178675074Y-81920318D01*
X178588262Y-81870198D01*
X178588262Y-81870197D01*
X178588258Y-81870196D01*
X178538143Y-81841261D01*
X178385415Y-81800337D01*
X178227301Y-81800337D01*
X178219705Y-81800337D01*
X178219689Y-81800338D01*
X159962278Y-81800338D01*
X159895239Y-81780653D01*
X159849484Y-81727849D01*
X159838278Y-81676338D01*
X159838278Y-81637659D01*
X159838277Y-81637657D01*
X159807515Y-81483007D01*
X159767215Y-81385713D01*
X159747175Y-81337331D01*
X159747168Y-81337318D01*
X159659176Y-81205629D01*
X159638298Y-81138951D01*
X159638278Y-81136738D01*
X159638278Y-77237348D01*
X165724608Y-77237348D01*
X165724608Y-80933083D01*
X165724609Y-80933089D01*
X165731016Y-80992696D01*
X165781310Y-81127541D01*
X165781314Y-81127548D01*
X165867560Y-81242757D01*
X165867563Y-81242760D01*
X165982772Y-81329006D01*
X165982779Y-81329010D01*
X166117625Y-81379304D01*
X166117624Y-81379304D01*
X166124552Y-81380048D01*
X166177235Y-81385713D01*
X169072980Y-81385712D01*
X169132591Y-81379304D01*
X169267439Y-81329009D01*
X169382654Y-81242759D01*
X169468904Y-81127544D01*
X169519199Y-80992696D01*
X169525608Y-80933086D01*
X169525607Y-77237348D01*
X177124608Y-77237348D01*
X177124608Y-80933083D01*
X177124609Y-80933089D01*
X177131016Y-80992696D01*
X177181310Y-81127541D01*
X177181314Y-81127548D01*
X177267560Y-81242757D01*
X177267563Y-81242760D01*
X177382772Y-81329006D01*
X177382779Y-81329010D01*
X177517625Y-81379304D01*
X177517624Y-81379304D01*
X177524552Y-81380048D01*
X177577235Y-81385713D01*
X180472980Y-81385712D01*
X180532591Y-81379304D01*
X180667439Y-81329009D01*
X180782654Y-81242759D01*
X180868904Y-81127544D01*
X180919199Y-80992696D01*
X180925608Y-80933086D01*
X180925607Y-77237341D01*
X180919199Y-77177730D01*
X180913530Y-77162531D01*
X180868905Y-77042884D01*
X180868901Y-77042877D01*
X180782655Y-76927668D01*
X180782652Y-76927665D01*
X180667443Y-76841419D01*
X180667436Y-76841415D01*
X180532590Y-76791121D01*
X180532591Y-76791121D01*
X180472991Y-76784714D01*
X180472989Y-76784713D01*
X180472981Y-76784713D01*
X180472972Y-76784713D01*
X177577237Y-76784713D01*
X177577231Y-76784714D01*
X177517624Y-76791121D01*
X177382779Y-76841415D01*
X177382772Y-76841419D01*
X177267563Y-76927665D01*
X177267560Y-76927668D01*
X177181314Y-77042877D01*
X177181310Y-77042884D01*
X177131016Y-77177730D01*
X177124609Y-77237329D01*
X177124609Y-77237336D01*
X177124608Y-77237348D01*
X169525607Y-77237348D01*
X169525607Y-77237341D01*
X169519199Y-77177730D01*
X169513530Y-77162531D01*
X169468905Y-77042884D01*
X169468901Y-77042877D01*
X169382655Y-76927668D01*
X169382652Y-76927665D01*
X169267443Y-76841419D01*
X169267436Y-76841415D01*
X169132590Y-76791121D01*
X169132591Y-76791121D01*
X169072991Y-76784714D01*
X169072989Y-76784713D01*
X169072981Y-76784713D01*
X169072972Y-76784713D01*
X166177237Y-76784713D01*
X166177231Y-76784714D01*
X166117624Y-76791121D01*
X165982779Y-76841415D01*
X165982772Y-76841419D01*
X165867563Y-76927665D01*
X165867560Y-76927668D01*
X165781314Y-77042877D01*
X165781310Y-77042884D01*
X165731016Y-77177730D01*
X165724609Y-77237329D01*
X165724609Y-77237336D01*
X165724608Y-77237348D01*
X159638278Y-77237348D01*
X159638278Y-73898380D01*
X159638278Y-73898378D01*
X159597355Y-73745651D01*
X159597355Y-73745650D01*
X159597355Y-73745649D01*
X159568417Y-73695530D01*
X159568415Y-73695527D01*
X159518298Y-73608719D01*
X159406494Y-73496915D01*
X159406493Y-73496914D01*
X159402163Y-73492584D01*
X159402152Y-73492574D01*
X158086413Y-72176835D01*
X158065770Y-72139031D01*
X158059546Y-72131848D01*
X158056213Y-72121528D01*
X158052928Y-72115512D01*
X158052477Y-72113348D01*
X158050723Y-72104531D01*
X158050723Y-72104528D01*
X158046880Y-72085209D01*
X161259156Y-72085209D01*
X161259156Y-72297782D01*
X161281139Y-72436581D01*
X161292410Y-72507739D01*
X161355459Y-72701784D01*
X161358100Y-72709910D01*
X161454607Y-72899316D01*
X161579546Y-73071282D01*
X161729869Y-73221605D01*
X161901835Y-73346544D01*
X161901837Y-73346545D01*
X161901840Y-73346547D01*
X162091244Y-73443053D01*
X162293413Y-73508742D01*
X162503369Y-73541996D01*
X162503370Y-73541996D01*
X162715942Y-73541996D01*
X162715943Y-73541996D01*
X162925899Y-73508742D01*
X163128068Y-73443053D01*
X163317472Y-73346547D01*
X163339445Y-73330582D01*
X163489442Y-73221605D01*
X163489444Y-73221602D01*
X163489448Y-73221600D01*
X163639760Y-73071288D01*
X163639762Y-73071284D01*
X163639765Y-73071282D01*
X163763558Y-72900893D01*
X163764707Y-72899312D01*
X163861213Y-72709908D01*
X163926902Y-72507739D01*
X163960156Y-72297783D01*
X163960156Y-72085209D01*
X163941459Y-71967160D01*
X169325108Y-71967160D01*
X169325108Y-72203265D01*
X169362042Y-72436460D01*
X169435005Y-72661015D01*
X169542195Y-72871387D01*
X169602446Y-72954317D01*
X169602448Y-72954318D01*
X170342145Y-72214621D01*
X170359183Y-72278206D01*
X170425009Y-72392220D01*
X170518101Y-72485312D01*
X170632115Y-72551138D01*
X170695698Y-72568175D01*
X169956001Y-73307871D01*
X170038936Y-73368127D01*
X170249305Y-73475315D01*
X170473860Y-73548278D01*
X170473859Y-73548278D01*
X170707056Y-73585213D01*
X170943160Y-73585213D01*
X171176355Y-73548278D01*
X171400910Y-73475315D01*
X171611271Y-73368131D01*
X171611277Y-73368127D01*
X171694212Y-73307871D01*
X171694213Y-73307871D01*
X170954516Y-72568175D01*
X171018101Y-72551138D01*
X171132115Y-72485312D01*
X171225207Y-72392220D01*
X171291033Y-72278206D01*
X171308070Y-72214622D01*
X172047766Y-72954318D01*
X172047766Y-72954317D01*
X172108022Y-72871382D01*
X172108026Y-72871376D01*
X172215210Y-72661015D01*
X172288173Y-72436460D01*
X172325108Y-72203265D01*
X172325108Y-71967160D01*
X172325101Y-71967115D01*
X174324608Y-71967115D01*
X174324608Y-72203310D01*
X174361554Y-72436581D01*
X174434541Y-72661209D01*
X174541627Y-72871376D01*
X174541765Y-72871646D01*
X174680591Y-73062723D01*
X174847598Y-73229730D01*
X175038675Y-73368556D01*
X175138099Y-73419215D01*
X175249111Y-73475779D01*
X175249113Y-73475779D01*
X175249116Y-73475781D01*
X175314160Y-73496915D01*
X175473739Y-73548766D01*
X175707011Y-73585713D01*
X175707016Y-73585713D01*
X175943205Y-73585713D01*
X176176476Y-73548766D01*
X176197312Y-73541996D01*
X176401100Y-73475781D01*
X176611541Y-73368556D01*
X176802618Y-73229730D01*
X176969625Y-73062723D01*
X177108451Y-72871646D01*
X177215676Y-72661205D01*
X177288661Y-72436581D01*
X177295687Y-72392220D01*
X177325608Y-72203310D01*
X177325608Y-71967115D01*
X177288661Y-71733844D01*
X177215674Y-71509216D01*
X177155437Y-71390996D01*
X177108451Y-71298780D01*
X176969625Y-71107703D01*
X176802618Y-70940696D01*
X176611541Y-70801870D01*
X176401104Y-70694646D01*
X176176476Y-70621659D01*
X175943205Y-70584713D01*
X175943200Y-70584713D01*
X175707016Y-70584713D01*
X175707011Y-70584713D01*
X175473739Y-70621659D01*
X175249111Y-70694646D01*
X175038674Y-70801870D01*
X174955155Y-70862551D01*
X174847598Y-70940696D01*
X174847596Y-70940698D01*
X174847595Y-70940698D01*
X174680593Y-71107700D01*
X174680593Y-71107701D01*
X174680591Y-71107703D01*
X174641588Y-71161386D01*
X174541765Y-71298779D01*
X174434541Y-71509216D01*
X174361554Y-71733844D01*
X174324608Y-71967115D01*
X172325101Y-71967115D01*
X172288173Y-71733965D01*
X172215210Y-71509410D01*
X172108022Y-71299041D01*
X172047766Y-71216107D01*
X172047766Y-71216106D01*
X171308070Y-71955803D01*
X171291033Y-71892220D01*
X171225207Y-71778206D01*
X171132115Y-71685114D01*
X171018101Y-71619288D01*
X170954517Y-71602250D01*
X171694213Y-70862553D01*
X171694212Y-70862551D01*
X171611282Y-70802300D01*
X171400910Y-70695110D01*
X171176355Y-70622147D01*
X171176356Y-70622147D01*
X170943160Y-70585213D01*
X170707056Y-70585213D01*
X170473860Y-70622147D01*
X170249305Y-70695110D01*
X170038938Y-70802297D01*
X169956002Y-70862553D01*
X170695699Y-71602250D01*
X170632115Y-71619288D01*
X170518101Y-71685114D01*
X170425009Y-71778206D01*
X170359183Y-71892220D01*
X170342145Y-71955804D01*
X169602448Y-71216107D01*
X169542192Y-71299043D01*
X169435005Y-71509410D01*
X169362042Y-71733965D01*
X169325108Y-71967160D01*
X163941459Y-71967160D01*
X163936275Y-71934433D01*
X163926903Y-71875257D01*
X163926902Y-71875256D01*
X163926902Y-71875253D01*
X163861213Y-71673084D01*
X163764707Y-71483680D01*
X163764705Y-71483677D01*
X163764704Y-71483675D01*
X163639765Y-71311709D01*
X163489442Y-71161386D01*
X163317471Y-71036444D01*
X163317470Y-71036443D01*
X163285783Y-71020297D01*
X163285780Y-71020297D01*
X163128070Y-70939940D01*
X163128069Y-70939939D01*
X163128068Y-70939939D01*
X162925899Y-70874250D01*
X162925897Y-70874249D01*
X162925896Y-70874249D01*
X162764613Y-70848704D01*
X162715943Y-70840996D01*
X162503369Y-70840996D01*
X162454698Y-70848704D01*
X162293416Y-70874249D01*
X162091241Y-70939940D01*
X161901835Y-71036447D01*
X161729869Y-71161386D01*
X161579546Y-71311709D01*
X161454607Y-71483675D01*
X161358100Y-71673081D01*
X161292409Y-71875256D01*
X161259156Y-72085209D01*
X158046880Y-72085209D01*
X158033787Y-72019387D01*
X158021576Y-71957999D01*
X157994330Y-71892220D01*
X157961236Y-71812323D01*
X157961229Y-71812310D01*
X157873628Y-71681207D01*
X157873625Y-71681203D01*
X157762131Y-71569709D01*
X157762127Y-71569706D01*
X157631024Y-71482105D01*
X157631011Y-71482098D01*
X157485340Y-71421760D01*
X157485328Y-71421757D01*
X157330684Y-71390996D01*
X157330681Y-71390996D01*
X157172997Y-71390996D01*
X157172994Y-71390996D01*
X157018349Y-71421757D01*
X157018337Y-71421760D01*
X156872666Y-71482098D01*
X156872653Y-71482105D01*
X156741550Y-71569706D01*
X156741546Y-71569709D01*
X156630052Y-71681203D01*
X156630049Y-71681207D01*
X156542448Y-71812310D01*
X156542441Y-71812323D01*
X156482103Y-71957994D01*
X156482100Y-71958006D01*
X156451339Y-72112649D01*
X156451339Y-72270342D01*
X156482100Y-72424985D01*
X156482103Y-72424997D01*
X156542441Y-72570668D01*
X156542448Y-72570681D01*
X156630049Y-72701784D01*
X156630052Y-72701788D01*
X156741546Y-72813282D01*
X156741550Y-72813285D01*
X156872653Y-72900886D01*
X156872666Y-72900893D01*
X157018337Y-72961231D01*
X157018342Y-72961233D01*
X157082986Y-72974091D01*
X157173688Y-72992134D01*
X157235599Y-73024519D01*
X157237178Y-73026070D01*
X158400959Y-74189851D01*
X158434444Y-74251174D01*
X158437278Y-74277532D01*
X158437278Y-81136738D01*
X158417593Y-81203777D01*
X158416380Y-81205629D01*
X158328387Y-81337318D01*
X158328380Y-81337331D01*
X158268042Y-81483002D01*
X158268039Y-81483014D01*
X158237278Y-81637657D01*
X158237278Y-81676338D01*
X158217593Y-81743377D01*
X158164789Y-81789132D01*
X158113278Y-81800338D01*
X157893027Y-81800338D01*
X157893011Y-81800337D01*
X157885415Y-81800337D01*
X157727301Y-81800337D01*
X157619945Y-81829103D01*
X157574568Y-81841262D01*
X157574567Y-81841263D01*
X157524454Y-81870197D01*
X157524453Y-81870198D01*
X157481047Y-81895258D01*
X157437643Y-81920317D01*
X157437640Y-81920319D01*
X157325836Y-82032124D01*
X155501798Y-83856163D01*
X155440475Y-83889648D01*
X155414117Y-83892482D01*
X155386721Y-83892482D01*
X155232076Y-83923243D01*
X155232064Y-83923246D01*
X155086393Y-83983584D01*
X155086380Y-83983591D01*
X154955277Y-84071192D01*
X154955273Y-84071195D01*
X154843779Y-84182689D01*
X154843776Y-84182693D01*
X154756175Y-84313796D01*
X154756168Y-84313809D01*
X154695830Y-84459480D01*
X154695827Y-84459492D01*
X154665066Y-84614135D01*
X154665066Y-84771828D01*
X154695827Y-84926471D01*
X154695830Y-84926483D01*
X154756168Y-85072154D01*
X154756175Y-85072167D01*
X154843776Y-85203270D01*
X154843779Y-85203274D01*
X154955273Y-85314768D01*
X154955277Y-85314771D01*
X155086380Y-85402372D01*
X155086393Y-85402379D01*
X155178900Y-85440696D01*
X155232069Y-85462719D01*
X155386719Y-85493481D01*
X155386722Y-85493482D01*
X155386724Y-85493482D01*
X155544410Y-85493482D01*
X155544411Y-85493481D01*
X155699063Y-85462719D01*
X155844745Y-85402376D01*
X155975855Y-85314771D01*
X156087355Y-85203271D01*
X156174960Y-85072161D01*
X156235303Y-84926479D01*
X156254124Y-84831856D01*
X156286507Y-84769950D01*
X156288003Y-84768426D01*
X156854936Y-84201493D01*
X156916257Y-84168010D01*
X156985949Y-84172994D01*
X157041882Y-84214866D01*
X157064232Y-84264983D01*
X157077413Y-84331248D01*
X157077416Y-84331257D01*
X157137754Y-84476928D01*
X157137761Y-84476941D01*
X157225362Y-84608044D01*
X157225365Y-84608048D01*
X157324332Y-84707015D01*
X157357817Y-84768338D01*
X157352833Y-84838030D01*
X157324332Y-84882377D01*
X155397966Y-86808743D01*
X155397960Y-86808749D01*
X155394508Y-86812202D01*
X155394506Y-86812204D01*
X155282702Y-86924008D01*
X155253067Y-86975338D01*
X155247384Y-86985180D01*
X155247384Y-86985181D01*
X155209304Y-87051138D01*
X155203645Y-87060939D01*
X155162721Y-87213667D01*
X155162721Y-87213669D01*
X155162721Y-87381770D01*
X155162722Y-87381783D01*
X155162722Y-89471024D01*
X155143037Y-89538063D01*
X155141824Y-89539915D01*
X155053831Y-89671604D01*
X155053824Y-89671617D01*
X154993486Y-89817288D01*
X154993483Y-89817300D01*
X154962722Y-89971943D01*
X154962722Y-90129636D01*
X154993483Y-90284279D01*
X154993486Y-90284291D01*
X155053824Y-90429962D01*
X155053831Y-90429975D01*
X155141432Y-90561078D01*
X155141435Y-90561082D01*
X155252929Y-90672576D01*
X155252933Y-90672579D01*
X155384036Y-90760180D01*
X155384049Y-90760187D01*
X155529720Y-90820525D01*
X155529725Y-90820527D01*
X155665950Y-90847624D01*
X155684375Y-90851289D01*
X155684378Y-90851290D01*
X155684380Y-90851290D01*
X155842066Y-90851290D01*
X155842067Y-90851289D01*
X155996719Y-90820527D01*
X156142401Y-90760184D01*
X156273511Y-90672579D01*
X156273514Y-90672576D01*
X156344177Y-90601914D01*
X156405500Y-90568429D01*
X156475192Y-90573413D01*
X156531125Y-90615285D01*
X156555542Y-90680749D01*
X156555858Y-90689595D01*
X156555858Y-91964168D01*
X156555857Y-91964186D01*
X156555857Y-92129892D01*
X156555856Y-92129892D01*
X156555857Y-92129895D01*
X156596781Y-92282623D01*
X156596782Y-92282625D01*
X156596781Y-92282625D01*
X156606452Y-92299374D01*
X156606453Y-92299375D01*
X156675835Y-92419550D01*
X156675839Y-92419555D01*
X156794707Y-92538423D01*
X156794713Y-92538428D01*
X156794942Y-92538657D01*
X156828427Y-92599980D01*
X156823443Y-92669672D01*
X156781571Y-92725605D01*
X156716107Y-92750022D01*
X156707261Y-92750338D01*
X152340193Y-92750338D01*
X152273154Y-92730653D01*
X152227399Y-92677849D01*
X152218576Y-92650532D01*
X152216947Y-92642341D01*
X152170977Y-92531358D01*
X152156607Y-92496665D01*
X152156600Y-92496652D01*
X152068999Y-92365549D01*
X152068996Y-92365545D01*
X151957502Y-92254051D01*
X151957498Y-92254048D01*
X151826395Y-92166447D01*
X151826382Y-92166440D01*
X151680711Y-92106102D01*
X151680699Y-92106099D01*
X151526055Y-92075338D01*
X151526052Y-92075338D01*
X151368368Y-92075338D01*
X151368365Y-92075338D01*
X151213720Y-92106099D01*
X151213708Y-92106102D01*
X151068037Y-92166440D01*
X151068024Y-92166447D01*
X150936921Y-92254048D01*
X150936917Y-92254051D01*
X150825423Y-92365545D01*
X150825420Y-92365549D01*
X150737819Y-92496652D01*
X150737812Y-92496665D01*
X150677474Y-92642336D01*
X150677471Y-92642348D01*
X150646710Y-92796991D01*
X135201746Y-92796991D01*
X135118177Y-92713422D01*
X135084692Y-92652099D01*
X135081858Y-92625741D01*
X135081858Y-91756783D01*
X135081858Y-91756781D01*
X135040935Y-91604054D01*
X134977122Y-91493525D01*
X134961882Y-91467128D01*
X134961876Y-91467120D01*
X134960995Y-91466239D01*
X134960488Y-91465312D01*
X134956932Y-91460677D01*
X134957654Y-91460122D01*
X134927510Y-91404916D01*
X134932494Y-91335224D01*
X134974366Y-91279291D01*
X134979767Y-91275468D01*
X134991107Y-91267891D01*
X135102607Y-91156391D01*
X135190212Y-91025281D01*
X135250555Y-90879599D01*
X135281318Y-90724944D01*
X135281318Y-90567260D01*
X135281318Y-90567257D01*
X135281317Y-90567255D01*
X135280089Y-90561082D01*
X135250555Y-90412605D01*
X135237771Y-90381742D01*
X135190215Y-90266929D01*
X135190208Y-90266916D01*
X135102607Y-90135813D01*
X135102604Y-90135809D01*
X134991110Y-90024315D01*
X134991106Y-90024312D01*
X134860003Y-89936711D01*
X134859990Y-89936704D01*
X134714319Y-89876366D01*
X134714307Y-89876363D01*
X134559663Y-89845602D01*
X134559660Y-89845602D01*
X134401976Y-89845602D01*
X134401973Y-89845602D01*
X134247328Y-89876363D01*
X134247316Y-89876366D01*
X134101645Y-89936704D01*
X134101632Y-89936711D01*
X133970529Y-90024312D01*
X133970525Y-90024315D01*
X133945822Y-90049019D01*
X133884499Y-90082504D01*
X133858141Y-90085338D01*
X132658028Y-90085338D01*
X132658012Y-90085337D01*
X132650416Y-90085337D01*
X132492301Y-90085337D01*
X132415937Y-90105799D01*
X132339572Y-90126261D01*
X132339567Y-90126264D01*
X132202648Y-90205313D01*
X132202644Y-90205316D01*
X132026217Y-90381742D01*
X131964893Y-90415226D01*
X131895202Y-90410242D01*
X131839268Y-90368370D01*
X131823976Y-90341515D01*
X131815752Y-90321659D01*
X131815749Y-90321654D01*
X131815748Y-90321652D01*
X131728147Y-90190549D01*
X131728144Y-90190545D01*
X131616650Y-90079051D01*
X131616646Y-90079048D01*
X131485543Y-89991447D01*
X131485530Y-89991440D01*
X131339859Y-89931102D01*
X131339849Y-89931099D01*
X131184507Y-89900199D01*
X131122596Y-89867814D01*
X131121018Y-89866263D01*
X131118948Y-89864193D01*
X131118946Y-89864190D01*
X131000075Y-89745319D01*
X131000070Y-89745315D01*
X130872409Y-89671611D01*
X130872407Y-89671610D01*
X130863143Y-89666261D01*
X130849868Y-89662704D01*
X130710415Y-89625337D01*
X130552301Y-89625337D01*
X130544705Y-89625337D01*
X130544689Y-89625338D01*
X129836124Y-89625338D01*
X129769085Y-89605653D01*
X129767233Y-89604440D01*
X129635543Y-89516447D01*
X129635530Y-89516440D01*
X129489859Y-89456102D01*
X129489847Y-89456099D01*
X129335203Y-89425338D01*
X129335200Y-89425338D01*
X129177516Y-89425338D01*
X129177513Y-89425338D01*
X129022868Y-89456099D01*
X129022856Y-89456102D01*
X128877185Y-89516440D01*
X128877172Y-89516447D01*
X128746069Y-89604048D01*
X128746065Y-89604051D01*
X128634571Y-89715545D01*
X128634568Y-89715549D01*
X128546967Y-89846652D01*
X128546960Y-89846665D01*
X128486622Y-89992336D01*
X128486619Y-89992348D01*
X128455858Y-90146991D01*
X128455858Y-90304684D01*
X128486619Y-90459327D01*
X128486622Y-90459339D01*
X128546960Y-90605010D01*
X128546967Y-90605023D01*
X128634568Y-90736126D01*
X128634571Y-90736130D01*
X128746065Y-90847624D01*
X128746069Y-90847627D01*
X128877172Y-90935228D01*
X128877185Y-90935235D01*
X129022856Y-90995573D01*
X129022861Y-90995575D01*
X129172167Y-91025274D01*
X129177511Y-91026337D01*
X129177514Y-91026338D01*
X129177516Y-91026338D01*
X129335202Y-91026338D01*
X129335203Y-91026337D01*
X129489855Y-90995575D01*
X129635537Y-90935232D01*
X129718810Y-90879591D01*
X129767233Y-90847236D01*
X129833911Y-90826358D01*
X129836124Y-90826338D01*
X130213375Y-90826338D01*
X130280414Y-90846023D01*
X130326169Y-90898827D01*
X130334991Y-90926143D01*
X130336621Y-90934335D01*
X130336621Y-90934336D01*
X130396960Y-91080010D01*
X130396967Y-91080023D01*
X130484568Y-91211126D01*
X130484571Y-91211130D01*
X130596065Y-91322624D01*
X130596069Y-91322627D01*
X130727172Y-91410228D01*
X130727174Y-91410229D01*
X130727179Y-91410232D01*
X130747031Y-91418455D01*
X130801434Y-91462293D01*
X130823501Y-91528586D01*
X130806224Y-91596286D01*
X130787261Y-91620697D01*
X127491697Y-94916263D01*
X127430374Y-94949748D01*
X127428208Y-94950199D01*
X127272866Y-94981099D01*
X127272856Y-94981102D01*
X127127185Y-95041440D01*
X127127172Y-95041447D01*
X126996069Y-95129048D01*
X126996065Y-95129051D01*
X126884571Y-95240545D01*
X126884568Y-95240549D01*
X126796967Y-95371652D01*
X126796960Y-95371665D01*
X126736622Y-95517336D01*
X126736619Y-95517348D01*
X126705858Y-95671991D01*
X119985592Y-95671991D01*
X119871778Y-95558177D01*
X119871769Y-95558169D01*
X119689725Y-95418480D01*
X119660581Y-95401654D01*
X119490996Y-95303744D01*
X119490984Y-95303738D01*
X119278995Y-95215930D01*
X119270116Y-95213551D01*
X119057346Y-95156540D01*
X119019323Y-95151534D01*
X118829849Y-95126588D01*
X118829842Y-95126588D01*
X118600374Y-95126588D01*
X118600366Y-95126588D01*
X118383823Y-95155097D01*
X118372870Y-95156540D01*
X118279184Y-95181642D01*
X118151220Y-95215930D01*
X117939231Y-95303738D01*
X117939217Y-95303745D01*
X117740490Y-95418480D01*
X117558446Y-95558169D01*
X117396189Y-95720426D01*
X117256500Y-95902470D01*
X117141765Y-96101197D01*
X117141758Y-96101211D01*
X117053950Y-96313200D01*
X117053950Y-96313201D01*
X116998386Y-96520573D01*
X116994561Y-96534847D01*
X116994559Y-96534858D01*
X116964608Y-96762346D01*
X112965608Y-96762346D01*
X112965608Y-89648647D01*
X112965609Y-89648634D01*
X112965609Y-89480533D01*
X112965609Y-89480531D01*
X112924685Y-89327803D01*
X112895747Y-89277683D01*
X112845628Y-89190872D01*
X112733824Y-89079068D01*
X112733823Y-89079067D01*
X112729493Y-89074737D01*
X112729482Y-89074727D01*
X110818177Y-87163422D01*
X110784692Y-87102099D01*
X110781858Y-87075741D01*
X110781858Y-86467115D01*
X112174608Y-86467115D01*
X112174608Y-86703310D01*
X112211554Y-86936581D01*
X112284541Y-87161209D01*
X112353617Y-87296777D01*
X112391765Y-87371646D01*
X112530591Y-87562723D01*
X112697598Y-87729730D01*
X112888675Y-87868556D01*
X112939032Y-87894214D01*
X113099111Y-87975779D01*
X113099113Y-87975779D01*
X113099116Y-87975781D01*
X113202360Y-88009327D01*
X113323739Y-88048766D01*
X113557011Y-88085713D01*
X113557016Y-88085713D01*
X113793205Y-88085713D01*
X114026476Y-88048766D01*
X114027978Y-88048278D01*
X114251100Y-87975781D01*
X114461541Y-87868556D01*
X114652618Y-87729730D01*
X114819625Y-87562723D01*
X114864375Y-87501128D01*
X114868788Y-87496244D01*
X114893167Y-87481276D01*
X114915819Y-87463809D01*
X114923451Y-87462683D01*
X114928331Y-87459688D01*
X114941878Y-87459966D01*
X114947651Y-87459115D01*
X115692145Y-86714621D01*
X115709183Y-86778206D01*
X115775009Y-86892220D01*
X115868101Y-86985312D01*
X115982115Y-87051138D01*
X116045698Y-87068175D01*
X115306001Y-87807871D01*
X115388936Y-87868127D01*
X115599305Y-87975315D01*
X115823860Y-88048278D01*
X115823859Y-88048278D01*
X116057056Y-88085213D01*
X116293160Y-88085213D01*
X116526355Y-88048278D01*
X116750910Y-87975315D01*
X116961271Y-87868131D01*
X116961277Y-87868127D01*
X117044212Y-87807871D01*
X117044213Y-87807871D01*
X116304516Y-87068175D01*
X116368101Y-87051138D01*
X116482115Y-86985312D01*
X116575207Y-86892220D01*
X116641033Y-86778206D01*
X116658070Y-86714622D01*
X117404378Y-87460930D01*
X117448051Y-87470104D01*
X117489722Y-87506472D01*
X117530591Y-87562723D01*
X117697598Y-87729730D01*
X117888675Y-87868556D01*
X117939032Y-87894214D01*
X118099111Y-87975779D01*
X118099113Y-87975779D01*
X118099116Y-87975781D01*
X118202360Y-88009327D01*
X118323739Y-88048766D01*
X118557011Y-88085713D01*
X118557016Y-88085713D01*
X118793205Y-88085713D01*
X119026476Y-88048766D01*
X119027978Y-88048278D01*
X119251100Y-87975781D01*
X119461541Y-87868556D01*
X119652618Y-87729730D01*
X119819625Y-87562723D01*
X119958451Y-87371646D01*
X120065676Y-87161205D01*
X120138661Y-86936581D01*
X120154957Y-86833691D01*
X120175608Y-86703310D01*
X120175608Y-86467115D01*
X120138661Y-86233844D01*
X120065674Y-86009216D01*
X119958450Y-85798779D01*
X119894899Y-85711309D01*
X119819625Y-85607703D01*
X119652618Y-85440696D01*
X119461541Y-85301870D01*
X119251104Y-85194646D01*
X119026476Y-85121659D01*
X118793205Y-85084713D01*
X118793200Y-85084713D01*
X118557016Y-85084713D01*
X118557011Y-85084713D01*
X118323739Y-85121659D01*
X118099111Y-85194646D01*
X117888674Y-85301870D01*
X117870922Y-85314768D01*
X117697598Y-85440696D01*
X117697596Y-85440698D01*
X117697595Y-85440698D01*
X117530590Y-85607703D01*
X117489723Y-85663952D01*
X117434393Y-85706617D01*
X117402563Y-85711309D01*
X116658070Y-86455803D01*
X116641033Y-86392220D01*
X116575207Y-86278206D01*
X116482115Y-86185114D01*
X116368101Y-86119288D01*
X116304517Y-86102250D01*
X117044213Y-85362553D01*
X117044212Y-85362551D01*
X116961282Y-85302300D01*
X116750910Y-85195110D01*
X116526355Y-85122147D01*
X116526356Y-85122147D01*
X116293160Y-85085213D01*
X116057056Y-85085213D01*
X115823860Y-85122147D01*
X115599305Y-85195110D01*
X115388938Y-85302297D01*
X115306002Y-85362553D01*
X116045699Y-86102250D01*
X115982115Y-86119288D01*
X115868101Y-86185114D01*
X115775009Y-86278206D01*
X115709183Y-86392220D01*
X115692145Y-86455803D01*
X114945835Y-85709493D01*
X114902160Y-85700318D01*
X114868788Y-85674181D01*
X114864372Y-85669292D01*
X114819625Y-85607703D01*
X114652618Y-85440696D01*
X114461541Y-85301870D01*
X114251104Y-85194646D01*
X114026476Y-85121659D01*
X113793205Y-85084713D01*
X113793200Y-85084713D01*
X113557016Y-85084713D01*
X113557011Y-85084713D01*
X113323739Y-85121659D01*
X113099111Y-85194646D01*
X112888674Y-85301870D01*
X112870922Y-85314768D01*
X112697598Y-85440696D01*
X112697596Y-85440698D01*
X112697595Y-85440698D01*
X112530593Y-85607700D01*
X112530593Y-85607701D01*
X112530591Y-85607703D01*
X112489724Y-85663952D01*
X112391765Y-85798779D01*
X112284541Y-86009216D01*
X112211554Y-86233844D01*
X112174608Y-86467115D01*
X110781858Y-86467115D01*
X110781858Y-85225935D01*
X110801543Y-85158896D01*
X110818177Y-85138254D01*
X112253774Y-83702657D01*
X112315097Y-83669172D01*
X112341455Y-83666338D01*
X132278856Y-83666338D01*
X132345895Y-83686023D01*
X132347747Y-83687236D01*
X132464524Y-83765264D01*
X132464537Y-83765271D01*
X132610208Y-83825609D01*
X132610213Y-83825611D01*
X132763807Y-83856163D01*
X132764863Y-83856373D01*
X132764866Y-83856374D01*
X132764868Y-83856374D01*
X132922554Y-83856374D01*
X132922555Y-83856373D01*
X133077207Y-83825611D01*
X133222889Y-83765268D01*
X133353999Y-83677663D01*
X133465499Y-83566163D01*
X133553104Y-83435053D01*
X133613447Y-83289371D01*
X133644210Y-83134716D01*
X133644210Y-82977032D01*
X133644210Y-82977029D01*
X133644209Y-82977027D01*
X133613448Y-82822384D01*
X133613447Y-82822377D01*
X133561566Y-82697124D01*
X133553107Y-82676701D01*
X133553100Y-82676688D01*
X133465499Y-82545585D01*
X133465496Y-82545581D01*
X133354002Y-82434087D01*
X133353998Y-82434084D01*
X133222895Y-82346483D01*
X133222882Y-82346476D01*
X133077211Y-82286138D01*
X133077199Y-82286135D01*
X132922555Y-82255374D01*
X132922552Y-82255374D01*
X132764868Y-82255374D01*
X132764865Y-82255374D01*
X132610220Y-82286135D01*
X132610208Y-82286138D01*
X132464537Y-82346476D01*
X132464524Y-82346483D01*
X132333419Y-82434085D01*
X132329637Y-82437190D01*
X132265327Y-82464504D01*
X132250971Y-82465338D01*
X112120415Y-82465338D01*
X111962300Y-82465338D01*
X111809573Y-82506261D01*
X111809572Y-82506261D01*
X111809570Y-82506262D01*
X111809567Y-82506263D01*
X111759454Y-82535197D01*
X111759453Y-82535198D01*
X111741469Y-82545581D01*
X111672643Y-82585317D01*
X111672640Y-82585319D01*
X109700837Y-84557122D01*
X109680190Y-84592885D01*
X109671463Y-84608002D01*
X109621781Y-84694053D01*
X109580857Y-84846781D01*
X109580857Y-85004895D01*
X109580857Y-85004897D01*
X109580858Y-85014896D01*
X109580858Y-87289168D01*
X109580857Y-87289186D01*
X109580857Y-87454892D01*
X109580856Y-87454892D01*
X104769358Y-87454892D01*
X104769358Y-77237348D01*
X108574608Y-77237348D01*
X108574608Y-80933083D01*
X108574609Y-80933089D01*
X108581016Y-80992696D01*
X108631310Y-81127541D01*
X108631314Y-81127548D01*
X108717560Y-81242757D01*
X108717563Y-81242760D01*
X108832772Y-81329006D01*
X108832779Y-81329010D01*
X108967625Y-81379304D01*
X108967624Y-81379304D01*
X108974552Y-81380048D01*
X109027235Y-81385713D01*
X111922980Y-81385712D01*
X111982591Y-81379304D01*
X112117439Y-81329009D01*
X112232654Y-81242759D01*
X112318904Y-81127544D01*
X112369199Y-80992696D01*
X112375608Y-80933086D01*
X112375607Y-77237348D01*
X119974608Y-77237348D01*
X119974608Y-80933083D01*
X119974609Y-80933089D01*
X119981016Y-80992696D01*
X120031310Y-81127541D01*
X120031314Y-81127548D01*
X120117560Y-81242757D01*
X120117563Y-81242760D01*
X120232772Y-81329006D01*
X120232779Y-81329010D01*
X120367625Y-81379304D01*
X120367624Y-81379304D01*
X120374552Y-81380048D01*
X120427235Y-81385713D01*
X123322980Y-81385712D01*
X123382591Y-81379304D01*
X123517439Y-81329009D01*
X123632654Y-81242759D01*
X123718904Y-81127544D01*
X123769199Y-80992696D01*
X123775608Y-80933086D01*
X123775607Y-77237341D01*
X123769199Y-77177730D01*
X123763530Y-77162531D01*
X123718905Y-77042884D01*
X123718901Y-77042877D01*
X123632655Y-76927668D01*
X123632652Y-76927665D01*
X123517443Y-76841419D01*
X123517436Y-76841415D01*
X123382590Y-76791121D01*
X123382591Y-76791121D01*
X123322991Y-76784714D01*
X123322989Y-76784713D01*
X123322981Y-76784713D01*
X123322972Y-76784713D01*
X120427237Y-76784713D01*
X120427231Y-76784714D01*
X120367624Y-76791121D01*
X120232779Y-76841415D01*
X120232772Y-76841419D01*
X120117563Y-76927665D01*
X120117560Y-76927668D01*
X120031314Y-77042877D01*
X120031310Y-77042884D01*
X119981016Y-77177730D01*
X119974609Y-77237329D01*
X119974609Y-77237336D01*
X119974608Y-77237348D01*
X112375607Y-77237348D01*
X112375607Y-77237341D01*
X112369199Y-77177730D01*
X112363530Y-77162531D01*
X112318905Y-77042884D01*
X112318901Y-77042877D01*
X112232655Y-76927668D01*
X112232652Y-76927665D01*
X112117443Y-76841419D01*
X112117436Y-76841415D01*
X111982590Y-76791121D01*
X111982591Y-76791121D01*
X111922991Y-76784714D01*
X111922989Y-76784713D01*
X111922981Y-76784713D01*
X111922972Y-76784713D01*
X109027237Y-76784713D01*
X109027231Y-76784714D01*
X108967624Y-76791121D01*
X108832779Y-76841415D01*
X108832772Y-76841419D01*
X108717563Y-76927665D01*
X108717560Y-76927668D01*
X108631314Y-77042877D01*
X108631310Y-77042884D01*
X108581016Y-77177730D01*
X108574609Y-77237329D01*
X108574609Y-77237336D01*
X108574608Y-77237348D01*
X104769358Y-77237348D01*
X104769358Y-74996991D01*
X120855858Y-74996991D01*
X120855858Y-75154684D01*
X120886619Y-75309327D01*
X120886622Y-75309339D01*
X120946960Y-75455010D01*
X120946967Y-75455023D01*
X121034568Y-75586126D01*
X121034571Y-75586130D01*
X121146065Y-75697624D01*
X121146069Y-75697627D01*
X121277172Y-75785228D01*
X121277185Y-75785235D01*
X121422856Y-75845573D01*
X121422861Y-75845575D01*
X121577511Y-75876337D01*
X121577514Y-75876338D01*
X121577516Y-75876338D01*
X121735202Y-75876338D01*
X121735203Y-75876337D01*
X121889855Y-75845575D01*
X122035537Y-75785232D01*
X122035543Y-75785228D01*
X122167233Y-75697236D01*
X122233911Y-75676358D01*
X122236124Y-75676338D01*
X123381261Y-75676338D01*
X123448300Y-75696023D01*
X123468942Y-75712657D01*
X128596783Y-80840498D01*
X128630268Y-80901821D01*
X128630719Y-80903987D01*
X128661619Y-81059329D01*
X128661622Y-81059339D01*
X128721960Y-81205010D01*
X128721967Y-81205023D01*
X128809568Y-81336126D01*
X128809571Y-81336130D01*
X128921065Y-81447624D01*
X128921069Y-81447627D01*
X129052172Y-81535228D01*
X129052185Y-81535235D01*
X129197856Y-81595573D01*
X129197861Y-81595575D01*
X129352511Y-81626337D01*
X129352514Y-81626338D01*
X129352516Y-81626338D01*
X129510202Y-81626338D01*
X129510203Y-81626337D01*
X129664855Y-81595575D01*
X129810537Y-81535232D01*
X129941647Y-81447627D01*
X130053147Y-81336127D01*
X130140752Y-81205017D01*
X130201095Y-81059335D01*
X130231858Y-80904680D01*
X130231858Y-80746996D01*
X130231858Y-80746993D01*
X130231857Y-80746991D01*
X130201096Y-80592348D01*
X130201095Y-80592341D01*
X130201093Y-80592336D01*
X130140755Y-80446665D01*
X130140748Y-80446652D01*
X130053147Y-80315549D01*
X130053144Y-80315545D01*
X129941650Y-80204051D01*
X129941646Y-80204048D01*
X129810543Y-80116447D01*
X129810530Y-80116440D01*
X129664859Y-80056102D01*
X129664849Y-80056099D01*
X129509509Y-80025200D01*
X129447599Y-79992815D01*
X129446020Y-79991264D01*
X127829650Y-78374894D01*
X126126747Y-76671991D01*
X127005858Y-76671991D01*
X127005858Y-76829684D01*
X127036619Y-76984327D01*
X127036622Y-76984339D01*
X127096960Y-77130010D01*
X127096967Y-77130023D01*
X127184568Y-77261126D01*
X127184571Y-77261130D01*
X127296065Y-77372624D01*
X127296069Y-77372627D01*
X127427172Y-77460228D01*
X127427185Y-77460235D01*
X127572856Y-77520573D01*
X127572861Y-77520575D01*
X127727511Y-77551337D01*
X127727514Y-77551338D01*
X127727516Y-77551338D01*
X127885202Y-77551338D01*
X127885203Y-77551337D01*
X128039855Y-77520575D01*
X128185537Y-77460232D01*
X128316647Y-77372627D01*
X128428147Y-77261127D01*
X128515752Y-77130017D01*
X128576095Y-76984335D01*
X128604523Y-76841419D01*
X128606996Y-76828988D01*
X128639381Y-76767077D01*
X128640880Y-76765550D01*
X128952256Y-76454173D01*
X129013577Y-76420690D01*
X129083268Y-76425674D01*
X129127616Y-76454175D01*
X129196065Y-76522624D01*
X129196069Y-76522627D01*
X129327172Y-76610228D01*
X129327185Y-76610235D01*
X129472856Y-76670573D01*
X129472861Y-76670575D01*
X129537505Y-76683433D01*
X129628207Y-76701476D01*
X129690118Y-76733861D01*
X129691697Y-76735412D01*
X130967506Y-78011221D01*
X131000991Y-78072544D01*
X131001442Y-78074710D01*
X131032175Y-78229213D01*
X131032178Y-78229223D01*
X131092516Y-78374894D01*
X131092523Y-78374907D01*
X131180124Y-78506010D01*
X131180127Y-78506014D01*
X131291621Y-78617508D01*
X131291625Y-78617511D01*
X131422728Y-78705112D01*
X131422741Y-78705119D01*
X131568412Y-78765457D01*
X131568417Y-78765459D01*
X131723067Y-78796221D01*
X131723070Y-78796222D01*
X131723072Y-78796222D01*
X131880758Y-78796222D01*
X131880759Y-78796221D01*
X132035411Y-78765459D01*
X132181093Y-78705116D01*
X132312203Y-78617511D01*
X132423703Y-78506011D01*
X132511308Y-78374901D01*
X132571651Y-78229219D01*
X132602414Y-78074564D01*
X132602414Y-77916880D01*
X132602414Y-77916877D01*
X132602413Y-77916875D01*
X132571652Y-77762232D01*
X132571651Y-77762225D01*
X132571649Y-77762220D01*
X132511311Y-77616549D01*
X132511304Y-77616536D01*
X132423703Y-77485433D01*
X132423700Y-77485429D01*
X132312206Y-77373935D01*
X132312202Y-77373932D01*
X132181099Y-77286331D01*
X132181086Y-77286324D01*
X132035415Y-77225986D01*
X132035405Y-77225983D01*
X131879224Y-77194916D01*
X131817313Y-77162531D01*
X131815735Y-77160980D01*
X130540932Y-75886177D01*
X130507447Y-75824854D01*
X130506996Y-75822687D01*
X130482119Y-75697627D01*
X130476095Y-75667341D01*
X130442457Y-75586130D01*
X130415755Y-75521665D01*
X130415748Y-75521652D01*
X130328147Y-75390549D01*
X130328144Y-75390545D01*
X130252605Y-75315006D01*
X130219120Y-75253683D01*
X130216286Y-75227325D01*
X130216286Y-75076627D01*
X130216285Y-75076625D01*
X130185524Y-74921982D01*
X130185524Y-74921980D01*
X130185523Y-74921975D01*
X130152536Y-74842336D01*
X130125183Y-74776299D01*
X130125176Y-74776286D01*
X130037575Y-74645183D01*
X130037572Y-74645179D01*
X129926078Y-74533685D01*
X129926074Y-74533682D01*
X129794971Y-74446081D01*
X129794958Y-74446074D01*
X129649287Y-74385736D01*
X129649275Y-74385733D01*
X129494631Y-74354972D01*
X129494628Y-74354972D01*
X129336944Y-74354972D01*
X129336941Y-74354972D01*
X129182296Y-74385733D01*
X129182284Y-74385736D01*
X129036613Y-74446074D01*
X129036600Y-74446081D01*
X128905497Y-74533682D01*
X128905493Y-74533685D01*
X128793999Y-74645179D01*
X128793996Y-74645183D01*
X128706395Y-74776286D01*
X128706388Y-74776299D01*
X128646050Y-74921970D01*
X128646047Y-74921980D01*
X128618639Y-75059767D01*
X128586254Y-75121678D01*
X128584703Y-75123256D01*
X127791697Y-75916263D01*
X127730374Y-75949748D01*
X127728208Y-75950199D01*
X127572866Y-75981099D01*
X127572856Y-75981102D01*
X127427185Y-76041440D01*
X127427172Y-76041447D01*
X127296069Y-76129048D01*
X127296065Y-76129051D01*
X127184571Y-76240545D01*
X127184568Y-76240549D01*
X127096967Y-76371652D01*
X127096960Y-76371665D01*
X127036622Y-76517336D01*
X127036619Y-76517348D01*
X127005858Y-76671991D01*
X126126747Y-76671991D01*
X124168947Y-74714192D01*
X124168946Y-74714190D01*
X124050075Y-74595319D01*
X124050067Y-74595313D01*
X123936890Y-74529971D01*
X123936889Y-74529970D01*
X123920198Y-74520334D01*
X123913143Y-74516261D01*
X123760415Y-74475337D01*
X123602301Y-74475337D01*
X123594705Y-74475337D01*
X123594689Y-74475338D01*
X122236124Y-74475338D01*
X122169085Y-74455653D01*
X122167233Y-74454440D01*
X122035543Y-74366447D01*
X122035530Y-74366440D01*
X121889859Y-74306102D01*
X121889847Y-74306099D01*
X121735203Y-74275338D01*
X121735200Y-74275338D01*
X121577516Y-74275338D01*
X121577513Y-74275338D01*
X121422868Y-74306099D01*
X121422856Y-74306102D01*
X121277185Y-74366440D01*
X121277172Y-74366447D01*
X121146069Y-74454048D01*
X121146065Y-74454051D01*
X121034571Y-74565545D01*
X121034568Y-74565549D01*
X120946967Y-74696652D01*
X120946960Y-74696665D01*
X120886622Y-74842336D01*
X120886619Y-74842348D01*
X120855858Y-74996991D01*
X104769358Y-74996991D01*
X104769358Y-71967160D01*
X112175108Y-71967160D01*
X112175108Y-72203265D01*
X112212042Y-72436460D01*
X112285005Y-72661015D01*
X112392195Y-72871387D01*
X112452446Y-72954317D01*
X112452448Y-72954318D01*
X113192145Y-72214621D01*
X113209183Y-72278206D01*
X113275009Y-72392220D01*
X113368101Y-72485312D01*
X113482115Y-72551138D01*
X113545698Y-72568175D01*
X112806001Y-73307871D01*
X112888936Y-73368127D01*
X113099305Y-73475315D01*
X113323860Y-73548278D01*
X113323859Y-73548278D01*
X113557056Y-73585213D01*
X113793160Y-73585213D01*
X114026355Y-73548278D01*
X114250910Y-73475315D01*
X114461271Y-73368131D01*
X114461277Y-73368127D01*
X114544212Y-73307871D01*
X114544213Y-73307871D01*
X113804516Y-72568175D01*
X113868101Y-72551138D01*
X113982115Y-72485312D01*
X114075207Y-72392220D01*
X114141033Y-72278206D01*
X114158070Y-72214621D01*
X114897766Y-72954318D01*
X114897766Y-72954317D01*
X114958022Y-72871382D01*
X114958026Y-72871376D01*
X115065210Y-72661015D01*
X115138173Y-72436460D01*
X115175108Y-72203265D01*
X115175108Y-71967160D01*
X115175101Y-71967115D01*
X117174608Y-71967115D01*
X117174608Y-72203310D01*
X117211554Y-72436581D01*
X117284541Y-72661209D01*
X117391627Y-72871376D01*
X117391765Y-72871646D01*
X117530591Y-73062723D01*
X117697598Y-73229730D01*
X117888675Y-73368556D01*
X117988099Y-73419215D01*
X118099111Y-73475779D01*
X118099113Y-73475779D01*
X118099116Y-73475781D01*
X118164160Y-73496915D01*
X118323739Y-73548766D01*
X118557011Y-73585713D01*
X118557016Y-73585713D01*
X118793205Y-73585713D01*
X119026476Y-73548766D01*
X119047312Y-73541996D01*
X119251100Y-73475781D01*
X119461541Y-73368556D01*
X119652618Y-73229730D01*
X119819625Y-73062723D01*
X119958451Y-72871646D01*
X120065676Y-72661205D01*
X120138661Y-72436581D01*
X120145687Y-72392220D01*
X120175608Y-72203310D01*
X120175608Y-72085209D01*
X125540376Y-72085209D01*
X125540376Y-72297782D01*
X125562359Y-72436581D01*
X125573630Y-72507739D01*
X125636679Y-72701784D01*
X125639320Y-72709910D01*
X125735827Y-72899316D01*
X125860766Y-73071282D01*
X126011089Y-73221605D01*
X126183055Y-73346544D01*
X126183057Y-73346545D01*
X126183060Y-73346547D01*
X126372464Y-73443053D01*
X126574633Y-73508742D01*
X126784589Y-73541996D01*
X126784590Y-73541996D01*
X126997162Y-73541996D01*
X126997163Y-73541996D01*
X127207119Y-73508742D01*
X127409288Y-73443053D01*
X127598692Y-73346547D01*
X127620665Y-73330582D01*
X127770662Y-73221605D01*
X127770664Y-73221602D01*
X127770668Y-73221600D01*
X127920980Y-73071288D01*
X127920982Y-73071284D01*
X127920985Y-73071282D01*
X128044778Y-72900893D01*
X128045927Y-72899312D01*
X128142433Y-72709908D01*
X128208122Y-72507739D01*
X128241376Y-72297783D01*
X128241376Y-72085209D01*
X128208122Y-71875253D01*
X128142433Y-71673084D01*
X128045927Y-71483680D01*
X128045925Y-71483677D01*
X128045924Y-71483675D01*
X127920985Y-71311709D01*
X127770662Y-71161386D01*
X127598696Y-71036447D01*
X127409290Y-70939940D01*
X127409289Y-70939939D01*
X127409288Y-70939939D01*
X127207119Y-70874250D01*
X127207117Y-70874249D01*
X127207116Y-70874249D01*
X127045833Y-70848704D01*
X126997163Y-70840996D01*
X126784589Y-70840996D01*
X126735918Y-70848704D01*
X126574636Y-70874249D01*
X126372461Y-70939940D01*
X126183055Y-71036447D01*
X126011089Y-71161386D01*
X125860766Y-71311709D01*
X125735827Y-71483675D01*
X125639320Y-71673081D01*
X125573629Y-71875256D01*
X125540376Y-72085209D01*
X120175608Y-72085209D01*
X120175608Y-71967115D01*
X120138661Y-71733844D01*
X120065674Y-71509216D01*
X120005437Y-71390996D01*
X119958451Y-71298780D01*
X119819625Y-71107703D01*
X119652618Y-70940696D01*
X119461541Y-70801870D01*
X119251104Y-70694646D01*
X119026476Y-70621659D01*
X118793205Y-70584713D01*
X118793200Y-70584713D01*
X118557016Y-70584713D01*
X118557011Y-70584713D01*
X118323739Y-70621659D01*
X118099111Y-70694646D01*
X117888674Y-70801870D01*
X117805155Y-70862551D01*
X117697598Y-70940696D01*
X117697596Y-70940698D01*
X117697595Y-70940698D01*
X117530593Y-71107700D01*
X117530593Y-71107701D01*
X117530591Y-71107703D01*
X117491588Y-71161386D01*
X117391765Y-71298779D01*
X117284541Y-71509216D01*
X117211554Y-71733844D01*
X117174608Y-71967115D01*
X115175101Y-71967115D01*
X115138173Y-71733965D01*
X115065210Y-71509410D01*
X114958022Y-71299041D01*
X114897766Y-71216107D01*
X114897766Y-71216106D01*
X114158070Y-71955803D01*
X114141033Y-71892220D01*
X114075207Y-71778206D01*
X113982115Y-71685114D01*
X113868101Y-71619288D01*
X113804517Y-71602250D01*
X114544213Y-70862553D01*
X114544212Y-70862551D01*
X114461282Y-70802300D01*
X114250910Y-70695110D01*
X114026355Y-70622147D01*
X114026356Y-70622147D01*
X113793160Y-70585213D01*
X113557056Y-70585213D01*
X113323860Y-70622147D01*
X113099305Y-70695110D01*
X112888938Y-70802297D01*
X112806002Y-70862553D01*
X113545699Y-71602250D01*
X113482115Y-71619288D01*
X113368101Y-71685114D01*
X113275009Y-71778206D01*
X113209183Y-71892220D01*
X113192145Y-71955804D01*
X112452448Y-71216107D01*
X112392192Y-71299043D01*
X112285005Y-71509410D01*
X112212042Y-71733965D01*
X112175108Y-71967160D01*
X104769358Y-71967160D01*
X104769358Y-71004696D01*
X104769622Y-70996603D01*
X104775828Y-70901719D01*
X104779909Y-70839331D01*
X104784841Y-70763921D01*
X104786946Y-70747903D01*
X104831593Y-70522973D01*
X104835769Y-70507357D01*
X104909338Y-70290155D01*
X104915509Y-70275223D01*
X105016740Y-70069463D01*
X105024807Y-70055456D01*
X105151983Y-69864630D01*
X105161807Y-69851791D01*
X105312752Y-69679162D01*
X105324169Y-69667709D01*
X105496303Y-69516223D01*
X105509123Y-69506348D01*
X105699524Y-69378574D01*
X105713512Y-69370458D01*
X105918962Y-69268563D01*
X105933868Y-69262347D01*
X106150827Y-69188087D01*
X106166431Y-69183861D01*
X106391221Y-69138494D01*
X106407231Y-69136338D01*
X106616900Y-69121950D01*
X106639812Y-69120378D01*
X106648301Y-69120087D01*
X137625450Y-69120087D01*
X137692489Y-69139772D01*
G37*
%TD.AperFunction*%
%TD*%
M02*
