M48
; DRILL file KiCad 10.0.0 date 2026-09-19T11:36:27
; FORMAT={-:-/ absolute / metric / decimal}
; #@! TF.CreationDate,2026-09-19T11:36:27-07:00
; #@! TF.GenerationSoftware,Kicad,Pcbnew,10.0.0
; #@! TF.FileFunction,NonPlated,1,2,NPTH
FMAT,2
METRIC
; #@! TA.AperFunction,NonPlated,NPTH,ComponentDrill
T1C1.750
; #@! TA.AperFunction,NonPlated,NPTH,ComponentDrill
T2C2.200
; #@! TA.AperFunction,NonPlated,NPTH,ComponentDrill
T3C4.000
%
G90
G05
T1
X111.095Y-101.957
X111.095Y-121.007
X111.095Y-140.057
X121.255Y-101.957
X121.255Y-121.007
X121.255Y-140.057
X130.145Y-101.957
X130.145Y-121.007
X130.145Y-140.057
X140.305Y-101.957
X140.305Y-121.007
X140.305Y-140.057
X149.195Y-101.957
X149.195Y-121.007
X149.195Y-140.057
X159.355Y-101.957
X159.355Y-121.007
X159.355Y-140.057
X168.245Y-101.957
X168.245Y-121.007
X168.245Y-140.057
X178.405Y-101.957
X178.405Y-121.007
X178.405Y-140.057
T2
X125.7Y-111.482
X125.7Y-147.201
X126.891Y-72.191
X162.61Y-72.191
X163.8Y-111.482
X163.8Y-147.201
T3
X116.175Y-101.957
X116.175Y-121.007
X116.175Y-140.057
X135.225Y-101.957
X135.225Y-121.007
X135.225Y-140.057
X154.275Y-101.957
X154.275Y-121.007
X154.275Y-140.057
X173.325Y-101.957
X173.325Y-121.007
X173.325Y-140.057
M30
