%TF.GenerationSoftware,KiCad,Pcbnew,10.0.0*%
%TF.CreationDate,2026-09-19T11:35:58-07:00*%
%TF.ProjectId,macropad_v3,6d616372-6f70-4616-945f-76332e6b6963,rev?*%
%TF.SameCoordinates,Original*%
%TF.FileFunction,Soldermask,Top*%
%TF.FilePolarity,Negative*%
%FSLAX46Y46*%
G04 Gerber Fmt 4.6, Leading zero omitted, Abs format (unit mm)*
G04 Created by KiCad (PCBNEW 10.0.0) date 2026-09-19 11:35:58*
%MOMM*%
%LPD*%
G01*
G04 APERTURE LIST*
%ADD10C,1.750000*%
%ADD11C,4.000000*%
%ADD12C,2.500000*%
%ADD13C,2.200000*%
%ADD14C,2.000000*%
%ADD15R,2.800000X3.600000*%
G04 APERTURE END LIST*
D10*
%TO.C,S3*%
X149195108Y-101957088D03*
D11*
X154275108Y-101957088D03*
D10*
X159355108Y-101957088D03*
D12*
X150465108Y-99417088D03*
X156815108Y-96877088D03*
%TD*%
D10*
%TO.C,S10*%
X130145108Y-140057088D03*
D11*
X135225108Y-140057088D03*
D10*
X140305108Y-140057088D03*
D12*
X131415108Y-137517088D03*
X137765108Y-134977088D03*
%TD*%
D13*
%TO.C,H2*%
X162609656Y-72191496D03*
%TD*%
%TO.C,H1*%
X126890876Y-72191496D03*
%TD*%
D10*
%TO.C,S5*%
X111095108Y-121007088D03*
D11*
X116175108Y-121007088D03*
D10*
X121255108Y-121007088D03*
D12*
X112365108Y-118467088D03*
X118715108Y-115927088D03*
%TD*%
D10*
%TO.C,S6*%
X130145108Y-121007088D03*
D11*
X135225108Y-121007088D03*
D10*
X140305108Y-121007088D03*
D12*
X131415108Y-118467088D03*
X137765108Y-115927088D03*
%TD*%
D10*
%TO.C,S4*%
X168245108Y-101957088D03*
D11*
X173325108Y-101957088D03*
D10*
X178405108Y-101957088D03*
D12*
X169515108Y-99417088D03*
X175865108Y-96877088D03*
%TD*%
D10*
%TO.C,S11*%
X149195108Y-140057088D03*
D11*
X154275108Y-140057088D03*
D10*
X159355108Y-140057088D03*
D12*
X150465108Y-137517088D03*
X156815108Y-134977088D03*
%TD*%
D14*
%TO.C,S14*%
X113675108Y-72085213D03*
X118675108Y-72085213D03*
D15*
X110475108Y-79085213D03*
X121875108Y-79085213D03*
D14*
X113675108Y-86585213D03*
X118675108Y-86585213D03*
X116175108Y-86585213D03*
%TD*%
D13*
%TO.C,H5*%
X125700250Y-147200934D03*
%TD*%
D10*
%TO.C,S1*%
X111095108Y-101957088D03*
D11*
X116175108Y-101957088D03*
D10*
X121255108Y-101957088D03*
D12*
X112365108Y-99417088D03*
X118715108Y-96877088D03*
%TD*%
D10*
%TO.C,S7*%
X149195108Y-121007088D03*
D11*
X154275108Y-121007088D03*
D10*
X159355108Y-121007088D03*
D12*
X150465108Y-118467088D03*
X156815108Y-115927088D03*
%TD*%
D13*
%TO.C,H4*%
X163800282Y-111482154D03*
%TD*%
D10*
%TO.C,S12*%
X168245108Y-140057088D03*
D11*
X173325108Y-140057088D03*
D10*
X178405108Y-140057088D03*
D12*
X169515108Y-137517088D03*
X175865108Y-134977088D03*
%TD*%
D10*
%TO.C,S9*%
X111095108Y-140057088D03*
D11*
X116175108Y-140057088D03*
D10*
X121255108Y-140057088D03*
D12*
X112365108Y-137517088D03*
X118715108Y-134977088D03*
%TD*%
D10*
%TO.C,S8*%
X168245108Y-121007088D03*
D11*
X173325108Y-121007088D03*
D10*
X178405108Y-121007088D03*
D12*
X169515108Y-118467088D03*
X175865108Y-115927088D03*
%TD*%
D13*
%TO.C,H6*%
X163800282Y-147200934D03*
%TD*%
%TO.C,H3*%
X125700250Y-111482154D03*
%TD*%
D10*
%TO.C,S2*%
X130145108Y-101957088D03*
D11*
X135225108Y-101957088D03*
D10*
X140305108Y-101957088D03*
D12*
X131415108Y-99417088D03*
X137765108Y-96877088D03*
%TD*%
D14*
%TO.C,S13*%
X170825108Y-72085213D03*
X175825108Y-72085213D03*
D15*
X167625108Y-79085213D03*
X179025108Y-79085213D03*
D14*
X170825108Y-86585213D03*
X175825108Y-86585213D03*
X173325108Y-86585213D03*
%TD*%
M02*
