%TF.GenerationSoftware,KiCad,Pcbnew,10.0.0*%
%TF.CreationDate,2026-09-19T11:35:58-07:00*%
%TF.ProjectId,macropad_v3,6d616372-6f70-4616-945f-76332e6b6963,rev?*%
%TF.SameCoordinates,Original*%
%TF.FileFunction,Paste,Bot*%
%TF.FilePolarity,Positive*%
%FSLAX46Y46*%
G04 Gerber Fmt 4.6, Leading zero omitted, Abs format (unit mm)*
G04 Created by KiCad (PCBNEW 10.0.0) date 2026-09-19 11:35:58*
%MOMM*%
%LPD*%
G01*
G04 APERTURE LIST*
G04 Aperture macros list*
%AMRoundRect*
0 Rectangle with rounded corners*
0 $1 Rounding radius*
0 $2 $3 $4 $5 $6 $7 $8 $9 X,Y pos of 4 corners*
0 Add a 4 corners polygon primitive as box body*
4,1,4,$2,$3,$4,$5,$6,$7,$8,$9,$2,$3,0*
0 Add four circle primitives for the rounded corners*
1,1,$1+$1,$2,$3*
1,1,$1+$1,$4,$5*
1,1,$1+$1,$6,$7*
1,1,$1+$1,$8,$9*
0 Add four rect primitives between the rounded corners*
20,1,$1+$1,$2,$3,$4,$5,0*
20,1,$1+$1,$4,$5,$6,$7,0*
20,1,$1+$1,$6,$7,$8,$9,0*
20,1,$1+$1,$8,$9,$2,$3,0*%
G04 Aperture macros list end*
%ADD10RoundRect,0.090000X-0.360000X0.660000X-0.360000X-0.660000X0.360000X-0.660000X0.360000X0.660000X0*%
%ADD11RoundRect,0.140000X-0.170000X0.140000X-0.170000X-0.140000X0.170000X-0.140000X0.170000X0.140000X0*%
%ADD12RoundRect,0.225000X0.375000X-0.225000X0.375000X0.225000X-0.375000X0.225000X-0.375000X-0.225000X0*%
%ADD13RoundRect,0.240000X-0.960000X-0.560000X0.960000X-0.560000X0.960000X0.560000X-0.960000X0.560000X0*%
%ADD14RoundRect,0.240000X0.960000X0.560000X-0.960000X0.560000X-0.960000X-0.560000X0.960000X-0.560000X0*%
%ADD15RoundRect,0.240000X0.560000X-0.960000X0.560000X0.960000X-0.560000X0.960000X-0.560000X-0.960000X0*%
G04 APERTURE END LIST*
D10*
%TO.C,D15*%
X162150108Y-129272713D03*
X165450108Y-129272713D03*
X165450108Y-134172713D03*
X162150108Y-134172713D03*
%TD*%
%TO.C,D13*%
X122859483Y-87600838D03*
X126159483Y-87600838D03*
X126159483Y-92500838D03*
X122859483Y-92500838D03*
%TD*%
D11*
%TO.C,C2*%
X169753233Y-89570838D03*
X169753233Y-90530838D03*
%TD*%
D12*
%TO.C,D1*%
X125700108Y-104797713D03*
X125700108Y-101497713D03*
%TD*%
D13*
%TO.C,U2*%
X136149950Y-70186814D03*
D14*
X136149950Y-72726814D03*
X136149950Y-75266814D03*
X136149950Y-77806814D03*
X136149950Y-80346814D03*
X136149950Y-82886814D03*
X136149950Y-85426814D03*
X136149950Y-87966814D03*
X136149950Y-90506814D03*
D15*
X139669950Y-91486814D03*
X142209950Y-91486814D03*
X144749950Y-91486814D03*
X147289950Y-91486814D03*
X149829950Y-91486814D03*
D14*
X153349950Y-90506814D03*
X153349950Y-87966814D03*
X153349950Y-85426814D03*
X153349950Y-82886814D03*
X153349950Y-80346814D03*
X153349950Y-77806814D03*
X153349950Y-75266814D03*
X153349950Y-72726814D03*
X153349950Y-70186814D03*
%TD*%
D11*
%TO.C,C3*%
X168562608Y-130052088D03*
X168562608Y-131012088D03*
%TD*%
%TO.C,C4*%
X120937608Y-130052088D03*
X120937608Y-131012088D03*
%TD*%
D12*
%TO.C,D8*%
X182850108Y-123847713D03*
X182850108Y-120547713D03*
%TD*%
%TO.C,D11*%
X163800108Y-142897713D03*
X163800108Y-139597713D03*
%TD*%
D11*
%TO.C,C1*%
X119746983Y-89570838D03*
X119746983Y-90530838D03*
%TD*%
D12*
%TO.C,D2*%
X144750108Y-104797713D03*
X144750108Y-101497713D03*
%TD*%
%TO.C,D5*%
X125700108Y-123847713D03*
X125700108Y-120547713D03*
%TD*%
%TO.C,D10*%
X144750108Y-142897713D03*
X144750108Y-139597713D03*
%TD*%
%TO.C,D9*%
X125700108Y-142897713D03*
X125700108Y-139597713D03*
%TD*%
D10*
%TO.C,D16*%
X124050108Y-129272713D03*
X127350108Y-129272713D03*
X127350108Y-134172713D03*
X124050108Y-134172713D03*
%TD*%
D12*
%TO.C,D6*%
X144750108Y-123847713D03*
X144750108Y-120547713D03*
%TD*%
%TO.C,D3*%
X163800108Y-104797713D03*
X163800108Y-101497713D03*
%TD*%
%TO.C,D12*%
X182850108Y-142897713D03*
X182850108Y-139597713D03*
%TD*%
%TO.C,D4*%
X182850108Y-104797713D03*
X182850108Y-101497713D03*
%TD*%
D10*
%TO.C,D14*%
X163340733Y-87600838D03*
X166640733Y-87600838D03*
X166640733Y-92500838D03*
X163340733Y-92500838D03*
%TD*%
D12*
%TO.C,D7*%
X163800108Y-123847713D03*
X163800108Y-120547713D03*
%TD*%
M02*
