M48
; DRILL file KiCad 10.0.0 date 2026-09-19T11:36:27
; FORMAT={-:-/ absolute / metric / decimal}
; #@! TF.CreationDate,2026-09-19T11:36:27-07:00
; #@! TF.GenerationSoftware,Kicad,Pcbnew,10.0.0
; #@! TF.FileFunction,Plated,1,2,PTH
FMAT,2
METRIC
; #@! TA.AperFunction,Plated,PTH,ViaDrill
T1C0.300
; #@! TA.AperFunction,Plated,PTH,ComponentDrill
T2C1.000
; #@! TA.AperFunction,Plated,PTH,ComponentDrill
T3C1.500
; #@! TA.AperFunction,Plated,PTH,ComponentDrill
T4C1.800
%
G90
G05
T1
X121.656Y-75.076
X127.506Y-95.751
X127.806Y-76.751
X128.156Y-125.451
X128.181Y-103.926
X129.256Y-90.226
X129.416Y-75.155
X129.431Y-80.826
X129.706Y-75.901
X131.106Y-90.701
X131.802Y-77.996
X132.844Y-83.056
X133.331Y-91.851
X133.931Y-91.286
X134.481Y-90.646
X143.559Y-129.639
X151.447Y-92.876
X155.466Y-84.693
X155.763Y-73.531
X155.763Y-90.051
X157.156Y-87.776
X157.252Y-72.191
X157.481Y-129.926
X157.831Y-137.676
X157.847Y-84.098
X159.038Y-81.717
X159.038Y-83.001
X159.231Y-94.126
X159.706Y-95.401
X159.931Y-93.476
X160.656Y-105.398
X161.531Y-93.426
X162.531Y-136.926
X162.756Y-142.226
X164.531Y-96.001
X164.956Y-99.351
X165.606Y-103.976
X166.406Y-124.676
X178.088Y-84.098
X179.931Y-125.851
T2
X113.675Y-72.085
X113.675Y-86.585
X116.175Y-86.585
X118.675Y-72.085
X118.675Y-86.585
X170.825Y-72.085
X170.825Y-86.585
X173.325Y-86.585
X175.825Y-72.085
X175.825Y-86.585
T3
X112.365Y-99.417
X112.365Y-118.467
X112.365Y-137.517
X118.715Y-96.877
X118.715Y-115.927
X118.715Y-134.977
X131.415Y-99.417
X131.415Y-118.467
X131.415Y-137.517
X137.765Y-96.877
X137.765Y-115.927
X137.765Y-134.977
X150.465Y-99.417
X150.465Y-118.467
X150.465Y-137.517
X156.815Y-96.877
X156.815Y-115.927
X156.815Y-134.977
X169.515Y-99.417
X169.515Y-118.467
X169.515Y-137.517
X175.865Y-96.877
X175.865Y-115.927
X175.865Y-134.977
T4
G00X110.475Y-78.685
M15
G01X110.475Y-79.485
M16
G05
G00X121.875Y-78.685
M15
G01X121.875Y-79.485
M16
G05
G00X167.625Y-78.685
M15
G01X167.625Y-79.485
M16
G05
G00X179.025Y-78.685
M15
G01X179.025Y-79.485
M16
G05
M30
